SplineFontDB: 3.2
FontName: VictorFFira-Regular
FullName: Victor F Fira
FamilyName: Victor F Fira
Weight: Regular
Copyright: Copyright 2012-2015 The Fira Code Project Authors (https://github.com/tonsky/FiraCode).
Version: 1.0
ItalicAngle: 0
UnderlinePosition: -125
UnderlineWidth: 50
Ascent: 1600
Descent: 400
InvalidEm: 0
sfntRevision: 0x00010000
LayerCount: 2
Layer: 0 1 "Back" 1
Layer: 1 1 "Fore" 0
XUID: [1021 685 -1151724439 15192258]
StyleMap: 0x0040
FSType: 0
OS2Version: 4
OS2_WeightWidthSlopeOnly: 0
OS2_UseTypoMetrics: 1
CreationTime: 1538319911
ModificationTime: 1606071132
PfmFamily: 17
TTFWeight: 400
TTFWidth: 5
LineGap: 0
VLineGap: 0
Panose: 2 11 8 9 5 0 0 2 0 4
OS2TypoAscent: 1980
OS2TypoAOffset: 0
OS2TypoDescent: -644
OS2TypoDOffset: 0
OS2TypoLinegap: 0
OS2WinAscent: 2164
OS2WinAOffset: 0
OS2WinDescent: 1000
OS2WinDOffset: 0
HheadAscent: 1980
HheadAOffset: 0
HheadDescent: -644
HheadDOffset: 0
OS2SubXSize: 1300
OS2SubYSize: 1200
OS2SubXOff: 0
OS2SubYOff: 150
OS2SupXSize: 1300
OS2SupYSize: 1200
OS2SupXOff: 0
OS2SupYOff: 700
OS2StrikeYSize: 50
OS2StrikeYPos: 630
OS2CapHeight: 1374
OS2XHeight: 1050
OS2Vendor: 'CTDB'
OS2CodePages: 6000009f.dfd70000
OS2UnicodeRanges: e00002ef.5200f8fb.00000008.00000000
Lookup: 1 0 0 "'aalt' Access All Alternates lookup 0" { "'aalt' Access All Alternates lookup 0 subtable"  } ['aalt' ('DFLT' <'dflt' > 'cyrl' <'dflt' > 'grek' <'dflt' > 'latn' <'AFK ' 'AZE ' 'CAT ' 'CRT ' 'KAZ ' 'MOL ' 'PLK ' 'ROM ' 'TAT ' 'TRK ' 'dflt' > 'zinh' <'dflt' > 'zyyy' <'dflt' > ) ]
Lookup: 3 0 0 "'aalt' Access All Alternates lookup 1" { "'aalt' Access All Alternates lookup 1 subtable"  } ['aalt' ('DFLT' <'dflt' > 'cyrl' <'dflt' > 'grek' <'dflt' > 'latn' <'AFK ' 'AZE ' 'CAT ' 'CRT ' 'KAZ ' 'MOL ' 'PLK ' 'ROM ' 'TAT ' 'TRK ' 'dflt' > 'zinh' <'dflt' > 'zyyy' <'dflt' > ) ]

StartChar: .notdef
Encoding: 1114112 -1 0
Width: 1200
Flags: W
LayerCount: 2
Fore
SplineSet
180 2100 m 1,0,-1
 1020 2100 l 1,1,-1
 1020 -700 l 1,2,-1
 180 -700 l 1,3,-1
 180 2100 l 1,0,-1
912 -596 m 1,4,-1
 912 1996 l 1,5,-1
 290 1996 l 1,6,-1
 290 -596 l 1,7,-1
 912 -596 l 1,4,-1
614 346 m 2,8,9
 614 324 614 324 598 311 c 128,-1,10
 582 298 582 298 564 298 c 0,11,12
 545 298 545 298 529.5 311 c 128,-1,13
 514 324 514 324 514 346 c 2,14,-1
 514 514 l 1,15,16
 622 520 622 520 659 554.5 c 128,-1,17
 696 589 696 589 696 668 c 0,18,19
 696 727 696 727 672.5 766.5 c 128,-1,20
 649 806 649 806 574 806 c 0,21,22
 517 806 517 806 470 784 c 0,23,24
 455 778 455 778 444 778 c 0,25,26
 422 778 422 778 409 791.5 c 128,-1,27
 396 805 396 805 396 824 c 0,28,29
 396 851 396 851 426.5 868 c 128,-1,30
 457 885 457 885 500 893.5 c 128,-1,31
 543 902 543 902 582 902 c 0,32,33
 668 902 668 902 716.5 869.5 c 128,-1,34
 765 837 765 837 784.5 784.5 c 128,-1,35
 804 732 804 732 804 672 c 0,36,37
 804 567 804 567 759.5 509 c 128,-1,38
 715 451 715 451 614 436 c 1,39,-1
 614 346 l 2,8,9
494 170 m 0,40,41
 494 200 494 200 514 220 c 128,-1,42
 534 240 534 240 564 240 c 256,43,44
 594 240 594 240 614 220 c 128,-1,45
 634 200 634 200 634 170 c 0,46,47
 634 139 634 139 614 117.5 c 128,-1,48
 594 96 594 96 564 96 c 256,49,50
 534 96 534 96 514 117.5 c 128,-1,51
 494 139 494 139 494 170 c 0,40,41
EndSplineSet
Validated: 1
EndChar

StartChar: A
Encoding: 65 65 1
Width: 1200
GlyphClass: 2
Flags: W
AnchorPoint: "Anchor-1" 596 0 basechar 0
AnchorPoint: "Anchor-0" 600 1377 basechar 0
LayerCount: 2
Fore
SplineSet
867 351 m 1,0,-1
 322 351 l 1,1,-1
 212 0 l 1,2,-1
 41 0 l 1,3,-1
 489 1377 l 1,4,-1
 711 1377 l 1,5,-1
 1159 0 l 1,6,-1
 977 0 l 1,7,-1
 867 351 l 1,0,-1
367 495 m 1,8,-1
 822 495 l 1,9,-1
 596 1231 l 1,10,-1
 367 495 l 1,8,-1
EndSplineSet
Validated: 1
Substitution2: "Single Substitution lookup 12 subtable" ordfeminine
Substitution2: "'aalt' Access All Alternates lookup 0 subtable" ordfeminine
Position2: "'cpsp' Capital Spacing lookup 0 subtable" dx=0 dy=0 dh=0 dv=0
EndChar

StartChar: AE
Encoding: 198 198 11
Width: 1200
GlyphClass: 2
Flags: W
AnchorPoint: "Anchor-1" 600 0 basechar 0
AnchorPoint: "Anchor-0" 723 1377 basechar 0
LayerCount: 2
Fore
SplineSet
659 351 m 1,0,-1
 252 351 l 1,1,-1
 153 0 l 1,2,-1
 -24 0 l 1,3,-1
 380 1377 l 1,4,-1
 1132 1377 l 1,5,-1
 1111 1236 l 1,6,-1
 640 1236 l 1,7,-1
 742 769 l 1,8,-1
 1114 769 l 1,9,-1
 1114 628 l 1,10,-1
 769 628 l 1,11,-1
 872 141 l 1,12,-1
 1215 141 l 1,13,-1
 1215 0 l 1,14,-1
 732 0 l 1,15,-1
 659 351 l 1,0,-1
297 497 m 1,16,-1
 628 497 l 1,17,-1
 481 1240 l 1,18,-1
 297 497 l 1,16,-1
EndSplineSet
Validated: 1
Position2: "'cpsp' Capital Spacing lookup 0 subtable" dx=0 dy=0 dh=0 dv=0
EndChar

StartChar: B
Encoding: 66 66 13
Width: 1200
GlyphClass: 2
Flags: W
AnchorPoint: "Anchor-1" 600 0 basechar 0
AnchorPoint: "Anchor-0" 600 1377 basechar 0
LayerCount: 2
Fore
SplineSet
896 387 m 0,0,1
 896 491 896 491 855.5 547.5 c 128,-1,2
 815 604 815 604 748 626 c 128,-1,3
 681 648 681 648 601 648 c 2,4,-1
 366 648 l 1,5,-1
 366 143 l 1,6,-1
 593 143 l 2,7,8
 644 143 644 143 697 153 c 128,-1,9
 750 163 750 163 795.5 189 c 128,-1,10
 841 215 841 215 868.5 262.5 c 128,-1,11
 896 310 896 310 896 387 c 0,0,1
841 1021 m 0,12,13
 841 1138 841 1138 768.5 1187.5 c 128,-1,14
 696 1237 696 1237 571 1237 c 2,15,-1
 366 1237 l 1,16,-1
 366 791 l 1,17,-1
 588 791 l 2,18,19
 710 791 710 791 775.5 845.5 c 128,-1,20
 841 900 841 900 841 1021 c 0,12,13
1079 393 m 0,21,22
 1079 281 1079 281 1034.5 205 c 128,-1,23
 990 129 990 129 915.5 84 c 128,-1,24
 841 39 841 39 749.5 19.5 c 128,-1,25
 658 0 658 0 563 0 c 2,26,-1
 193 0 l 1,27,-1
 193 1377 l 1,28,-1
 532 1377 l 2,29,30
 623 1377 623 1377 709.5 1360.5 c 128,-1,31
 796 1344 796 1344 865.5 1304.5 c 128,-1,32
 935 1265 935 1265 977 1198 c 128,-1,33
 1019 1131 1019 1131 1019 1030 c 0,34,35
 1019 941 1019 941 982.5 879.5 c 128,-1,36
 946 818 946 818 887.5 781 c 128,-1,37
 829 744 829 744 763 729 c 1,38,39
 840 717 840 717 912.5 682.5 c 128,-1,40
 985 648 985 648 1032 578.5 c 128,-1,41
 1079 509 1079 509 1079 393 c 0,21,22
EndSplineSet
Validated: 1
Position2: "'cpsp' Capital Spacing lookup 0 subtable" dx=0 dy=0 dh=0 dv=0
EndChar

StartChar: C
Encoding: 67 67 14
Width: 1200
GlyphClass: 2
Flags: W
AnchorPoint: "Anchor-1" 699 0 basechar 0
AnchorPoint: "Anchor-0" 731 1377 basechar 0
LayerCount: 2
Fore
SplineSet
716 1399 m 0,0,1
 851 1399 851 1399 942 1365 c 128,-1,2
 1033 1331 1033 1331 1115 1265 c 1,3,-1
 1018 1152 l 1,4,5
 953 1207 953 1207 880.5 1230.5 c 128,-1,6
 808 1254 808 1254 729 1254 c 0,7,8
 616 1254 616 1254 520 1200.5 c 128,-1,9
 424 1147 424 1147 365.5 1023.5 c 128,-1,10
 307 900 307 900 307 689 c 0,11,12
 307 484 307 484 362.5 360 c 128,-1,13
 418 236 418 236 513 181 c 128,-1,14
 608 126 608 126 725 126 c 0,15,16
 841 126 841 126 915.5 161 c 128,-1,17
 990 196 990 196 1045 241 c 1,18,-1
 1135 127 l 1,19,20
 1072 66 1072 66 971 21.5 c 128,-1,21
 870 -23 870 -23 723 -23 c 0,22,23
 556 -23 556 -23 420.5 59 c 128,-1,24
 285 141 285 141 206 299.5 c 128,-1,25
 127 458 127 458 127 689 c 0,26,27
 127 921 127 921 207.5 1079 c 128,-1,28
 288 1237 288 1237 422.5 1318 c 128,-1,29
 557 1399 557 1399 716 1399 c 0,0,1
EndSplineSet
Validated: 1
Position2: "'cpsp' Capital Spacing lookup 0 subtable" dx=0 dy=0 dh=0 dv=0
EndChar

StartChar: D
Encoding: 68 68 20
Width: 1200
GlyphClass: 2
Flags: W
AnchorPoint: "Anchor-1" 600 0 basechar 0
AnchorPoint: "Anchor-0" 567 1377 basechar 0
LayerCount: 2
Fore
SplineSet
920 695 m 0,0,1
 920 875 920 875 882 983 c 128,-1,2
 844 1091 844 1091 782 1145 c 128,-1,3
 720 1199 720 1199 646.5 1217 c 128,-1,4
 573 1235 573 1235 502 1235 c 2,5,-1
 340 1235 l 1,6,-1
 340 139 l 1,7,-1
 504 139 l 2,8,9
 578 139 578 139 651.5 162.5 c 128,-1,10
 725 186 725 186 786 246.5 c 128,-1,11
 847 307 847 307 883.5 415.5 c 128,-1,12
 920 524 920 524 920 695 c 0,0,1
1105 695 m 0,13,14
 1105 479 1105 479 1049 342.5 c 128,-1,15
 993 206 993 206 901 131.5 c 128,-1,16
 809 57 809 57 699.5 28.5 c 128,-1,17
 590 0 590 0 483 0 c 2,18,-1
 167 0 l 1,19,-1
 167 1377 l 1,20,-1
 461 1377 l 2,21,22
 582 1377 582 1377 696.5 1350 c 128,-1,23
 811 1323 811 1323 903.5 1250.5 c 128,-1,24
 996 1178 996 1178 1050.5 1044 c 128,-1,25
 1105 910 1105 910 1105 695 c 0,13,14
EndSplineSet
Validated: 1
Position2: "'cpsp' Capital Spacing lookup 0 subtable" dx=0 dy=0 dh=0 dv=0
EndChar

StartChar: Eth
Encoding: 208 208 21
Width: 1200
GlyphClass: 2
Flags: W
AnchorPoint: "Anchor-1" 619 0 basechar 0
AnchorPoint: "Anchor-0" 586 1377 basechar 0
LayerCount: 2
Fore
SplineSet
675 773 m 1,0,-1
 675 639 l 1,1,-1
 41 639 l 1,2,-1
 41 773 l 1,3,-1
 675 773 l 1,0,-1
939 695 m 0,4,5
 939 875 939 875 901 983 c 128,-1,6
 863 1091 863 1091 801 1145 c 128,-1,7
 739 1199 739 1199 665.5 1217 c 128,-1,8
 592 1235 592 1235 521 1235 c 2,9,-1
 359 1235 l 1,10,-1
 359 139 l 1,11,-1
 523 139 l 2,12,13
 598 139 598 139 671 162.5 c 128,-1,14
 744 186 744 186 805 246.5 c 128,-1,15
 866 307 866 307 902.5 415.5 c 128,-1,16
 939 524 939 524 939 695 c 0,4,5
1124 695 m 0,17,18
 1124 479 1124 479 1068 342.5 c 128,-1,19
 1012 206 1012 206 920 131.5 c 128,-1,20
 828 57 828 57 718.5 28.5 c 128,-1,21
 609 0 609 0 502 0 c 2,22,-1
 186 0 l 1,23,-1
 186 1377 l 1,24,-1
 480 1377 l 2,25,26
 601 1377 601 1377 715.5 1350 c 128,-1,27
 830 1323 830 1323 922.5 1250.5 c 128,-1,28
 1015 1178 1015 1178 1069.5 1044 c 128,-1,29
 1124 910 1124 910 1124 695 c 0,17,18
EndSplineSet
Validated: 5
Position2: "'cpsp' Capital Spacing lookup 0 subtable" dx=0 dy=0 dh=0 dv=0
EndChar

StartChar: E
Encoding: 69 69 24
Width: 1200
GlyphClass: 2
Flags: W
AnchorPoint: "Anchor-1" 651 0 basechar 0
AnchorPoint: "Anchor-0" 642 1377 basechar 0
LayerCount: 2
Fore
SplineSet
425 1235 m 1,0,-1
 425 771 l 1,1,-1
 935 771 l 1,2,-1
 935 628 l 1,3,-1
 425 628 l 1,4,-1
 425 139 l 1,5,-1
 1051 139 l 1,6,-1
 1051 0 l 1,7,-1
 251 0 l 1,8,-1
 251 1377 l 1,9,-1
 1033 1377 l 1,10,-1
 1013 1235 l 1,11,-1
 425 1235 l 1,0,-1
EndSplineSet
Validated: 1
Position2: "'cpsp' Capital Spacing lookup 0 subtable" dx=0 dy=0 dh=0 dv=0
EndChar

StartChar: F
Encoding: 70 70 34
Width: 1200
GlyphClass: 2
Flags: W
AnchorPoint: "Anchor-1" 600 0 basechar 0
AnchorPoint: "Anchor-0" 600 1377 basechar 0
LayerCount: 2
Fore
SplineSet
449 1235 m 1,0,-1
 449 753 l 1,1,-1
 989 753 l 1,2,-1
 989 613 l 1,3,-1
 449 613 l 1,4,-1
 449 0 l 1,5,-1
 277 0 l 1,6,-1
 277 1377 l 1,7,-1
 1088 1377 l 1,8,-1
 1067 1235 l 1,9,-1
 449 1235 l 1,0,-1
EndSplineSet
Validated: 1
Position2: "'cpsp' Capital Spacing lookup 0 subtable" dx=0 dy=0 dh=0 dv=0
EndChar

StartChar: G
Encoding: 71 71 35
Width: 1200
GlyphClass: 2
Flags: W
AnchorPoint: "Anchor-1" 661 0 basechar 0
AnchorPoint: "Anchor-0" 660 1377 basechar 0
LayerCount: 2
Fore
SplineSet
627 -23 m 0,0,1
 464 -23 464 -23 343.5 56 c 128,-1,2
 223 135 223 135 157 293 c 128,-1,3
 91 451 91 451 91 689 c 0,4,5
 91 867 91 867 138.5 1000 c 128,-1,6
 186 1133 186 1133 267.5 1222 c 128,-1,7
 349 1311 349 1311 452.5 1355 c 128,-1,8
 556 1399 556 1399 667 1399 c 0,9,10
 802 1399 802 1399 891 1360.5 c 128,-1,11
 980 1322 980 1322 1061 1248 c 1,12,-1
 956 1139 l 1,13,14
 893 1198 893 1198 823.5 1226 c 128,-1,15
 754 1254 754 1254 668 1254 c 0,16,17
 593 1254 593 1254 523 1225 c 128,-1,18
 453 1196 453 1196 397.5 1130.5 c 128,-1,19
 342 1065 342 1065 309.5 957 c 128,-1,20
 277 849 277 849 277 689 c 0,21,22
 277 490 277 490 318.5 365 c 128,-1,23
 360 240 360 240 441.5 181.5 c 128,-1,24
 523 123 523 123 643 123 c 0,25,26
 715 123 715 123 779.5 140 c 128,-1,27
 844 157 844 157 905 189 c 1,28,-1
 905 609 l 1,29,-1
 634 609 l 1,30,-1
 613 753 l 1,31,-1
 1077 753 l 1,32,-1
 1077 97 l 1,33,34
 984 47 984 47 879 12 c 128,-1,35
 774 -23 774 -23 627 -23 c 0,0,1
EndSplineSet
Validated: 1
Position2: "'cpsp' Capital Spacing lookup 0 subtable" dx=0 dy=0 dh=0 dv=0
EndChar

StartChar: H
Encoding: 72 72 40
Width: 1200
GlyphClass: 2
Flags: W
AnchorPoint: "Anchor-1" 600 0 basechar 0
AnchorPoint: "Anchor-0" 600 1377 basechar 0
LayerCount: 2
Fore
SplineSet
860 0 m 1,0,-1
 860 653 l 1,1,-1
 340 653 l 1,2,-1
 340 0 l 1,3,-1
 167 0 l 1,4,-1
 167 1377 l 1,5,-1
 340 1377 l 1,6,-1
 340 795 l 1,7,-1
 860 795 l 1,8,-1
 860 1377 l 1,9,-1
 1033 1377 l 1,10,-1
 1033 0 l 1,11,-1
 860 0 l 1,0,-1
EndSplineSet
Validated: 1
Position2: "'cpsp' Capital Spacing lookup 0 subtable" dx=0 dy=0 dh=0 dv=0
EndChar

StartChar: Hbar
Encoding: 294 294 41
Width: 1200
Flags: W
LayerCount: 2
Fore
SplineSet
1035 1377 m 1,0,-1
 1035 0 l 1,1,-1
 861 0 l 1,2,-1
 861 653 l 1,3,-1
 339 653 l 1,4,-1
 339 0 l 1,5,-1
 165 0 l 1,6,-1
 165 1377 l 1,7,-1
 339 1377 l 1,8,-1
 339 797 l 1,9,-1
 861 797 l 1,10,-1
 861 1377 l 1,11,-1
 1035 1377 l 1,0,-1
1196 1151 m 1,12,-1
 1196 1018 l 1,13,-1
 4 1018 l 1,14,-1
 4 1151 l 1,15,-1
 1196 1151 l 1,12,-1
EndSplineSet
Validated: 5
Position2: "'cpsp' Capital Spacing lookup 0 subtable" dx=0 dy=0 dh=0 dv=0
EndChar

StartChar: I
Encoding: 73 73 43
Width: 1200
GlyphClass: 2
Flags: W
AnchorPoint: "Anchor-1" 600 0 basechar 0
AnchorPoint: "Anchor-0" 600 1377 basechar 0
LayerCount: 2
Fore
SplineSet
994 1377 m 1,0,-1
 994 1238 l 1,1,-1
 688 1238 l 1,2,-1
 688 139 l 1,3,-1
 994 139 l 1,4,-1
 994 0 l 1,5,-1
 206 0 l 1,6,-1
 206 139 l 1,7,-1
 512 139 l 1,8,-1
 512 1238 l 1,9,-1
 206 1238 l 1,10,-1
 206 1377 l 1,11,-1
 994 1377 l 1,0,-1
EndSplineSet
Validated: 1
Position2: "'cpsp' Capital Spacing lookup 0 subtable" dx=0 dy=0 dh=0 dv=0
EndChar

StartChar: IJ
Encoding: 306 306 44
Width: 1200
Flags: W
LayerCount: 2
Fore
SplineSet
389 -142 m 1,0,1
 592 -122 592 -122 700.5 -54 c 128,-1,2
 809 14 809 14 849.5 126 c 128,-1,3
 890 238 890 238 890 387 c 2,4,-1
 890 1233 l 1,5,-1
 401 1233 l 1,6,-1
 401 143 l 1,7,-1
 561 143 l 1,8,-1
 561 0 l 1,9,-1
 23 0 l 1,10,-1
 23 143 l 1,11,-1
 223 143 l 1,12,-1
 223 1233 l 1,13,-1
 23 1233 l 1,14,-1
 23 1377 l 1,15,-1
 1065 1377 l 1,16,-1
 1065 376 l 2,17,18
 1065 259 1065 259 1036.5 151 c 128,-1,19
 1008 43 1008 43 936.5 -46 c 128,-1,20
 865 -135 865 -135 737 -194.5 c 128,-1,21
 609 -254 609 -254 409 -272 c 1,22,-1
 389 -142 l 1,0,1
EndSplineSet
Validated: 1
Position2: "'cpsp' Capital Spacing lookup 0 subtable" dx=0 dy=0 dh=0 dv=0
EndChar

StartChar: J
Encoding: 74 74 54
Width: 1200
GlyphClass: 2
Flags: W
AnchorPoint: "Anchor-1" 600 0 basechar 0
AnchorPoint: "Anchor-0" 699 1377 basechar 0
LayerCount: 2
Fore
SplineSet
993 1377 m 1,0,-1
 993 457 l 2,1,2
 993 371 993 371 970.5 285.5 c 128,-1,3
 948 200 948 200 894.5 130.5 c 128,-1,4
 841 61 841 61 750 19 c 128,-1,5
 659 -23 659 -23 523 -23 c 0,6,7
 422 -23 422 -23 324.5 9 c 128,-1,8
 227 41 227 41 145 102 c 1,9,-1
 222 217 l 1,10,11
 312 161 312 161 386 141.5 c 128,-1,12
 460 122 460 122 521 122 c 0,13,14
 665 122 665 122 742.5 214 c 128,-1,15
 820 306 820 306 820 467 c 2,16,-1
 820 1235 l 1,17,-1
 412 1235 l 1,18,-1
 412 1377 l 1,19,-1
 993 1377 l 1,0,-1
EndSplineSet
Validated: 1
Position2: "'cpsp' Capital Spacing lookup 0 subtable" dx=0 dy=0 dh=0 dv=0
EndChar

StartChar: K
Encoding: 75 75 56
Width: 1200
GlyphClass: 2
Flags: W
AnchorPoint: "Anchor-1" 645 0 basechar 0
AnchorPoint: "Anchor-0" 653 1377 basechar 0
LayerCount: 2
Fore
SplineSet
383 0 m 1,0,-1
 210 0 l 1,1,-1
 210 1377 l 1,2,-1
 383 1377 l 1,3,-1
 383 0 l 1,0,-1
393 735 m 1,4,-1
 935 1377 l 1,5,-1
 1135 1377 l 1,6,-1
 597 746 l 1,7,-1
 1173 0 l 1,8,-1
 957 0 l 1,9,-1
 393 735 l 1,4,-1
EndSplineSet
Validated: 1
Position2: "'cpsp' Capital Spacing lookup 0 subtable" dx=0 dy=0 dh=0 dv=0
EndChar

StartChar: L
Encoding: 76 76 58
Width: 1200
GlyphClass: 2
Flags: W
AnchorPoint: "Anchor-1" 663 0 basechar 0
AnchorPoint: "Anchor-0" 359 1377 basechar 0
LayerCount: 2
Fore
SplineSet
271 0 m 1,0,-1
 271 1377 l 1,1,-1
 445 1377 l 1,2,-1
 445 155 l 1,3,-1
 1073 155 l 1,4,-1
 1053 0 l 1,5,-1
 271 0 l 1,0,-1
EndSplineSet
Validated: 1
Position2: "'cpsp' Capital Spacing lookup 0 subtable" dx=0 dy=0 dh=0 dv=0
EndChar

StartChar: Lslash
Encoding: 321 321 63
Width: 1200
GlyphClass: 2
Flags: W
AnchorPoint: "Anchor-1" 659 0 basechar 0
AnchorPoint: "Anchor-0" 356 1377 basechar 0
LayerCount: 2
Fore
SplineSet
153 465 m 1,0,-1
 81 578 l 1,1,-1
 769 1005 l 1,2,-1
 844 893 l 1,3,-1
 153 465 l 1,0,-1
267 0 m 1,4,-1
 267 1377 l 1,5,-1
 441 1377 l 1,6,-1
 441 155 l 1,7,-1
 1070 155 l 1,8,-1
 1050 0 l 1,9,-1
 267 0 l 1,4,-1
EndSplineSet
Validated: 5
Position2: "'cpsp' Capital Spacing lookup 0 subtable" dx=0 dy=0 dh=0 dv=0
EndChar

StartChar: M
Encoding: 77 77 64
Width: 1200
GlyphClass: 2
Flags: W
AnchorPoint: "Anchor-1" 600 0 basechar 0
AnchorPoint: "Anchor-0" 600 1377 basechar 0
LayerCount: 2
Fore
SplineSet
1061 1377 m 1,0,-1
 1139 0 l 1,1,-1
 972 0 l 1,2,-1
 929 719 l 2,3,4
 926 792 926 792 923 867 c 128,-1,5
 920 942 920 942 919 1011 c 128,-1,6
 918 1080 918 1080 918 1134 c 128,-1,7
 918 1188 918 1188 918 1218 c 1,8,-1
 686 247 l 1,9,-1
 512 247 l 1,10,-1
 263 1218 l 1,11,12
 264 1189 264 1189 265 1132.5 c 128,-1,13
 266 1076 266 1076 266.5 1005 c 128,-1,14
 267 934 267 934 265.5 859.5 c 128,-1,15
 264 785 264 785 261 721 c 2,16,-1
 224 0 l 1,17,-1
 61 0 l 1,18,-1
 139 1377 l 1,19,-1
 381 1377 l 1,20,-1
 604 434 l 1,21,-1
 817 1377 l 1,22,-1
 1061 1377 l 1,0,-1
EndSplineSet
Validated: 33
Position2: "'cpsp' Capital Spacing lookup 0 subtable" dx=0 dy=0 dh=0 dv=0
EndChar

StartChar: N
Encoding: 78 78 65
Width: 1200
GlyphClass: 2
Flags: W
AnchorPoint: "Anchor-1" 600 0 basechar 0
AnchorPoint: "Anchor-0" 597 1377 basechar 0
LayerCount: 2
Fore
SplineSet
790 0 m 1,0,-1
 305 1211 l 1,1,2
 306 1188 306 1188 309.5 1134.5 c 128,-1,3
 313 1081 313 1081 317.5 1007.5 c 128,-1,4
 322 934 322 934 325 852 c 128,-1,5
 328 770 328 770 328 690 c 2,6,-1
 328 0 l 1,7,-1
 167 0 l 1,8,-1
 167 1377 l 1,9,-1
 402 1377 l 1,10,-1
 895 161 l 1,11,12
 894 190 894 190 888 267.5 c 128,-1,13
 882 345 882 345 877 455 c 128,-1,14
 872 565 872 565 872 688 c 2,15,-1
 872 1377 l 1,16,-1
 1033 1377 l 1,17,-1
 1033 0 l 1,18,-1
 790 0 l 1,0,-1
EndSplineSet
Validated: 1
Position2: "'cpsp' Capital Spacing lookup 0 subtable" dx=0 dy=0 dh=0 dv=0
EndChar

StartChar: O
Encoding: 79 79 71
Width: 1200
GlyphClass: 2
Flags: W
AnchorPoint: "Anchor-1" 600 0 basechar 0
AnchorPoint: "Anchor-0" 600 1377 basechar 0
LayerCount: 2
Fore
SplineSet
1107 687 m 0,0,1
 1107 479 1107 479 1050.5 318.5 c 128,-1,2
 994 158 994 158 881 67.5 c 128,-1,3
 768 -23 768 -23 600 -23 c 0,4,5
 433 -23 433 -23 319.5 65.5 c 128,-1,6
 206 154 206 154 149.5 313 c 128,-1,7
 93 472 93 472 93 685 c 0,8,9
 93 894 93 894 149.5 1055 c 128,-1,10
 206 1216 206 1216 319.5 1307.5 c 128,-1,11
 433 1399 433 1399 600 1399 c 0,12,13
 768 1399 768 1399 881 1310 c 128,-1,14
 994 1221 994 1221 1050.5 1061 c 128,-1,15
 1107 901 1107 901 1107 687 c 0,0,1
925 687 m 256,16,17
 925 962 925 962 849.5 1108 c 128,-1,18
 774 1254 774 1254 600 1254 c 256,19,20
 426 1254 426 1254 350.5 1107 c 128,-1,21
 275 960 275 960 275 685 c 256,22,23
 275 410 275 410 353 266.5 c 128,-1,24
 431 123 431 123 600 123 c 0,25,26
 774 123 774 123 849.5 267.5 c 128,-1,27
 925 412 925 412 925 687 c 256,16,17
EndSplineSet
Validated: 1
Substitution2: "Single Substitution lookup 12 subtable" ordmasculine
Substitution2: "'aalt' Access All Alternates lookup 0 subtable" ordmasculine
Position2: "'cpsp' Capital Spacing lookup 0 subtable" dx=0 dy=0 dh=0 dv=0
EndChar

StartChar: Oslash
Encoding: 216 216 79
Width: 1200
GlyphClass: 2
Flags: W
AnchorPoint: "Anchor-1" 600 0 basechar 0
AnchorPoint: "Anchor-0" 600 1377 basechar 0
LayerCount: 2
Fore
SplineSet
600 1399 m 256,0,1
 767 1399 767 1399 879.5 1310 c 128,-1,2
 992 1221 992 1221 1049.5 1061 c 128,-1,3
 1107 901 1107 901 1107 687 c 0,4,5
 1107 479 1107 479 1050.5 318.5 c 128,-1,6
 994 158 994 158 881 67.5 c 128,-1,7
 768 -23 768 -23 600 -23 c 0,8,9
 433 -23 433 -23 320.5 65.5 c 128,-1,10
 208 154 208 154 150.5 313 c 128,-1,11
 93 472 93 472 93 685 c 0,12,13
 93 894 93 894 149.5 1055 c 128,-1,14
 206 1216 206 1216 319.5 1307.5 c 128,-1,15
 433 1399 433 1399 600 1399 c 256,0,1
793 1606 m 1,16,-1
 944 1567 l 1,17,-1
 865 1313 l 1,18,-1
 816 1223 l 1,19,-1
 493 103 l 1,20,-1
 479 10 l 1,21,-1
 409 -220 l 1,22,-1
 259 -181 l 1,23,-1
 338 70 l 1,24,-1
 387 167 l 1,25,-1
 705 1267 l 1,26,-1
 727 1377 l 1,27,-1
 793 1606 l 1,16,-1
600 1253 m 0,28,29
 427 1253 427 1253 351.5 1106 c 128,-1,30
 276 959 276 959 276 685 c 0,31,32
 276 480 276 480 310 356.5 c 128,-1,33
 344 233 344 233 416 178.5 c 128,-1,34
 488 124 488 124 600 124 c 0,35,36
 774 124 774 124 849 268 c 128,-1,37
 924 412 924 412 924 687 c 0,38,39
 924 893 924 893 891 1017 c 128,-1,40
 858 1141 858 1141 787 1197 c 128,-1,41
 716 1253 716 1253 600 1253 c 0,28,29
EndSplineSet
Validated: 5
Position2: "'cpsp' Capital Spacing lookup 0 subtable" dx=0 dy=0 dh=0 dv=0
EndChar

StartChar: OE
Encoding: 338 338 82
Width: 1200
GlyphClass: 2
Flags: W
AnchorPoint: "Anchor-1" 600 0 basechar 0
AnchorPoint: "Anchor-0" 600 1377 basechar 0
LayerCount: 2
Fore
SplineSet
423 1399 m 0,0,1
 460 1399 460 1399 495 1394 c 128,-1,2
 530 1389 530 1389 566 1377 c 1,3,-1
 1217 1377 l 1,4,-1
 1196 1236 l 1,5,-1
 709 1236 l 1,6,7
 764 1170 764 1170 797.5 1055.5 c 128,-1,8
 831 941 831 941 838 769 c 1,9,-1
 1145 769 l 1,10,-1
 1145 628 l 1,11,-1
 838 628 l 1,12,13
 834 450 834 450 798 331 c 128,-1,14
 762 212 762 212 701 141 c 1,15,-1
 1235 141 l 1,16,-1
 1235 0 l 1,17,-1
 560 0 l 1,18,19
 527 -10 527 -10 493.5 -16.5 c 128,-1,20
 460 -23 460 -23 423 -23 c 0,21,22
 208 -23 208 -23 102.5 155.5 c 128,-1,23
 -3 334 -3 334 -3 685 c 0,24,25
 -3 1030 -3 1030 103.5 1214.5 c 128,-1,26
 210 1399 210 1399 423 1399 c 0,0,1
423 1257 m 0,27,28
 301 1257 301 1257 242 1124.5 c 128,-1,29
 183 992 183 992 183 685 c 256,30,31
 183 378 183 378 244.5 248.5 c 128,-1,32
 306 119 306 119 423 119 c 0,33,34
 549 119 549 119 608 250 c 128,-1,35
 667 381 667 381 667 687 c 0,36,37
 667 891 667 891 641.5 1016.5 c 128,-1,38
 616 1142 616 1142 562.5 1199.5 c 128,-1,39
 509 1257 509 1257 423 1257 c 0,27,28
EndSplineSet
Validated: 1
Position2: "'cpsp' Capital Spacing lookup 0 subtable" dx=0 dy=0 dh=0 dv=0
EndChar

StartChar: P
Encoding: 80 80 83
Width: 1200
GlyphClass: 2
Flags: W
AnchorPoint: "Anchor-1" 600 0 basechar 0
AnchorPoint: "Anchor-0" 600 1377 basechar 0
LayerCount: 2
Fore
SplineSet
928 952 m 0,0,1
 928 1059 928 1059 886 1121.5 c 128,-1,2
 844 1184 844 1184 771 1211.5 c 128,-1,3
 698 1239 698 1239 604 1239 c 2,4,-1
 405 1239 l 1,5,-1
 405 651 l 1,6,-1
 597 651 l 2,7,8
 694 651 694 651 768 677.5 c 128,-1,9
 842 704 842 704 885 769.5 c 128,-1,10
 928 835 928 835 928 952 c 0,0,1
1114 954 m 0,11,12
 1114 793 1114 793 1045.5 696 c 128,-1,13
 977 599 977 599 857 555 c 128,-1,14
 737 511 737 511 581 511 c 2,15,-1
 405 511 l 1,16,-1
 405 0 l 1,17,-1
 231 0 l 1,18,-1
 231 1377 l 1,19,-1
 583 1377 l 2,20,21
 829 1377 829 1377 971.5 1273.5 c 128,-1,22
 1114 1170 1114 1170 1114 954 c 0,11,12
EndSplineSet
Validated: 1
Position2: "'cpsp' Capital Spacing lookup 0 subtable" dx=0 dy=0 dh=0 dv=0
EndChar

StartChar: Thorn
Encoding: 222 222 84
Width: 1200
GlyphClass: 2
Flags: W
AnchorPoint: "Anchor-1" 600 0 basechar 0
AnchorPoint: "Anchor-0" 600 1377 basechar 0
LayerCount: 2
Fore
SplineSet
387 1377 m 1,0,-1
 387 1144 l 1,1,-1
 585 1144 l 2,2,3
 834 1144 834 1144 972.5 1038.5 c 128,-1,4
 1111 933 1111 933 1111 710 c 0,5,6
 1111 550 1111 550 1043.5 450 c 128,-1,7
 976 350 976 350 857.5 303.5 c 128,-1,8
 739 257 739 257 584 257 c 2,9,-1
 387 257 l 1,10,-1
 387 0 l 1,11,-1
 215 0 l 1,12,-1
 215 1377 l 1,13,-1
 387 1377 l 1,0,-1
606 1007 m 2,14,-1
 387 1007 l 1,15,-1
 387 396 l 1,16,-1
 607 396 l 2,17,18
 702 396 702 396 774.5 423 c 128,-1,19
 847 450 847 450 888 518 c 128,-1,20
 929 586 929 586 929 706 c 0,21,22
 929 867 929 867 839.5 937 c 128,-1,23
 750 1007 750 1007 606 1007 c 2,14,-1
EndSplineSet
Validated: 1
Position2: "'cpsp' Capital Spacing lookup 0 subtable" dx=0 dy=0 dh=0 dv=0
EndChar

StartChar: Q
Encoding: 81 81 85
Width: 1200
GlyphClass: 2
Flags: W
AnchorPoint: "Anchor-1" 600 0 basechar 0
AnchorPoint: "Anchor-0" 600 1377 basechar 0
LayerCount: 2
Fore
SplineSet
1107 687 m 0,0,1
 1107 468 1107 468 1043.5 304.5 c 128,-1,2
 980 141 980 141 822 53 c 1,3,4
 919 34 919 34 987.5 -4 c 128,-1,5
 1056 -42 1056 -42 1103.5 -107.5 c 128,-1,6
 1151 -173 1151 -173 1185 -274 c 1,7,-1
 1002 -346 l 1,8,9
 961 -240 961 -240 908.5 -167 c 128,-1,10
 856 -94 856 -94 777.5 -56.5 c 128,-1,11
 699 -19 699 -19 580 -19 c 0,12,13
 422 -19 422 -19 312.5 68.5 c 128,-1,14
 203 156 203 156 147 314 c 128,-1,15
 91 472 91 472 91 685 c 0,16,17
 91 894 91 894 148.5 1055 c 128,-1,18
 206 1216 206 1216 319 1307.5 c 128,-1,19
 432 1399 432 1399 599 1399 c 0,20,21
 767 1399 767 1399 880 1310 c 128,-1,22
 993 1221 993 1221 1050 1061 c 128,-1,23
 1107 901 1107 901 1107 687 c 0,0,1
927 687 m 0,24,25
 927 963 927 963 850.5 1108.5 c 128,-1,26
 774 1254 774 1254 599 1254 c 0,27,28
 425 1254 425 1254 348 1107.5 c 128,-1,29
 271 961 271 961 271 685 c 0,30,31
 271 410 271 410 350.5 266.5 c 128,-1,32
 430 123 430 123 599 123 c 0,33,34
 773 123 773 123 850 267.5 c 128,-1,35
 927 412 927 412 927 687 c 0,24,25
EndSplineSet
Validated: 1
Position2: "'cpsp' Capital Spacing lookup 0 subtable" dx=0 dy=0 dh=0 dv=0
EndChar

StartChar: R
Encoding: 82 82 86
Width: 1200
GlyphClass: 2
Flags: W
AnchorPoint: "Anchor-1" 597 0 basechar 0
AnchorPoint: "Anchor-0" 600 1377 basechar 0
LayerCount: 2
Fore
SplineSet
1075 991 m 0,0,1
 1075 888 1075 888 1030.5 811 c 128,-1,2
 986 734 986 734 910 684 c 128,-1,3
 834 634 834 634 739 611 c 1,4,-1
 1147 0 l 1,5,-1
 939 0 l 1,6,-1
 563 591 l 1,7,-1
 377 591 l 1,8,-1
 377 0 l 1,9,-1
 203 0 l 1,10,-1
 203 1377 l 1,11,-1
 557 1377 l 2,12,13
 812 1377 812 1377 943.5 1279.5 c 128,-1,14
 1075 1182 1075 1182 1075 991 c 0,0,1
889 991 m 0,15,16
 889 1124 889 1124 813 1181.5 c 128,-1,17
 737 1239 737 1239 577 1239 c 2,18,-1
 377 1239 l 1,19,-1
 377 727 l 1,20,-1
 577 727 l 2,21,22
 725 727 725 727 807 787.5 c 128,-1,23
 889 848 889 848 889 991 c 0,15,16
EndSplineSet
Validated: 1
Position2: "'cpsp' Capital Spacing lookup 0 subtable" dx=0 dy=0 dh=0 dv=0
EndChar

StartChar: S
Encoding: 83 83 90
Width: 1200
GlyphClass: 2
Flags: W
AnchorPoint: "Anchor-1" 593 0 basechar 0
AnchorPoint: "Anchor-0" 611 1377 basechar 0
LayerCount: 2
Fore
SplineSet
1073 381 m 0,0,1
 1073 263 1073 263 1014 171.5 c 128,-1,2
 955 80 955 80 843 28.5 c 128,-1,3
 731 -23 731 -23 570 -23 c 0,4,5
 419 -23 419 -23 296.5 23 c 128,-1,6
 174 69 174 69 87 153 c 1,7,-1
 190 269 l 1,8,9
 262 202 262 202 355 162.5 c 128,-1,10
 448 123 448 123 573 123 c 0,11,12
 657 123 657 123 730 150.5 c 128,-1,13
 803 178 803 178 848 234.5 c 128,-1,14
 893 291 893 291 893 378 c 0,15,16
 893 445 893 445 867 492 c 128,-1,17
 841 539 841 539 775 575.5 c 128,-1,18
 709 612 709 612 591 647 c 0,19,20
 455 687 455 687 355.5 737.5 c 128,-1,21
 256 788 256 788 201.5 862 c 128,-1,22
 147 936 147 936 147 1045 c 0,23,24
 147 1148 147 1148 204 1228 c 128,-1,25
 261 1308 261 1308 361.5 1353.5 c 128,-1,26
 462 1399 462 1399 593 1399 c 0,27,28
 736 1399 736 1399 841.5 1358.5 c 128,-1,29
 947 1318 947 1318 1033 1242 c 1,30,-1
 931 1129 l 1,31,32
 857 1195 857 1195 772 1224.5 c 128,-1,33
 687 1254 687 1254 599 1254 c 0,34,35
 524 1254 524 1254 461.5 1231.5 c 128,-1,36
 399 1209 399 1209 361.5 1164.5 c 128,-1,37
 324 1120 324 1120 324 1051 c 0,38,39
 324 992 324 992 356 949 c 128,-1,40
 388 906 388 906 464 870.5 c 128,-1,41
 540 835 540 835 671 796 c 0,42,43
 778 765 778 765 869.5 718.5 c 128,-1,44
 961 672 961 672 1017 592.5 c 128,-1,45
 1073 513 1073 513 1073 381 c 0,0,1
EndSplineSet
Validated: 1
Position2: "'cpsp' Capital Spacing lookup 0 subtable" dx=0 dy=0 dh=0 dv=0
EndChar

StartChar: T
Encoding: 84 84 96
Width: 1200
GlyphClass: 2
Flags: W
AnchorPoint: "Anchor-1" 598 0 basechar 0
AnchorPoint: "Anchor-0" 598 1377 basechar 0
LayerCount: 2
Fore
SplineSet
683 1228 m 1,0,-1
 683 0 l 1,1,-1
 510 0 l 1,2,-1
 510 1228 l 1,3,-1
 80 1228 l 1,4,-1
 80 1377 l 1,5,-1
 1119 1377 l 1,6,-1
 1101 1228 l 1,7,-1
 683 1228 l 1,0,-1
EndSplineSet
Validated: 1
Position2: "'cpsp' Capital Spacing lookup 0 subtable" dx=0 dy=0 dh=0 dv=0
EndChar

StartChar: Tbar
Encoding: 358 358 97
Width: 1200
GlyphClass: 2
Flags: W
AnchorPoint: "Anchor-1" 598 0 basechar 0
AnchorPoint: "Anchor-0" 598 1377 basechar 0
LayerCount: 2
Fore
SplineSet
249 700 m 1,0,-1
 249 835 l 1,1,-1
 947 835 l 1,2,-1
 947 700 l 1,3,-1
 249 700 l 1,0,-1
683 1228 m 1,4,-1
 683 0 l 1,5,-1
 510 0 l 1,6,-1
 510 1228 l 1,7,-1
 80 1228 l 1,8,-1
 80 1377 l 1,9,-1
 1119 1377 l 1,10,-1
 1101 1228 l 1,11,-1
 683 1228 l 1,4,-1
EndSplineSet
Validated: 5
Position2: "'cpsp' Capital Spacing lookup 0 subtable" dx=0 dy=0 dh=0 dv=0
EndChar

StartChar: U
Encoding: 85 85 101
Width: 1200
GlyphClass: 2
Flags: W
AnchorPoint: "Anchor-1" 600 0 basechar 0
AnchorPoint: "Anchor-0" 600 1377 basechar 0
LayerCount: 2
Fore
SplineSet
1055 1377 m 1,0,-1
 1055 446 l 2,1,2
 1055 307 1055 307 998.5 201 c 128,-1,3
 942 95 942 95 839.5 36 c 128,-1,4
 737 -23 737 -23 598 -23 c 0,5,6
 456 -23 456 -23 354.5 36.5 c 128,-1,7
 253 96 253 96 199 202 c 128,-1,8
 145 308 145 308 145 446 c 2,9,-1
 145 1377 l 1,10,-1
 317 1377 l 1,11,-1
 317 440 l 2,12,13
 317 283 317 283 390.5 205 c 128,-1,14
 464 127 464 127 598 127 c 0,15,16
 733 127 733 127 806.5 205 c 128,-1,17
 880 283 880 283 880 440 c 2,18,-1
 880 1377 l 1,19,-1
 1055 1377 l 1,0,-1
EndSplineSet
Validated: 1
Position2: "'cpsp' Capital Spacing lookup 0 subtable" dx=0 dy=0 dh=0 dv=0
EndChar

StartChar: V
Encoding: 86 86 112
Width: 1200
GlyphClass: 2
Flags: W
AnchorPoint: "Anchor-1" 600 0 basechar 0
AnchorPoint: "Anchor-0" 600 1377 basechar 0
LayerCount: 2
Fore
SplineSet
604 197 m 1,0,-1
 976 1377 l 1,1,-1
 1151 1377 l 1,2,-1
 690 0 l 1,3,-1
 510 0 l 1,4,-1
 49 1377 l 1,5,-1
 236 1377 l 1,6,-1
 604 197 l 1,0,-1
EndSplineSet
Validated: 1
Position2: "'cpsp' Capital Spacing lookup 0 subtable" dx=0 dy=0 dh=0 dv=0
EndChar

StartChar: W
Encoding: 87 87 113
Width: 1200
GlyphClass: 2
Flags: W
AnchorPoint: "Anchor-1" 600 0 basechar 0
AnchorPoint: "Anchor-0" 600 1377 basechar 0
LayerCount: 2
Fore
SplineSet
1191 1377 m 1,0,-1
 981 0 l 1,1,-1
 753 0 l 1,2,-1
 595 1039 l 1,3,-1
 436 0 l 1,4,-1
 203 0 l 1,5,-1
 9 1377 l 1,6,-1
 183 1377 l 1,7,-1
 330 191 l 1,8,-1
 495 1217 l 1,9,-1
 708 1217 l 1,10,-1
 865 191 l 1,11,-1
 1030 1377 l 1,12,-1
 1191 1377 l 1,0,-1
EndSplineSet
Validated: 1
Position2: "'cpsp' Capital Spacing lookup 0 subtable" dx=0 dy=0 dh=0 dv=0
EndChar

StartChar: X
Encoding: 88 88 118
Width: 1200
GlyphClass: 2
Flags: W
AnchorPoint: "Anchor-1" 600 0 basechar 0
AnchorPoint: "Anchor-0" 600 1377 basechar 0
LayerCount: 2
Fore
SplineSet
99 1377 m 1,0,-1
 298 1377 l 1,1,-1
 600 848 l 1,2,-1
 903 1377 l 1,3,-1
 1091 1377 l 1,4,-1
 700 743 l 1,5,-1
 1138 0 l 1,6,-1
 939 0 l 1,7,-1
 596 622 l 1,8,-1
 249 0 l 1,9,-1
 62 0 l 1,10,-1
 494 734 l 1,11,-1
 99 1377 l 1,0,-1
EndSplineSet
Validated: 1
Position2: "'cpsp' Capital Spacing lookup 0 subtable" dx=0 dy=0 dh=0 dv=0
EndChar

StartChar: Y
Encoding: 89 89 119
Width: 1200
GlyphClass: 2
Flags: W
AnchorPoint: "Anchor-1" 600 0 basechar 0
AnchorPoint: "Anchor-0" 607 1377 basechar 0
LayerCount: 2
Fore
SplineSet
688 531 m 1,0,-1
 688 0 l 1,1,-1
 512 0 l 1,2,-1
 512 529 l 1,3,-1
 47 1377 l 1,4,-1
 239 1377 l 1,5,-1
 604 687 l 1,6,-1
 973 1377 l 1,7,-1
 1153 1377 l 1,8,-1
 688 531 l 1,0,-1
EndSplineSet
Validated: 1
Position2: "'cpsp' Capital Spacing lookup 0 subtable" dx=0 dy=0 dh=0 dv=0
EndChar

StartChar: Z
Encoding: 90 90 124
Width: 1200
GlyphClass: 2
Flags: W
AnchorPoint: "Anchor-1" 600 0 basechar 0
AnchorPoint: "Anchor-0" 637 1377 basechar 0
LayerCount: 2
Fore
SplineSet
334 150 m 1,0,-1
 1055 150 l 1,1,-1
 1034 0 l 1,2,-1
 143 0 l 1,3,-1
 143 141 l 1,4,-1
 871 1229 l 1,5,-1
 215 1229 l 1,6,-1
 215 1377 l 1,7,-1
 1057 1377 l 1,8,-1
 1057 1235 l 1,9,-1
 334 150 l 1,0,-1
EndSplineSet
Validated: 1
Position2: "'cpsp' Capital Spacing lookup 0 subtable" dx=0 dy=0 dh=0 dv=0
EndChar

StartChar: a
Encoding: 97 97 133
Width: 1200
GlyphClass: 2
Flags: W
AnchorPoint: "Anchor-1" 600 0 basechar 0
AnchorPoint: "Anchor-0" 584 1053 basechar 0
LayerCount: 2
Fore
SplineSet
955 230 m 2,0,1
 955 167 955 167 976 138 c 128,-1,2
 997 109 997 109 1041 95 c 1,3,-1
 1000 -23 l 1,4,5
 932 -14 932 -14 881 20.5 c 128,-1,6
 830 55 830 55 807 125 c 1,7,8
 750 52 750 52 665 14.5 c 128,-1,9
 580 -23 580 -23 477 -23 c 0,10,11
 319 -23 319 -23 228 66 c 128,-1,12
 137 155 137 155 137 302 c 0,13,14
 137 465 137 465 264 552 c 128,-1,15
 391 639 391 639 631 639 c 2,16,-1
 786 639 l 1,17,-1
 786 727 l 2,18,19
 786 841 786 841 719.5 888.5 c 128,-1,20
 653 936 653 936 535 936 c 0,21,22
 483 936 483 936 413 923.5 c 128,-1,23
 343 911 343 911 261 882 c 1,24,-1
 217 1009 l 1,25,26
 314 1045 314 1045 399 1060 c 128,-1,27
 484 1075 484 1075 561 1075 c 0,28,29
 758 1075 758 1075 856.5 983.5 c 128,-1,30
 955 892 955 892 955 735 c 2,31,-1
 955 230 l 2,0,1
520 105 m 0,32,33
 598 105 598 105 669 144.5 c 128,-1,34
 740 184 740 184 786 254 c 1,35,-1
 786 525 l 1,36,-1
 634 525 l 2,37,38
 460 525 460 525 388.5 465 c 128,-1,39
 317 405 317 405 317 304 c 0,40,41
 317 206 317 206 367.5 155.5 c 128,-1,42
 418 105 418 105 520 105 c 0,32,33
EndSplineSet
Validated: 1
Substitution2: "Single Substitution lookup 12 subtable" ordfeminine
Substitution2: "'aalt' Access All Alternates lookup 0 subtable" ordfeminine
EndChar

StartChar: ae
Encoding: 230 230 143
Width: 1200
GlyphClass: 2
Flags: W
AnchorPoint: "Anchor-0" 617 1053 basechar 0
LayerCount: 2
Fore
SplineSet
869 1075 m 0,0,1
 1049 1075 1049 1075 1131 937 c 128,-1,2
 1213 799 1213 799 1213 559 c 0,3,4
 1213 504 1213 504 1209 465 c 1,5,-1
 671 465 l 1,6,7
 685 286 685 286 738 202 c 128,-1,8
 791 118 791 118 897 118 c 0,9,10
 956 118 956 118 1000.5 138.5 c 128,-1,11
 1045 159 1045 159 1095 197 c 1,12,-1
 1173 82 l 1,13,14
 1113 35 1113 35 1047 6 c 128,-1,15
 981 -23 981 -23 895 -23 c 0,16,17
 789 -23 789 -23 715.5 24 c 128,-1,18
 642 71 642 71 587 169 c 1,19,20
 524 64 524 64 458.5 20.5 c 128,-1,21
 393 -23 393 -23 293 -23 c 0,22,23
 154 -23 154 -23 71 66 c 128,-1,24
 -12 155 -12 155 -12 302 c 0,25,26
 -12 466 -12 466 97 553.5 c 128,-1,27
 206 641 206 641 417 641 c 2,28,-1
 507 641 l 1,29,-1
 507 727 l 2,30,31
 507 838 507 838 459.5 886.5 c 128,-1,32
 412 935 412 935 325 935 c 0,33,34
 272 935 272 935 227 922.5 c 128,-1,35
 182 910 182 910 117 881 c 1,36,-1
 71 1008 l 1,37,38
 138 1039 138 1039 207.5 1057 c 128,-1,39
 277 1075 277 1075 341 1075 c 0,40,41
 456 1075 456 1075 517 1027.5 c 128,-1,42
 578 980 578 980 607 900 c 1,43,44
 638 981 638 981 704.5 1028 c 128,-1,45
 771 1075 771 1075 869 1075 c 0,0,1
507 525 m 1,46,-1
 423 525 l 2,47,48
 279 525 279 525 224 466.5 c 128,-1,49
 169 408 169 408 169 311 c 0,50,51
 169 211 169 211 209.5 159 c 128,-1,52
 250 107 250 107 317 107 c 256,53,54
 384 107 384 107 433.5 154.5 c 128,-1,55
 483 202 483 202 532 294 c 1,56,57
 521 347 521 347 514 405 c 128,-1,58
 507 463 507 463 507 525 c 1,46,-1
864 936 m 0,59,60
 775 936 775 936 729.5 860.5 c 128,-1,61
 684 785 684 785 671 597 c 1,62,-1
 1049 597 l 1,63,64
 1046 763 1046 763 1006.5 849.5 c 128,-1,65
 967 936 967 936 864 936 c 0,59,60
EndSplineSet
Validated: 1048577
EndChar

StartChar: b
Encoding: 98 98 145
Width: 1200
GlyphClass: 2
Flags: W
AnchorPoint: "Anchor-1" 600 0 basechar 0
AnchorPoint: "Anchor-0" 600 1477 basechar 0
LayerCount: 2
Fore
SplineSet
369 916 m 1,0,1
 427 992 427 992 502.5 1033.5 c 128,-1,2
 578 1075 578 1075 669 1075 c 0,3,4
 810 1075 810 1075 897 1007 c 128,-1,5
 984 939 984 939 1024 815.5 c 128,-1,6
 1064 692 1064 692 1064 527 c 0,7,8
 1064 368 1064 368 1016 243.5 c 128,-1,9
 968 119 968 119 875.5 48 c 128,-1,10
 783 -23 783 -23 647 -23 c 0,11,12
 464 -23 464 -23 360 109 c 1,13,-1
 348 0 l 1,14,-1
 201 0 l 1,15,-1
 201 1477 l 1,16,-1
 369 1498 l 1,17,-1
 369 916 l 1,0,1
607 113 m 0,18,19
 739 113 739 113 810 215 c 128,-1,20
 881 317 881 317 881 528 c 0,21,22
 881 666 881 666 853 757.5 c 128,-1,23
 825 849 825 849 769.5 894.5 c 128,-1,24
 714 940 714 940 633 940 c 0,25,26
 545 940 545 940 478.5 887.5 c 128,-1,27
 412 835 412 835 369 771 c 1,28,-1
 369 249 l 1,29,30
 410 187 410 187 472.5 150 c 128,-1,31
 535 113 535 113 607 113 c 0,18,19
EndSplineSet
Validated: 1
EndChar

StartChar: c
Encoding: 99 99 146
Width: 1200
GlyphClass: 2
Flags: W
AnchorPoint: "Anchor-1" 678 0 basechar 0
AnchorPoint: "Anchor-0" 688 1036 basechar 0
LayerCount: 2
Fore
SplineSet
677 122 m 0,0,1
 756 122 756 122 824.5 148 c 128,-1,2
 893 174 893 174 951 214 c 1,3,-1
 1033 104 l 1,4,5
 964 45 964 45 867 11 c 128,-1,6
 770 -23 770 -23 677 -23 c 0,7,8
 520 -23 520 -23 409.5 44.5 c 128,-1,9
 299 112 299 112 241 234.5 c 128,-1,10
 183 357 183 357 183 522 c 0,11,12
 183 680 183 680 241.5 805.5 c 128,-1,13
 300 931 300 931 410.5 1003 c 128,-1,14
 521 1075 521 1075 679 1075 c 0,15,16
 780 1075 780 1075 868.5 1044.5 c 128,-1,17
 957 1014 957 1014 1031 953 c 1,18,-1
 949 841 l 1,19,20
 882 888 882 888 814.5 911.5 c 128,-1,21
 747 935 747 935 677 935 c 0,22,23
 541 935 541 935 453 833 c 128,-1,24
 365 731 365 731 365 522 c 0,25,26
 365 382 365 382 405.5 293.5 c 128,-1,27
 446 205 446 205 516.5 163.5 c 128,-1,28
 587 122 587 122 677 122 c 0,0,1
EndSplineSet
Validated: 1
EndChar

StartChar: d
Encoding: 100 100 152
Width: 1200
GlyphClass: 2
Flags: W
AnchorPoint: "Anchor-1" 600 0 basechar 0
AnchorPoint: "Anchor-0" 600 1477 basechar 0
LayerCount: 2
Fore
SplineSet
831 1498 m 1,0,-1
 999 1477 l 1,1,-1
 999 0 l 1,2,-1
 852 0 l 1,3,-1
 836 139 l 1,4,5
 777 55 777 55 700.5 16 c 128,-1,6
 624 -23 624 -23 537 -23 c 0,7,8
 400 -23 400 -23 311 46 c 128,-1,9
 222 115 222 115 179 238.5 c 128,-1,10
 136 362 136 362 136 525 c 0,11,12
 136 683 136 683 185 807.5 c 128,-1,13
 234 932 234 932 326.5 1003.5 c 128,-1,14
 419 1075 419 1075 549 1075 c 0,15,16
 640 1075 640 1075 709 1043.5 c 128,-1,17
 778 1012 778 1012 831 951 c 1,18,-1
 831 1498 l 1,0,-1
593 940 m 0,19,20
 461 940 461 940 390 837 c 128,-1,21
 319 734 319 734 319 525 c 0,22,23
 319 389 319 389 348 297 c 128,-1,24
 377 205 377 205 433.5 159 c 128,-1,25
 490 113 490 113 572 113 c 0,26,27
 662 113 662 113 725.5 164 c 128,-1,28
 789 215 789 215 831 279 c 1,29,-1
 831 805 l 1,30,31
 788 869 788 869 727 904.5 c 128,-1,32
 666 940 666 940 593 940 c 0,19,20
EndSplineSet
Validated: 1
EndChar

StartChar: eth
Encoding: 240 240 153
Width: 1200
Flags: W
LayerCount: 2
Fore
SplineSet
339 1124 m 1,0,-1
 501 1293 l 1,1,2
 451 1317 451 1317 393.5 1334.5 c 128,-1,3
 336 1352 336 1352 267 1366 c 1,4,-1
 304 1498 l 1,5,6
 392 1479 392 1479 467 1455.5 c 128,-1,7
 542 1432 542 1432 603 1399 c 1,8,-1
 742 1547 l 1,9,-1
 843 1459 l 1,10,-1
 719 1331 l 1,11,12
 897 1208 897 1208 981 1011 c 128,-1,13
 1065 814 1065 814 1065 527 c 0,14,15
 1065 359 1065 359 1006 235 c 128,-1,16
 947 111 947 111 840.5 44 c 128,-1,17
 734 -23 734 -23 590 -23 c 0,18,19
 464 -23 464 -23 360.5 34.5 c 128,-1,20
 257 92 257 92 195.5 202.5 c 128,-1,21
 134 313 134 313 134 470 c 0,22,23
 134 618 134 618 192.5 728.5 c 128,-1,24
 251 839 251 839 348.5 900.5 c 128,-1,25
 446 962 446 962 559 962 c 0,26,27
 661 962 661 962 739.5 926 c 128,-1,28
 818 890 818 890 875 824 c 1,29,30
 847 951 847 951 779 1053 c 128,-1,31
 711 1155 711 1155 615 1225 c 1,32,-1
 459 1063 l 1,33,-1
 339 1124 l 1,0,-1
895 535 m 0,34,35
 895 570 895 570 893.5 602 c 128,-1,36
 892 634 892 634 889 665 c 1,37,38
 838 744 838 744 758 785.5 c 128,-1,39
 678 827 678 827 581 827 c 0,40,41
 509 827 509 827 446 790 c 128,-1,42
 383 753 383 753 344 676.5 c 128,-1,43
 305 600 305 600 305 479 c 0,44,45
 305 300 305 300 384.5 206.5 c 128,-1,46
 464 113 464 113 587 113 c 0,47,48
 728 113 728 113 811.5 220 c 128,-1,49
 895 327 895 327 895 535 c 0,34,35
EndSplineSet
Validated: 1
EndChar

StartChar: dcroat
Encoding: 273 273 155
Width: 1200
GlyphClass: 2
Flags: W
AnchorPoint: "Anchor-1" 605 0 basechar 0
AnchorPoint: "Anchor-0" 605 1477 basechar 0
LayerCount: 2
Fore
SplineSet
1004 1329 m 1,0,-1
 1161 1329 l 1,1,-1
 1161 1195 l 1,2,-1
 836 1195 l 1,3,-1
 493 1195 l 1,4,-1
 493 1329 l 1,5,-1
 1004 1329 l 1,0,-1
836 1498 m 1,6,-1
 1004 1477 l 1,7,-1
 1004 0 l 1,8,-1
 856 0 l 1,9,-1
 840 139 l 1,10,11
 782 55 782 55 705.5 16 c 128,-1,12
 629 -23 629 -23 542 -23 c 0,13,14
 404 -23 404 -23 315.5 46 c 128,-1,15
 227 115 227 115 184 238.5 c 128,-1,16
 141 362 141 362 141 525 c 0,17,18
 141 683 141 683 190 807.5 c 128,-1,19
 239 932 239 932 331.5 1003.5 c 128,-1,20
 424 1075 424 1075 554 1075 c 0,21,22
 644 1075 644 1075 713.5 1043.5 c 128,-1,23
 783 1012 783 1012 836 951 c 1,24,-1
 836 1498 l 1,6,-1
597 940 m 0,25,26
 466 940 466 940 395 837 c 128,-1,27
 324 734 324 734 324 525 c 0,28,29
 324 389 324 389 353 297 c 128,-1,30
 382 205 382 205 438 159 c 128,-1,31
 494 113 494 113 577 113 c 0,32,33
 666 113 666 113 729.5 164 c 128,-1,34
 793 215 793 215 836 279 c 1,35,-1
 836 805 l 1,36,37
 793 869 793 869 731.5 904.5 c 128,-1,38
 670 940 670 940 597 940 c 0,25,26
EndSplineSet
Validated: 5
EndChar

StartChar: e
Encoding: 101 101 156
Width: 1200
GlyphClass: 2
Flags: W
AnchorPoint: "Anchor-1" 600 0 basechar 0
AnchorPoint: "Anchor-0" 621 1053 basechar 0
LayerCount: 2
Fore
SplineSet
333 467 m 1,0,1
 338 345 338 345 380 267.5 c 128,-1,2
 422 190 422 190 491 153.5 c 128,-1,3
 560 117 560 117 641 117 c 256,4,5
 722 117 722 117 787.5 141 c 128,-1,6
 853 165 853 165 922 212 c 1,7,-1
 1001 101 l 1,8,9
 927 43 927 43 832.5 10 c 128,-1,10
 738 -23 738 -23 639 -23 c 0,11,12
 486 -23 486 -23 378 46 c 128,-1,13
 270 115 270 115 213.5 238.5 c 128,-1,14
 157 362 157 362 157 525 c 0,15,16
 157 685 157 685 214 809 c 128,-1,17
 271 933 271 933 374 1004 c 128,-1,18
 477 1075 477 1075 617 1075 c 0,19,20
 750 1075 750 1075 846 1012.5 c 128,-1,21
 942 950 942 950 993.5 834.5 c 128,-1,22
 1045 719 1045 719 1045 559 c 0,23,24
 1045 532 1045 532 1044 508.5 c 128,-1,25
 1043 485 1043 485 1041 467 c 1,26,-1
 333 467 l 1,0,1
619 937 m 0,27,28
 502 937 502 937 423.5 854 c 128,-1,29
 345 771 345 771 334 597 c 1,30,-1
 883 597 l 1,31,32
 880 766 880 766 809 851.5 c 128,-1,33
 738 937 738 937 619 937 c 0,27,28
EndSplineSet
Validated: 1
EndChar

StartChar: f
Encoding: 102 102 166
Width: 1200
GlyphClass: 2
Flags: W
AnchorPoint: "Anchor-1" 523 0 basechar 0
AnchorPoint: "Anchor-0" 740 1477 basechar 0
LayerCount: 2
Fore
SplineSet
823 1498 m 0,0,1
 908 1498 908 1498 977 1483 c 128,-1,2
 1046 1468 1046 1468 1108 1441 c 1,3,-1
 1054 1316 l 1,4,5
 1003 1338 1003 1338 946 1349 c 128,-1,6
 889 1360 889 1360 828 1360 c 0,7,8
 718 1360 718 1360 662.5 1317 c 128,-1,9
 607 1274 607 1274 607 1185 c 2,10,-1
 607 971 l 1,11,-1
 964 971 l 1,12,-1
 946 839 l 1,13,-1
 607 839 l 1,14,-1
 607 0 l 1,15,-1
 439 0 l 1,16,-1
 439 839 l 1,17,-1
 188 839 l 1,18,-1
 188 971 l 1,19,-1
 439 971 l 1,20,-1
 439 1181 l 2,21,22
 439 1279 439 1279 489.5 1350 c 128,-1,23
 540 1421 540 1421 627 1459.5 c 128,-1,24
 714 1498 714 1498 823 1498 c 0,0,1
EndSplineSet
Validated: 1
EndChar

StartChar: g
Encoding: 103 103 167
Width: 1200
GlyphClass: 2
Flags: W
AnchorPoint: "Anchor-0" 587 1053 basechar 0
LayerCount: 2
Fore
SplineSet
1057 1165 m 1,0,-1
 1109 1007 l 1,1,2
 1042 986 1042 986 966 981 c 128,-1,3
 890 976 890 976 801 976 c 1,4,5
 892 934 892 934 938 867.5 c 128,-1,6
 984 801 984 801 984 711 c 0,7,8
 984 607 984 607 937 526 c 128,-1,9
 890 445 890 445 801.5 399 c 128,-1,10
 713 353 713 353 588 353 c 0,11,12
 535 353 535 353 499.5 358 c 128,-1,13
 464 363 464 363 431 373 c 1,14,15
 407 357 407 357 391.5 329 c 128,-1,16
 376 301 376 301 376 271 c 0,17,18
 376 233 376 233 406 208 c 128,-1,19
 436 183 436 183 517 183 c 2,20,-1
 707 183 l 2,21,22
 813 183 813 183 897.5 145 c 128,-1,23
 982 107 982 107 1030.5 43 c 128,-1,24
 1079 -21 1079 -21 1079 -103 c 0,25,26
 1079 -258 1079 -258 947.5 -341 c 128,-1,27
 816 -424 816 -424 576 -424 c 0,28,29
 408 -424 408 -424 311 -389.5 c 128,-1,30
 214 -355 214 -355 172.5 -284.5 c 128,-1,31
 131 -214 131 -214 131 -107 c 1,32,-1
 283 -107 l 1,33,34
 283 -168 283 -168 307 -208 c 128,-1,35
 331 -248 331 -248 394 -267.5 c 128,-1,36
 457 -287 457 -287 575 -287 c 0,37,38
 691 -287 691 -287 764.5 -267.5 c 128,-1,39
 838 -248 838 -248 873.5 -209.5 c 128,-1,40
 909 -171 909 -171 909 -114 c 0,41,42
 909 -39 909 -39 841 -1 c 128,-1,43
 773 37 773 37 671 37 c 2,44,-1
 483 37 l 2,45,46
 347 37 347 37 282.5 97 c 128,-1,47
 218 157 218 157 218 235 c 0,48,49
 218 286 218 286 247.5 334 c 128,-1,50
 277 382 277 382 334 419 c 1,51,52
 243 467 243 467 200 538 c 128,-1,53
 157 609 157 609 157 710 c 0,54,55
 157 817 157 817 210 899.5 c 128,-1,56
 263 982 263 982 358 1029 c 128,-1,57
 453 1076 453 1076 577 1076 c 0,58,59
 710 1077 710 1077 793 1087.5 c 128,-1,60
 876 1098 876 1098 935.5 1118 c 128,-1,61
 995 1138 995 1138 1057 1165 c 1,0,-1
577 953 m 0,62,63
 450 953 450 953 389.5 884.5 c 128,-1,64
 329 816 329 816 329 710 c 0,65,66
 329 603 329 603 391 534 c 128,-1,67
 453 465 453 465 581 465 c 0,68,69
 693 465 693 465 751.5 530 c 128,-1,70
 810 595 810 595 810 711 c 0,71,72
 810 830 810 830 751.5 891.5 c 128,-1,73
 693 953 693 953 577 953 c 0,62,63
EndSplineSet
Validated: 1048577
EndChar

StartChar: h
Encoding: 104 104 172
Width: 1200
GlyphClass: 2
Flags: W
AnchorPoint: "Anchor-1" 600 0 basechar 0
AnchorPoint: "Anchor-0" 600 1477 basechar 0
LayerCount: 2
Fore
SplineSet
369 1493 m 1,0,-1
 369 909 l 1,1,2
 431 992 431 992 521.5 1033.5 c 128,-1,3
 612 1075 612 1075 705 1075 c 0,4,5
 859 1075 859 1075 930 993 c 128,-1,6
 1001 911 1001 911 1001 765 c 2,7,-1
 1001 0 l 1,8,-1
 833 0 l 1,9,-1
 833 761 l 2,10,11
 833 856 833 856 789 899.5 c 128,-1,12
 745 943 745 943 651 943 c 0,13,14
 591 943 591 943 537 916 c 128,-1,15
 483 889 483 889 440 849 c 128,-1,16
 397 809 397 809 369 767 c 1,17,-1
 369 0 l 1,18,-1
 201 0 l 1,19,-1
 201 1475 l 1,20,-1
 369 1493 l 1,0,-1
EndSplineSet
Validated: 1
EndChar

StartChar: hbar
Encoding: 295 295 173
Width: 1200
GlyphClass: 2
Flags: W
AnchorPoint: "Anchor-1" 600 0 basechar 0
AnchorPoint: "Anchor-0" 600 1477 basechar 0
LayerCount: 2
Fore
SplineSet
707 1329 m 1,0,-1
 707 1195 l 1,1,-1
 369 1195 l 1,2,-1
 39 1195 l 1,3,-1
 39 1329 l 1,4,-1
 201 1329 l 1,5,-1
 707 1329 l 1,0,-1
369 1493 m 1,6,-1
 369 909 l 1,7,8
 431 992 431 992 521.5 1033.5 c 128,-1,9
 612 1075 612 1075 705 1075 c 0,10,11
 859 1075 859 1075 930 993 c 128,-1,12
 1001 911 1001 911 1001 765 c 2,13,-1
 1001 0 l 1,14,-1
 833 0 l 1,15,-1
 833 761 l 2,16,17
 833 856 833 856 789 899.5 c 128,-1,18
 745 943 745 943 651 943 c 0,19,20
 591 943 591 943 537 916 c 128,-1,21
 483 889 483 889 440 849 c 128,-1,22
 397 809 397 809 369 767 c 1,23,-1
 369 0 l 1,24,-1
 201 0 l 1,25,-1
 201 1475 l 1,26,-1
 369 1493 l 1,6,-1
EndSplineSet
Validated: 5
EndChar

StartChar: i
Encoding: 105 105 175
Width: 1200
GlyphClass: 2
Flags: W
AnchorPoint: "Anchor-1" 600 0 basechar 0
LayerCount: 2
Fore
SplineSet
734 1053 m 1,0,-1
 734 133 l 1,1,-1
 1031 133 l 1,2,-1
 1031 0 l 1,3,-1
 241 0 l 1,4,-1
 241 133 l 1,5,-1
 566 133 l 1,6,-1
 566 920 l 1,7,-1
 251 920 l 1,8,-1
 251 1053 l 1,9,-1
 734 1053 l 1,0,-1
600 1546 m 0,10,11
 656 1546 656 1546 689.5 1512 c 128,-1,12
 723 1478 723 1478 723 1429 c 0,13,14
 723 1378 723 1378 689.5 1343.5 c 128,-1,15
 656 1309 656 1309 600 1309 c 0,16,17
 547 1309 547 1309 513 1343.5 c 128,-1,18
 479 1378 479 1378 479 1429 c 0,19,20
 479 1478 479 1478 513 1512 c 128,-1,21
 547 1546 547 1546 600 1546 c 0,10,11
EndSplineSet
Validated: 1048577
Substitution2: "'locl' Localized Forms in Latin lookup 27 subtable" i.loclTRK
Substitution2: "'locl' Localized Forms in Latin lookup 23 subtable" i.loclTRK
Substitution2: "'locl' Localized Forms in Latin lookup 21 subtable" i.loclTRK
Substitution2: "'locl' Localized Forms in Latin lookup 18 subtable" i.loclTRK
Substitution2: "'locl' Localized Forms in Latin lookup 17 subtable" i.loclTRK
Substitution2: "'aalt' Access All Alternates lookup 0 subtable" i.loclTRK
EndChar

StartChar: dotlessi
Encoding: 305 305 176
Width: 1200
GlyphClass: 2
Flags: W
AnchorPoint: "Anchor-0" 603 1053 basechar 0
LayerCount: 2
Fore
SplineSet
734 1053 m 1,0,-1
 734 133 l 1,1,-1
 1031 133 l 1,2,-1
 1031 0 l 1,3,-1
 241 0 l 1,4,-1
 241 133 l 1,5,-1
 566 133 l 1,6,-1
 566 920 l 1,7,-1
 251 920 l 1,8,-1
 251 1053 l 1,9,-1
 734 1053 l 1,0,-1
EndSplineSet
Validated: 1048577
EndChar

StartChar: ij
Encoding: 307 307 183
Width: 1200
Flags: W
LayerCount: 2
Fore
SplineSet
1001 1053 m 1,0,-1
 1001 109 l 2,1,2
 1001 -36 1001 -36 932 -138 c 128,-1,3
 863 -240 863 -240 747 -309 c 128,-1,4
 631 -378 631 -378 490 -424 c 1,5,-1
 440 -293 l 1,6,7
 512 -266 512 -266 582 -232 c 128,-1,8
 652 -198 652 -198 710 -152.5 c 128,-1,9
 768 -107 768 -107 802.5 -45.5 c 128,-1,10
 837 16 837 16 837 99 c 2,11,-1
 837 924 l 1,12,-1
 446 924 l 1,13,-1
 446 133 l 1,14,-1
 637 133 l 1,15,-1
 637 0 l 1,16,-1
 97 0 l 1,17,-1
 97 133 l 1,18,-1
 284 133 l 1,19,-1
 284 924 l 1,20,-1
 107 924 l 1,21,-1
 107 1053 l 1,22,-1
 1001 1053 l 1,0,-1
369 1546 m 0,23,24
 422 1546 422 1546 456.5 1512 c 128,-1,25
 491 1478 491 1478 491 1429 c 0,26,27
 491 1378 491 1378 456.5 1343.5 c 128,-1,28
 422 1309 422 1309 369 1309 c 0,29,30
 314 1309 314 1309 280.5 1343.5 c 128,-1,31
 247 1378 247 1378 247 1429 c 0,32,33
 247 1478 247 1478 280.5 1512 c 128,-1,34
 314 1546 314 1546 369 1546 c 0,23,24
897 1546 m 0,35,36
 951 1546 951 1546 985 1512 c 128,-1,37
 1019 1478 1019 1478 1019 1429 c 0,38,39
 1019 1378 1019 1378 985 1343.5 c 128,-1,40
 951 1309 951 1309 897 1309 c 0,41,42
 842 1309 842 1309 808.5 1343.5 c 128,-1,43
 775 1378 775 1378 775 1429 c 0,44,45
 775 1478 775 1478 808.5 1512 c 128,-1,46
 842 1546 842 1546 897 1546 c 0,35,36
EndSplineSet
Validated: 1
EndChar

StartChar: j
Encoding: 106 106 187
Width: 1200
GlyphClass: 2
Flags: W
AnchorPoint: "Anchor-0" 735 1053 basechar 0
LayerCount: 2
Fore
SplineSet
890 1053 m 1,0,-1
 890 169 l 2,1,2
 890 -7 890 -7 811 -125.5 c 128,-1,3
 732 -244 732 -244 582 -316 c 128,-1,4
 432 -388 432 -388 219 -424 c 1,5,-1
 191 -294 l 1,6,7
 347 -268 347 -268 467 -216 c 128,-1,8
 587 -164 587 -164 654.5 -73.5 c 128,-1,9
 722 17 722 17 722 158 c 2,10,-1
 722 920 l 1,11,-1
 284 920 l 1,12,-1
 284 1053 l 1,13,-1
 890 1053 l 1,0,-1
733 1546 m 0,14,15
 789 1546 789 1546 823 1512 c 128,-1,16
 857 1478 857 1478 857 1429 c 0,17,18
 857 1378 857 1378 823 1343.5 c 128,-1,19
 789 1309 789 1309 733 1309 c 0,20,21
 679 1309 679 1309 646 1343.5 c 128,-1,22
 613 1378 613 1378 613 1429 c 0,23,24
 613 1478 613 1478 646 1512 c 128,-1,25
 679 1546 679 1546 733 1546 c 0,14,15
EndSplineSet
Validated: 1048577
EndChar

StartChar: uni0237
Encoding: 567 567 188
Width: 1200
GlyphClass: 2
Flags: W
AnchorPoint: "Anchor-0" 735 1053 basechar 0
LayerCount: 2
Fore
SplineSet
890 1053 m 1,0,-1
 890 169 l 2,1,2
 890 -7 890 -7 811 -125.5 c 128,-1,3
 732 -244 732 -244 582 -316 c 128,-1,4
 432 -388 432 -388 219 -424 c 1,5,-1
 191 -294 l 1,6,7
 347 -268 347 -268 467 -216 c 128,-1,8
 587 -164 587 -164 654.5 -73.5 c 128,-1,9
 722 17 722 17 722 158 c 2,10,-1
 722 920 l 1,11,-1
 284 920 l 1,12,-1
 284 1053 l 1,13,-1
 890 1053 l 1,0,-1
EndSplineSet
Validated: 1048577
EndChar

StartChar: k
Encoding: 107 107 190
Width: 1200
GlyphClass: 2
Flags: W
AnchorPoint: "Anchor-1" 611 0 basechar 0
AnchorPoint: "Anchor-0" 600 1477 basechar 0
LayerCount: 2
Fore
SplineSet
1083 1053 m 1,0,-1
 609 579 l 1,1,-1
 1138 0 l 1,2,-1
 917 0 l 1,3,-1
 399 575 l 1,4,-1
 865 1053 l 1,5,-1
 1083 1053 l 1,0,-1
380 1498 m 1,6,-1
 380 0 l 1,7,-1
 212 0 l 1,8,-1
 212 1477 l 1,9,-1
 380 1498 l 1,6,-1
EndSplineSet
Validated: 1
EndChar

StartChar: kgreenlandic
Encoding: 312 312 192
Width: 1200
GlyphClass: 2
Flags: W
AnchorPoint: "Anchor-1" 600 0 basechar 0
AnchorPoint: "Anchor-0" 600 1053 basechar 0
LayerCount: 2
Fore
SplineSet
1072 1053 m 1,0,-1
 594 576 l 1,1,-1
 1127 0 l 1,2,-1
 905 0 l 1,3,-1
 387 565 l 1,4,-1
 854 1053 l 1,5,-1
 1072 1053 l 1,0,-1
369 1053 m 1,6,-1
 369 0 l 1,7,-1
 201 0 l 1,8,-1
 201 1053 l 1,9,-1
 369 1053 l 1,6,-1
EndSplineSet
Validated: 1
EndChar

StartChar: l
Encoding: 108 108 193
Width: 1200
GlyphClass: 2
Flags: W
AnchorPoint: "Anchor-1" 721 0 basechar 0
AnchorPoint: "Anchor-0" 530 1477 basechar 0
LayerCount: 2
Fore
SplineSet
611 1477 m 1,0,-1
 611 260 l 2,1,2
 611 182 611 182 659.5 149.5 c 128,-1,3
 708 117 708 117 785 117 c 0,4,5
 833 117 833 117 876 127 c 128,-1,6
 919 137 919 137 962 154 c 1,7,-1
 1007 31 l 1,8,9
 964 10 964 10 900.5 -6.5 c 128,-1,10
 837 -23 837 -23 757 -23 c 0,11,12
 617 -23 617 -23 530 54.5 c 128,-1,13
 443 132 443 132 443 269 c 2,14,-1
 443 1344 l 1,15,-1
 120 1344 l 1,16,-1
 120 1477 l 1,17,-1
 611 1477 l 1,0,-1
EndSplineSet
Validated: 1
EndChar

StartChar: lslash
Encoding: 322 322 198
Width: 1200
GlyphClass: 2
Flags: W
AnchorPoint: "Anchor-1" 721 0 basechar 0
AnchorPoint: "Anchor-0" 530 1477 basechar 0
LayerCount: 2
Fore
SplineSet
443 762 m 1,0,-1
 791 978 l 1,1,-1
 862 869 l 1,2,-1
 611 715 l 1,3,-1
 308 529 l 1,4,-1
 237 638 l 1,5,-1
 443 762 l 1,0,-1
611 1477 m 1,6,-1
 611 260 l 2,7,8
 611 182 611 182 659.5 149.5 c 128,-1,9
 708 117 708 117 785 117 c 0,10,11
 833 117 833 117 876 127 c 128,-1,12
 919 137 919 137 962 154 c 1,13,-1
 1007 31 l 1,14,15
 964 10 964 10 900.5 -6.5 c 128,-1,16
 837 -23 837 -23 757 -23 c 0,17,18
 617 -23 617 -23 530 54.5 c 128,-1,19
 443 132 443 132 443 269 c 2,20,-1
 443 1344 l 1,21,-1
 120 1344 l 1,22,-1
 120 1477 l 1,23,-1
 611 1477 l 1,6,-1
EndSplineSet
Validated: 5
EndChar

StartChar: m
Encoding: 109 109 199
Width: 1200
GlyphClass: 2
Flags: W
AnchorPoint: "Anchor-1" 600 0 basechar 0
AnchorPoint: "Anchor-0" 600 1053 basechar 0
LayerCount: 2
Fore
SplineSet
895 1075 m 0,0,1
 946 1075 946 1075 992.5 1053 c 128,-1,2
 1039 1031 1039 1031 1069 968 c 128,-1,3
 1099 905 1099 905 1099 784 c 2,4,-1
 1099 0 l 1,5,-1
 943 0 l 1,6,-1
 943 757 l 2,7,8
 943 856 943 856 931 900 c 128,-1,9
 919 944 919 944 862 944 c 0,10,11
 815 944 815 944 768.5 914.5 c 128,-1,12
 722 885 722 885 678 818 c 1,13,-1
 678 0 l 1,14,-1
 521 0 l 1,15,-1
 521 757 l 2,16,17
 521 856 521 856 509 900 c 128,-1,18
 497 944 497 944 440 944 c 0,19,20
 391 944 391 944 345.5 914.5 c 128,-1,21
 300 885 300 885 256 818 c 1,22,-1
 256 0 l 1,23,-1
 101 0 l 1,24,-1
 101 1053 l 1,25,-1
 233 1053 l 1,26,-1
 243 931 l 1,27,28
 286 992 286 992 339.5 1033.5 c 128,-1,29
 393 1075 393 1075 472 1075 c 0,30,31
 532 1075 532 1075 585 1046.5 c 128,-1,32
 638 1018 638 1018 663 936 c 1,33,34
 706 998 706 998 760 1036.5 c 128,-1,35
 814 1075 814 1075 895 1075 c 0,0,1
EndSplineSet
Validated: 1
EndChar

StartChar: n
Encoding: 110 110 200
Width: 1200
GlyphClass: 2
Flags: W
AnchorPoint: "Anchor-1" 602 0 basechar 0
AnchorPoint: "Anchor-0" 600 1053 basechar 0
LayerCount: 2
Fore
SplineSet
201 0 m 1,0,-1
 201 1053 l 1,1,-1
 344 1053 l 1,2,-1
 357 907 l 1,3,4
 421 988 421 988 517.5 1031.5 c 128,-1,5
 614 1075 614 1075 705 1075 c 0,6,7
 860 1075 860 1075 930.5 993 c 128,-1,8
 1001 911 1001 911 1001 765 c 2,9,-1
 1001 0 l 1,10,-1
 833 0 l 1,11,-1
 833 641 l 2,12,13
 833 749 833 749 821 815.5 c 128,-1,14
 809 882 809 882 771 912.5 c 128,-1,15
 733 943 733 943 653 943 c 0,16,17
 591 943 591 943 536.5 916 c 128,-1,18
 482 889 482 889 439.5 848.5 c 128,-1,19
 397 808 397 808 369 767 c 1,20,-1
 369 0 l 1,21,-1
 201 0 l 1,0,-1
EndSplineSet
Validated: 1
EndChar

StartChar: napostrophe
Encoding: 329 329 202
Width: 1200
GlyphClass: 2
Flags: W
AnchorPoint: "Anchor-1" 619 0 basechar 0
AnchorPoint: "Anchor-0" 617 1053 basechar 0
LayerCount: 2
Fore
SplineSet
127 1503 m 0,0,1
 173 1503 173 1503 204.5 1472.5 c 128,-1,2
 236 1442 236 1442 236 1396 c 0,3,4
 236 1372 236 1372 226 1341 c 128,-1,5
 216 1310 216 1310 183 1241 c 2,6,-1
 101 1068 l 1,7,-1
 1 1068 l 1,8,-1
 61 1305 l 1,9,10
 41 1323 41 1323 28 1346 c 128,-1,11
 15 1369 15 1369 15 1396 c 0,12,13
 15 1443 15 1443 48.5 1473 c 128,-1,14
 82 1503 82 1503 127 1503 c 0,0,1
218 0 m 1,15,-1
 218 1053 l 1,16,-1
 362 1053 l 1,17,-1
 374 907 l 1,18,19
 439 988 439 988 535 1031.5 c 128,-1,20
 631 1075 631 1075 722 1075 c 0,21,22
 877 1075 877 1075 948 993 c 128,-1,23
 1019 911 1019 911 1019 765 c 2,24,-1
 1019 0 l 1,25,-1
 851 0 l 1,26,-1
 851 641 l 2,27,28
 851 749 851 749 839 815.5 c 128,-1,29
 827 882 827 882 788.5 912.5 c 128,-1,30
 750 943 750 943 670 943 c 0,31,32
 609 943 609 943 554 916 c 128,-1,33
 499 889 499 889 456.5 848.5 c 128,-1,34
 414 808 414 808 386 767 c 1,35,-1
 386 0 l 1,36,-1
 218 0 l 1,15,-1
EndSplineSet
Validated: 1
Ligature2: "'locl' Localized Forms in Latin lookup 28 subtable" quoteright n
Ligature2: "'locl' Localized Forms in Latin lookup 28 subtable" quotesingle n
EndChar

StartChar: eng
Encoding: 331 331 205
Width: 1200
Flags: W
LayerCount: 2
Fore
SplineSet
1001 57 m 2,0,1
 1001 -92 1001 -92 967 -180 c 128,-1,2
 933 -268 933 -268 864.5 -321.5 c 128,-1,3
 796 -375 796 -375 692 -421 c 1,4,-1
 629 -299 l 1,5,6
 698 -267 698 -267 743.5 -231.5 c 128,-1,7
 789 -196 789 -196 811 -132.5 c 128,-1,8
 833 -69 833 -69 833 46 c 2,9,-1
 833 641 l 2,10,11
 833 749 833 749 821.5 815.5 c 128,-1,12
 810 882 810 882 771.5 912.5 c 128,-1,13
 733 943 733 943 651 943 c 0,14,15
 591 943 591 943 537 916 c 128,-1,16
 483 889 483 889 440 849 c 128,-1,17
 397 809 397 809 369 767 c 1,18,-1
 369 0 l 1,19,-1
 201 0 l 1,20,-1
 201 1053 l 1,21,-1
 344 1053 l 1,22,-1
 357 907 l 1,23,24
 421 988 421 988 516.5 1031.5 c 128,-1,25
 612 1075 612 1075 705 1075 c 0,26,27
 859 1075 859 1075 930 993 c 128,-1,28
 1001 911 1001 911 1001 765 c 2,29,-1
 1001 57 l 2,0,1
EndSplineSet
Validated: 1
EndChar

StartChar: o
Encoding: 111 111 207
Width: 1200
GlyphClass: 2
Flags: W
AnchorPoint: "Anchor-1" 600 0 basechar 0
AnchorPoint: "Anchor-0" 600 1053 basechar 0
LayerCount: 2
Fore
SplineSet
602 1075 m 0,0,1
 751 1075 751 1075 851.5 1007.5 c 128,-1,2
 952 940 952 940 1002.5 817 c 128,-1,3
 1053 694 1053 694 1053 527 c 0,4,5
 1053 366 1053 366 1001 242 c 128,-1,6
 949 118 949 118 848.5 47.5 c 128,-1,7
 748 -23 748 -23 600 -23 c 256,8,9
 452 -23 452 -23 351 45 c 128,-1,10
 250 113 250 113 198.5 236.5 c 128,-1,11
 147 360 147 360 147 525 c 0,12,13
 147 688 147 688 199 812 c 128,-1,14
 251 936 251 936 352.5 1005.5 c 128,-1,15
 454 1075 454 1075 602 1075 c 0,0,1
602 938 m 0,16,17
 466 938 466 938 396.5 837.5 c 128,-1,18
 327 737 327 737 327 525 c 0,19,20
 327 317 327 317 395.5 216 c 128,-1,21
 464 115 464 115 600 115 c 256,22,23
 736 115 736 115 804.5 216 c 128,-1,24
 873 317 873 317 873 527 c 256,25,26
 873 737 873 737 805 837.5 c 128,-1,27
 737 938 737 938 602 938 c 0,16,17
EndSplineSet
Validated: 1
Substitution2: "Single Substitution lookup 12 subtable" ordmasculine
Substitution2: "'aalt' Access All Alternates lookup 0 subtable" ordmasculine
EndChar

StartChar: oslash
Encoding: 248 248 215
Width: 1200
GlyphClass: 2
Flags: W
AnchorPoint: "Anchor-0" 600 1053 basechar 0
LayerCount: 2
Fore
SplineSet
602 1075 m 0,0,1
 746 1075 746 1075 846 1007.5 c 128,-1,2
 946 940 946 940 999.5 817 c 128,-1,3
 1053 694 1053 694 1053 527 c 0,4,5
 1053 366 1053 366 1001 242 c 128,-1,6
 949 118 949 118 848.5 47.5 c 128,-1,7
 748 -23 748 -23 600 -23 c 0,8,9
 457 -23 457 -23 356 45 c 128,-1,10
 255 113 255 113 201 236.5 c 128,-1,11
 147 360 147 360 147 525 c 0,12,13
 147 688 147 688 199 812 c 128,-1,14
 251 936 251 936 352.5 1005.5 c 128,-1,15
 454 1075 454 1075 602 1075 c 0,0,1
776 1308 m 1,16,-1
 917 1267 l 1,17,-1
 828 1000 l 1,18,-1
 783 927 l 1,19,-1
 531 111 l 1,20,-1
 504 1 l 1,21,-1
 426 -261 l 1,22,-1
 286 -219 l 1,23,-1
 378 61 l 1,24,-1
 427 155 l 1,25,-1
 680 971 l 1,26,-1
 696 1055 l 1,27,-1
 776 1308 l 1,16,-1
602 937 m 0,28,29
 467 937 467 937 397.5 836.5 c 128,-1,30
 328 736 328 736 328 525 c 0,31,32
 328 377 328 377 358.5 286.5 c 128,-1,33
 389 196 389 196 450 156 c 128,-1,34
 511 116 511 116 600 116 c 0,35,36
 736 116 736 116 804 216.5 c 128,-1,37
 872 317 872 317 872 527 c 0,38,39
 872 677 872 677 841.5 767 c 128,-1,40
 811 857 811 857 751 897 c 128,-1,41
 691 937 691 937 602 937 c 0,28,29
EndSplineSet
Validated: 1048581
EndChar

StartChar: oe
Encoding: 339 339 218
Width: 1200
Flags: W
LayerCount: 2
Fore
SplineSet
899 1075 m 0,0,1
 1073 1075 1073 1075 1151.5 937 c 128,-1,2
 1230 799 1230 799 1230 559 c 0,3,4
 1230 532 1230 532 1228.5 508 c 128,-1,5
 1227 484 1227 484 1226 465 c 1,6,-1
 700 465 l 1,7,8
 714 286 714 286 765 202 c 128,-1,9
 816 118 816 118 919 118 c 0,10,11
 976 118 976 118 1019 138.5 c 128,-1,12
 1062 159 1062 159 1112 197 c 1,13,-1
 1189 82 l 1,14,15
 1129 35 1129 35 1065 6 c 128,-1,16
 1001 -23 1001 -23 917 -23 c 0,17,18
 807 -23 807 -23 732 30 c 128,-1,19
 657 83 657 83 617 180 c 1,20,21
 580 90 580 90 516 33.5 c 128,-1,22
 452 -23 452 -23 334 -23 c 0,23,24
 217 -23 217 -23 142 45 c 128,-1,25
 67 113 67 113 31 236.5 c 128,-1,26
 -5 360 -5 360 -5 525 c 0,27,28
 -5 688 -5 688 30 812 c 128,-1,29
 65 936 65 936 140.5 1005.5 c 128,-1,30
 216 1075 216 1075 334 1075 c 0,31,32
 458 1075 458 1075 521.5 1019 c 128,-1,33
 585 963 585 963 619 869 c 1,34,35
 655 958 655 958 720.5 1016.5 c 128,-1,36
 786 1075 786 1075 899 1075 c 0,0,1
355 940 m 0,37,38
 257 940 257 940 215.5 837.5 c 128,-1,39
 174 735 174 735 174 525 c 0,40,41
 174 309 174 309 215.5 212 c 128,-1,42
 257 115 257 115 355 115 c 256,43,44
 453 115 453 115 492 208.5 c 128,-1,45
 531 302 531 302 531 527 c 0,46,47
 531 737 531 737 491.5 838.5 c 128,-1,48
 452 940 452 940 355 940 c 0,37,38
893 936 m 0,49,50
 803 936 803 936 758 860.5 c 128,-1,51
 713 785 713 785 700 597 c 1,52,-1
 1066 597 l 1,53,54
 1062 763 1062 763 1026.5 849.5 c 128,-1,55
 991 936 991 936 893 936 c 0,49,50
EndSplineSet
Validated: 1
EndChar

StartChar: p
Encoding: 112 112 219
Width: 1200
GlyphClass: 2
Flags: W
AnchorPoint: "Anchor-1" 600 0 basechar 0
AnchorPoint: "Anchor-0" 600 1053 basechar 0
LayerCount: 2
Fore
SplineSet
672 1075 m 0,0,1
 812 1075 812 1075 895.5 1007 c 128,-1,2
 979 939 979 939 1016 815.5 c 128,-1,3
 1053 692 1053 692 1053 527 c 0,4,5
 1053 368 1053 368 1008.5 243.5 c 128,-1,6
 964 119 964 119 874 48 c 128,-1,7
 784 -23 784 -23 647 -23 c 0,8,9
 474 -23 474 -23 369 99 c 1,10,-1
 369 -403 l 1,11,-1
 201 -424 l 1,12,-1
 201 1053 l 1,13,-1
 344 1053 l 1,14,-1
 358 906 l 1,15,16
 416 987 416 987 496.5 1031 c 128,-1,17
 577 1075 577 1075 672 1075 c 0,0,1
632 940 m 0,18,19
 545 940 545 940 478.5 887.5 c 128,-1,20
 412 835 412 835 369 771 c 1,21,-1
 369 249 l 1,22,23
 410 188 410 188 472.5 152.5 c 128,-1,24
 535 117 535 117 610 117 c 0,25,26
 741 117 741 117 807 217 c 128,-1,27
 873 317 873 317 873 528 c 0,28,29
 873 666 873 666 847 757.5 c 128,-1,30
 821 849 821 849 768 894.5 c 128,-1,31
 715 940 715 940 632 940 c 0,18,19
EndSplineSet
Validated: 1
EndChar

StartChar: thorn
Encoding: 254 254 220
Width: 1200
GlyphClass: 2
Flags: W
AnchorPoint: "Anchor-1" 600 -399 basechar 0
AnchorPoint: "Anchor-0" 600 1477 basechar 0
LayerCount: 2
Fore
SplineSet
369 1498 m 1,0,-1
 369 923 l 1,1,2
 427 997 427 997 504.5 1036 c 128,-1,3
 582 1075 582 1075 672 1075 c 0,4,5
 812 1075 812 1075 895.5 1007 c 128,-1,6
 979 939 979 939 1016 815.5 c 128,-1,7
 1053 692 1053 692 1053 527 c 0,8,9
 1053 368 1053 368 1008.5 243.5 c 128,-1,10
 964 119 964 119 874 48 c 128,-1,11
 784 -23 784 -23 647 -23 c 0,12,13
 474 -23 474 -23 369 99 c 1,14,-1
 369 -403 l 1,15,-1
 201 -424 l 1,16,-1
 201 1477 l 1,17,-1
 369 1498 l 1,0,-1
632 940 m 0,18,19
 545 940 545 940 478.5 887.5 c 128,-1,20
 412 835 412 835 369 771 c 1,21,-1
 369 249 l 1,22,23
 410 188 410 188 472.5 152.5 c 128,-1,24
 535 117 535 117 610 117 c 0,25,26
 741 117 741 117 807 217 c 128,-1,27
 873 317 873 317 873 528 c 0,28,29
 873 666 873 666 847 757.5 c 128,-1,30
 821 849 821 849 768 894.5 c 128,-1,31
 715 940 715 940 632 940 c 0,18,19
EndSplineSet
Validated: 1
EndChar

StartChar: q
Encoding: 113 113 221
Width: 1200
GlyphClass: 2
Flags: W
AnchorPoint: "Anchor-1" 600 0 basechar 0
AnchorPoint: "Anchor-0" 600 1053 basechar 0
LayerCount: 2
Fore
SplineSet
548 1075 m 0,0,1
 643 1075 643 1075 715.5 1040 c 128,-1,2
 788 1005 788 1005 842 938 c 1,3,-1
 856 1053 l 1,4,-1
 999 1053 l 1,5,-1
 999 -424 l 1,6,-1
 831 -403 l 1,7,-1
 831 133 l 1,8,9
 774 52 774 52 697.5 14.5 c 128,-1,10
 621 -23 621 -23 535 -23 c 0,11,12
 394 -23 394 -23 308.5 45 c 128,-1,13
 223 113 223 113 185 236.5 c 128,-1,14
 147 360 147 360 147 525 c 0,15,16
 147 683 147 683 192.5 807.5 c 128,-1,17
 238 932 238 932 328 1003.5 c 128,-1,18
 418 1075 418 1075 548 1075 c 0,0,1
590 940 m 0,19,20
 459 940 459 940 393 837 c 128,-1,21
 327 734 327 734 327 525 c 0,22,23
 327 389 327 389 354 298 c 128,-1,24
 381 207 381 207 434.5 162 c 128,-1,25
 488 117 488 117 570 117 c 0,26,27
 658 117 658 117 723 166 c 128,-1,28
 788 215 788 215 831 279 c 1,29,-1
 831 805 l 1,30,31
 790 869 790 869 727.5 904.5 c 128,-1,32
 665 940 665 940 590 940 c 0,19,20
EndSplineSet
Validated: 1
EndChar

StartChar: r
Encoding: 114 114 222
Width: 1200
GlyphClass: 2
Flags: W
AnchorPoint: "Anchor-1" 459 0 basechar 0
AnchorPoint: "Anchor-0" 661 1053 basechar 0
LayerCount: 2
Fore
SplineSet
211 0 m 1,0,-1
 211 129 l 1,1,-1
 375 129 l 1,2,-1
 375 924 l 1,3,-1
 211 924 l 1,4,-1
 211 1053 l 1,5,-1
 503 1053 l 1,6,-1
 534 804 l 1,7,8
 595 934 595 934 682 1005 c 128,-1,9
 769 1076 769 1076 912 1076 c 0,10,11
 956 1076 956 1076 990.5 1069.5 c 128,-1,12
 1025 1063 1025 1063 1061 1053 c 1,13,-1
 1012 903 l 1,14,15
 979 912 979 912 952 916.5 c 128,-1,16
 925 921 925 921 890 921 c 0,17,18
 769 921 769 921 682 835 c 128,-1,19
 595 749 595 749 543 575 c 1,20,-1
 543 129 l 1,21,-1
 757 129 l 1,22,-1
 757 0 l 1,23,-1
 211 0 l 1,0,-1
899 697 m 1,24,-1
 899 926 l 1,25,-1
 916 1053 l 1,26,-1
 1061 1053 l 1,27,-1
 1037 697 l 1,28,-1
 899 697 l 1,24,-1
EndSplineSet
Validated: 5
Substitution2: "'ss01' Style Set 1 lookup 395 subtable" r.ss01
Substitution2: "'salt' Stylistic Alternatives lookup 394 subtable" r.ss01
Substitution2: "'aalt' Access All Alternates lookup 0 subtable" r.ss01
EndChar

StartChar: s
Encoding: 115 115 226
Width: 1200
GlyphClass: 2
Flags: W
AnchorPoint: "Anchor-1" 593 0 basechar 0
AnchorPoint: "Anchor-0" 615 1053 basechar 0
LayerCount: 2
Fore
SplineSet
559 116 m 0,0,1
 680 116 680 116 750.5 161.5 c 128,-1,2
 821 207 821 207 821 283 c 0,3,4
 821 331 821 331 803.5 366 c 128,-1,5
 786 401 786 401 732 429 c 128,-1,6
 678 457 678 457 566 485 c 0,7,8
 457 512 457 512 376.5 547.5 c 128,-1,9
 296 583 296 583 251.5 640 c 128,-1,10
 207 697 207 697 207 788 c 0,11,12
 207 877 207 877 257.5 941.5 c 128,-1,13
 308 1006 308 1006 398 1040.5 c 128,-1,14
 488 1075 488 1075 607 1075 c 0,15,16
 734 1075 734 1075 828.5 1041.5 c 128,-1,17
 923 1008 923 1008 989 959 c 1,18,-1
 915 845 l 1,19,20
 855 886 855 886 783 912.5 c 128,-1,21
 711 939 711 939 609 939 c 0,22,23
 485 939 485 939 433 900.5 c 128,-1,24
 381 862 381 862 381 801 c 0,25,26
 381 755 381 755 406.5 724.5 c 128,-1,27
 432 694 432 694 493 669.5 c 128,-1,28
 554 645 554 645 661 616 c 0,29,30
 764 589 764 589 840.5 551 c 128,-1,31
 917 513 917 513 960 451 c 128,-1,32
 1003 389 1003 389 1003 291 c 0,33,34
 1003 179 1003 179 939 109.5 c 128,-1,35
 875 40 875 40 773.5 8.5 c 128,-1,36
 672 -23 672 -23 559 -23 c 0,37,38
 416 -23 416 -23 315.5 18.5 c 128,-1,39
 215 60 215 60 147 119 c 1,40,-1
 243 230 l 1,41,42
 305 179 305 179 385.5 147.5 c 128,-1,43
 466 116 466 116 559 116 c 0,0,1
EndSplineSet
Validated: 1
EndChar

StartChar: germandbls
Encoding: 223 223 232
Width: 1200
Flags: W
LayerCount: 2
Fore
SplineSet
593 1498 m 0,0,1
 747 1498 747 1498 844 1418 c 128,-1,2
 941 1338 941 1338 941 1211 c 0,3,4
 941 1152 941 1152 918 1110 c 128,-1,5
 895 1068 895 1068 861 1037 c 128,-1,6
 827 1006 827 1006 793.5 979 c 128,-1,7
 760 952 760 952 737 923.5 c 128,-1,8
 714 895 714 895 714 857 c 0,9,10
 714 805 714 805 754.5 767.5 c 128,-1,11
 795 730 795 730 854.5 694.5 c 128,-1,12
 914 659 914 659 974.5 614 c 128,-1,13
 1035 569 1035 569 1075.5 502 c 128,-1,14
 1116 435 1116 435 1116 334 c 0,15,16
 1116 218 1116 218 1064.5 138.5 c 128,-1,17
 1013 59 1013 59 928 18 c 128,-1,18
 843 -23 843 -23 743 -23 c 0,19,20
 664 -23 664 -23 601 -5.5 c 128,-1,21
 538 12 538 12 485 46 c 1,22,-1
 553 161 l 1,23,24
 590 140 590 140 636.5 126.5 c 128,-1,25
 683 113 683 113 727 113 c 0,26,27
 828 113 828 113 886.5 165.5 c 128,-1,28
 945 218 945 218 945 325 c 0,29,30
 945 389 945 389 916 434 c 128,-1,31
 887 479 887 479 842 513.5 c 128,-1,32
 797 548 797 548 746.5 578.5 c 128,-1,33
 696 609 696 609 650.5 644 c 128,-1,34
 605 679 605 679 576.5 725.5 c 128,-1,35
 548 772 548 772 548 837 c 0,36,37
 548 895 548 895 571.5 934 c 128,-1,38
 595 973 595 973 630 1003 c 128,-1,39
 665 1033 665 1033 699.5 1059.5 c 128,-1,40
 734 1086 734 1086 757.5 1118 c 128,-1,41
 781 1150 781 1150 781 1194 c 0,42,43
 781 1231 781 1231 764 1270 c 128,-1,44
 747 1309 747 1309 705.5 1336 c 128,-1,45
 664 1363 664 1363 592 1363 c 0,46,47
 480 1363 480 1363 420 1298 c 128,-1,48
 360 1233 360 1233 360 1078 c 2,49,-1
 360 0 l 1,50,-1
 192 0 l 1,51,-1
 192 1067 l 2,52,53
 192 1279 192 1279 299 1388.5 c 128,-1,54
 406 1498 406 1498 593 1498 c 0,0,1
EndSplineSet
Validated: 1
EndChar

StartChar: t
Encoding: 116 116 233
Width: 1200
GlyphClass: 2
Flags: W
AnchorPoint: "Anchor-1" 743 0 basechar 0
AnchorPoint: "Anchor-0" 485 1304 basechar 0
LayerCount: 2
Fore
SplineSet
1037 53 m 1,0,1
 983 17 983 17 906 -3 c 128,-1,2
 829 -23 829 -23 755 -23 c 0,3,4
 585 -23 585 -23 493 66 c 128,-1,5
 401 155 401 155 401 295 c 2,6,-1
 401 923 l 1,7,-1
 159 923 l 1,8,-1
 159 1053 l 1,9,-1
 401 1053 l 1,10,-1
 401 1292 l 1,11,-1
 569 1312 l 1,12,-1
 569 1053 l 1,13,-1
 933 1053 l 1,14,-1
 913 923 l 1,15,-1
 569 923 l 1,16,-1
 569 297 l 2,17,18
 569 209 569 209 615.5 163 c 128,-1,19
 662 117 662 117 770 117 c 0,20,21
 829 117 829 117 879 131 c 128,-1,22
 929 145 929 145 972 167 c 1,23,-1
 1037 53 l 1,0,1
EndSplineSet
Validated: 1
EndChar

StartChar: tbar
Encoding: 359 359 234
Width: 1200
GlyphClass: 2
Flags: W
AnchorPoint: "Anchor-1" 743 0 basechar 0
AnchorPoint: "Anchor-0" 485 1304 basechar 0
LayerCount: 2
Fore
SplineSet
915 704 m 1,0,-1
 915 575 l 1,1,-1
 569 575 l 1,2,-1
 181 575 l 1,3,-1
 181 704 l 1,4,-1
 401 704 l 1,5,-1
 915 704 l 1,0,-1
1037 53 m 1,6,7
 983 17 983 17 906 -3 c 128,-1,8
 829 -23 829 -23 755 -23 c 0,9,10
 585 -23 585 -23 493 66 c 128,-1,11
 401 155 401 155 401 295 c 2,12,-1
 401 923 l 1,13,-1
 159 923 l 1,14,-1
 159 1053 l 1,15,-1
 401 1053 l 1,16,-1
 401 1292 l 1,17,-1
 569 1312 l 1,18,-1
 569 1053 l 1,19,-1
 933 1053 l 1,20,-1
 913 923 l 1,21,-1
 569 923 l 1,22,-1
 569 297 l 2,23,24
 569 209 569 209 615.5 163 c 128,-1,25
 662 117 662 117 770 117 c 0,26,27
 829 117 829 117 879 131 c 128,-1,28
 929 145 929 145 972 167 c 1,29,-1
 1037 53 l 1,6,7
EndSplineSet
Validated: 5
EndChar

StartChar: u
Encoding: 117 117 238
Width: 1200
GlyphClass: 2
Flags: W
AnchorPoint: "Anchor-0" 600 1053 basechar 0
LayerCount: 2
Fore
SplineSet
369 1053 m 1,0,-1
 369 307 l 2,1,2
 369 203 369 203 412 157 c 128,-1,3
 455 111 455 111 546 111 c 0,4,5
 633 111 633 111 710.5 160.5 c 128,-1,6
 788 210 788 210 831 278 c 1,7,-1
 831 1053 l 1,8,-1
 999 1053 l 1,9,-1
 999 0 l 1,10,-1
 856 0 l 1,11,-1
 842 142 l 1,12,13
 780 62 780 62 689 19.5 c 128,-1,14
 598 -23 598 -23 505 -23 c 0,15,16
 352 -23 352 -23 276.5 58.5 c 128,-1,17
 201 140 201 140 201 287 c 2,18,-1
 201 1053 l 1,19,-1
 369 1053 l 1,0,-1
EndSplineSet
Validated: 1048577
EndChar

StartChar: v
Encoding: 118 118 249
Width: 1200
GlyphClass: 2
Flags: W
AnchorPoint: "Anchor-1" 600 0 basechar 0
AnchorPoint: "Anchor-0" 600 1053 basechar 0
LayerCount: 2
Fore
SplineSet
1079 1053 m 1,0,-1
 696 0 l 1,1,-1
 501 0 l 1,2,-1
 121 1053 l 1,3,-1
 299 1053 l 1,4,-1
 604 153 l 1,5,-1
 905 1053 l 1,6,-1
 1079 1053 l 1,0,-1
EndSplineSet
Validated: 1
EndChar

StartChar: w
Encoding: 119 119 250
Width: 1200
GlyphClass: 2
Flags: W
AnchorPoint: "Anchor-1" 600 0 basechar 0
AnchorPoint: "Anchor-0" 600 1053 basechar 0
LayerCount: 2
Fore
SplineSet
981 0 m 1,0,-1
 743 0 l 1,1,-1
 607 773 l 1,2,-1
 459 0 l 1,3,-1
 227 0 l 1,4,-1
 35 1053 l 1,5,-1
 207 1053 l 1,6,-1
 341 104 l 1,7,-1
 509 919 l 1,8,-1
 708 919 l 1,9,-1
 867 104 l 1,10,-1
 1001 1053 l 1,11,-1
 1165 1053 l 1,12,-1
 981 0 l 1,0,-1
EndSplineSet
Validated: 1
Substitution2: "Single Substitution lookup 203 subtable" LIG
Substitution2: "Single Substitution lookup 202 subtable" LIG
Substitution2: "Single Substitution lookup 201 subtable" w_w_w.liga
AlternateSubs2: "'aalt' Access All Alternates lookup 1 subtable" w_w_w.liga LIG
EndChar

StartChar: x
Encoding: 120 120 255
Width: 1200
GlyphClass: 2
Flags: W
AnchorPoint: "Anchor-1" 600 0 basechar 0
AnchorPoint: "Anchor-0" 600 1053 basechar 0
LayerCount: 2
Fore
SplineSet
303 0 m 1,0,-1
 111 0 l 1,1,-1
 500 556 l 1,2,-1
 159 1053 l 1,3,-1
 358 1053 l 1,4,-1
 602 661 l 1,5,-1
 849 1053 l 1,6,-1
 1041 1053 l 1,7,-1
 701 563 l 1,8,-1
 1089 0 l 1,9,-1
 883 0 l 1,10,-1
 595 452 l 1,11,-1
 303 0 l 1,0,-1
EndSplineSet
Validated: 1
Substitution2: "Single Substitution lookup 386 subtable" x.multiply
Substitution2: "Single Substitution lookup 385 subtable" x.multiply
Substitution2: "'aalt' Access All Alternates lookup 0 subtable" x.multiply
EndChar

StartChar: y
Encoding: 121 121 256
Width: 1200
GlyphClass: 2
Flags: W
AnchorPoint: "Anchor-0" 600 1053 basechar 0
LayerCount: 2
Fore
SplineSet
1077 1053 m 1,0,-1
 707 -7 l 2,1,2
 670 -114 670 -114 613.5 -203 c 128,-1,3
 557 -292 557 -292 466.5 -350.5 c 128,-1,4
 376 -409 376 -409 237 -423 c 1,5,-1
 211 -289 l 1,6,7
 320 -271 320 -271 383 -234 c 128,-1,8
 446 -197 446 -197 482.5 -139 c 128,-1,9
 519 -81 519 -81 547 0 c 1,10,-1
 491 0 l 1,11,-1
 123 1053 l 1,12,-1
 303 1053 l 1,13,-1
 605 128 l 1,14,-1
 903 1053 l 1,15,-1
 1077 1053 l 1,0,-1
EndSplineSet
Validated: 1048577
EndChar

StartChar: z
Encoding: 122 122 261
Width: 1200
GlyphClass: 2
Flags: W
AnchorPoint: "Anchor-1" 600 0 basechar 0
AnchorPoint: "Anchor-0" 621 1053 basechar 0
LayerCount: 2
Fore
SplineSet
411 143 m 1,0,-1
 997 143 l 1,1,-1
 975 0 l 1,2,-1
 205 0 l 1,3,-1
 205 127 l 1,4,-1
 789 907 l 1,5,-1
 251 907 l 1,6,-1
 251 1053 l 1,7,-1
 991 1053 l 1,8,-1
 991 923 l 1,9,-1
 411 143 l 1,0,-1
EndSplineSet
Validated: 1
EndChar

StartChar: x.multiply
Encoding: 1114124 -1 270
Width: 1200
Flags: W
LayerCount: 2
Fore
SplineSet
895 1052 m 1,0,-1
 1002 945 l 1,1,-1
 707 650 l 1,2,-1
 1002 350 l 1,3,-1
 895 243 l 1,4,-1
 600 543 l 1,5,-1
 300 243 l 1,6,-1
 193 350 l 1,7,-1
 493 650 l 1,8,-1
 193 945 l 1,9,-1
 300 1052 l 1,10,-1
 600 757 l 1,11,-1
 895 1052 l 1,0,-1
EndSplineSet
Validated: 1
EndChar

StartChar: r.ss01
Encoding: 1114125 -1 271
Width: 1200
GlyphClass: 2
Flags: W
AnchorPoint: "Anchor-1" 459 0 basechar 0
AnchorPoint: "Anchor-0" 661 1053 basechar 0
LayerCount: 2
Fore
SplineSet
211 0 m 1,0,-1
 211 129 l 1,1,-1
 375 129 l 1,2,-1
 375 924 l 1,3,-1
 211 924 l 1,4,-1
 211 1053 l 1,5,-1
 503 1053 l 1,6,-1
 534 804 l 1,7,8
 595 934 595 934 682 1005 c 128,-1,9
 769 1076 769 1076 912 1076 c 0,10,11
 956 1076 956 1076 990.5 1069.5 c 128,-1,12
 1025 1063 1025 1063 1061 1053 c 1,13,-1
 1012 903 l 1,14,15
 979 912 979 912 952 916.5 c 128,-1,16
 925 921 925 921 890 921 c 0,17,18
 769 921 769 921 682 835 c 128,-1,19
 595 749 595 749 543 575 c 1,20,-1
 543 129 l 1,21,-1
 757 129 l 1,22,-1
 757 0 l 1,23,-1
 211 0 l 1,0,-1
EndSplineSet
Validated: 1
EndChar

StartChar: w_w_w.liga
Encoding: 1114126 -1 272
Width: 1200
GlyphClass: 3
Flags: W
LayerCount: 2
Fore
SplineSet
841 1053 m 1,0,-1
 1003 1053 l 1,1,-1
 821 0 l 1,2,-1
 582 0 l 1,3,-1
 446 773 l 1,4,-1
 280 0 l 1,5,-1
 39 0 l 1,6,-1
 -85 773 l 1,7,-1
 -213 0 l 1,8,-1
 -461 0 l 1,9,-1
 -594 773 l 1,10,-1
 -737 0 l 1,11,-1
 -979 0 l 1,12,-1
 -1114 773 l 1,13,-1
 -1253 0 l 1,14,-1
 -1501 0 l 1,15,-1
 -1634 773 l 1,16,-1
 -1781 0 l 1,17,-1
 -2013 0 l 1,18,-1
 -2204 1053 l 1,19,-1
 -2033 1053 l 1,20,-1
 -1898 104 l 1,21,-1
 -1730 919 l 1,22,-1
 -1531 919 l 1,23,-1
 -1375 104 l 1,24,-1
 -1213 919 l 1,25,-1
 -1009 919 l 1,26,-1
 -855 104 l 1,27,-1
 -691 919 l 1,28,-1
 -491 919 l 1,29,-1
 -337 104 l 1,30,-1
 -183 919 l 1,31,-1
 21 919 l 1,32,-1
 161 104 l 1,33,-1
 350 919 l 1,34,-1
 549 919 l 1,35,-1
 706 104 l 1,36,-1
 841 1053 l 1,0,-1
EndSplineSet
Validated: 1
EndChar

StartChar: fi
Encoding: 64257 64257 273
Width: 1200
Flags: W
LayerCount: 2
Fore
SplineSet
1173 0 m 1,0,-1
 628 0 l 1,1,-1
 628 133 l 1,2,-1
 815 133 l 1,3,-1
 815 921 l 1,4,-1
 391 921 l 1,5,-1
 391 0 l 1,6,-1
 221 0 l 1,7,-1
 221 921 l 1,8,-1
 40 921 l 1,9,-1
 40 1053 l 1,10,-1
 221 1053 l 1,11,-1
 221 1181 l 2,12,13
 221 1279 221 1279 273 1350 c 128,-1,14
 325 1421 325 1421 413.5 1459.5 c 128,-1,15
 502 1498 502 1498 611 1498 c 0,16,17
 696 1498 696 1498 764.5 1483 c 128,-1,18
 833 1468 833 1468 896 1441 c 1,19,-1
 841 1316 l 1,20,21
 791 1338 791 1338 734 1349 c 128,-1,22
 677 1360 677 1360 616 1360 c 0,23,24
 503 1360 503 1360 447 1317 c 128,-1,25
 391 1274 391 1274 391 1185 c 2,26,-1
 391 1053 l 1,27,-1
 984 1053 l 1,28,-1
 984 133 l 1,29,-1
 1173 133 l 1,30,-1
 1173 0 l 1,0,-1
EndSplineSet
Validated: 1
EndChar

StartChar: fl
Encoding: 64258 64258 274
Width: 1200
Flags: W
LayerCount: 2
Fore
SplineSet
1203 19 m 1,0,1
 1166 1 1166 1 1125.5 -11 c 128,-1,2
 1085 -23 1085 -23 1023 -23 c 0,3,4
 918 -23 918 -23 847 38 c 128,-1,5
 776 99 776 99 776 235 c 2,6,-1
 776 1339 l 1,7,8
 735 1350 735 1350 692.5 1354.5 c 128,-1,9
 650 1359 650 1359 608 1359 c 0,10,11
 493 1359 493 1359 436 1316.5 c 128,-1,12
 379 1274 379 1274 379 1185 c 2,13,-1
 379 1053 l 1,14,-1
 633 1053 l 1,15,-1
 613 921 l 1,16,-1
 379 921 l 1,17,-1
 379 0 l 1,18,-1
 210 0 l 1,19,-1
 210 921 l 1,20,-1
 27 921 l 1,21,-1
 27 1053 l 1,22,-1
 210 1053 l 1,23,-1
 210 1181 l 2,24,25
 210 1279 210 1279 262 1350 c 128,-1,26
 314 1421 314 1421 402.5 1459.5 c 128,-1,27
 491 1498 491 1498 601 1498 c 0,28,29
 658 1498 658 1498 704 1488 c 128,-1,30
 750 1478 750 1478 797 1461 c 1,31,-1
 945 1493 l 1,32,-1
 945 240 l 2,33,34
 945 170 945 170 973 143.5 c 128,-1,35
 1001 117 1001 117 1049 117 c 0,36,37
 1079 117 1079 117 1104 123 c 128,-1,38
 1129 129 1129 129 1157 140 c 1,39,-1
 1203 19 l 1,0,1
EndSplineSet
Validated: 1
EndChar

StartChar: ordfeminine
Encoding: 170 170 275
Width: 1200
Flags: W
LayerCount: 2
Fore
SplineSet
580 1498 m 0,0,1
 748 1498 748 1498 830.5 1423.5 c 128,-1,2
 913 1349 913 1349 913 1219 c 2,3,-1
 913 823 l 2,4,5
 913 778 913 778 929.5 756 c 128,-1,6
 946 734 946 734 979 723 c 1,7,-1
 941 614 l 1,8,9
 879 622 879 622 838.5 649.5 c 128,-1,10
 798 677 798 677 776 733 c 1,11,12
 727 676 727 676 655.5 645.5 c 128,-1,13
 584 615 584 615 508 615 c 0,14,15
 371 615 371 615 287.5 687.5 c 128,-1,16
 204 760 204 760 204 879 c 0,17,18
 204 1013 204 1013 319.5 1083 c 128,-1,19
 435 1153 435 1153 638 1153 c 2,20,-1
 755 1153 l 1,21,-1
 755 1213 l 2,22,23
 755 1297 755 1297 703 1333 c 128,-1,24
 651 1369 651 1369 557 1369 c 0,25,26
 516 1369 516 1369 451.5 1358 c 128,-1,27
 387 1347 387 1347 315 1321 c 1,28,-1
 269 1438 l 1,29,30
 357 1472 357 1472 434.5 1485 c 128,-1,31
 512 1498 512 1498 580 1498 c 0,0,1
997 151 m 1,32,-1
 997 0 l 1,33,-1
 211 0 l 1,34,-1
 211 151 l 1,35,-1
 997 151 l 1,32,-1
755 1041 m 1,36,-1
 639 1041 l 2,37,38
 499 1041 499 1041 436 1001 c 128,-1,39
 373 961 373 961 373 887 c 0,40,41
 373 811 373 811 418.5 772 c 128,-1,42
 464 733 464 733 545 733 c 0,43,44
 605 733 605 733 661 763.5 c 128,-1,45
 717 794 717 794 755 845 c 1,46,-1
 755 1041 l 1,36,-1
EndSplineSet
Validated: 1
EndChar

StartChar: ordmasculine
Encoding: 186 186 276
Width: 1200
Flags: W
LayerCount: 2
Fore
SplineSet
600 1498 m 0,0,1
 725 1498 725 1498 816 1444 c 128,-1,2
 907 1390 907 1390 956.5 1291 c 128,-1,3
 1006 1192 1006 1192 1006 1057 c 0,4,5
 1006 927 1006 927 956 827 c 128,-1,6
 906 727 906 727 815 671 c 128,-1,7
 724 615 724 615 600 615 c 0,8,9
 475 615 475 615 383.5 670 c 128,-1,10
 292 725 292 725 242 824 c 128,-1,11
 192 923 192 923 192 1057 c 0,12,13
 192 1188 192 1188 242.5 1287 c 128,-1,14
 293 1386 293 1386 385 1442 c 128,-1,15
 477 1498 477 1498 600 1498 c 0,0,1
994 151 m 1,16,-1
 994 0 l 1,17,-1
 209 0 l 1,18,-1
 209 151 l 1,19,-1
 994 151 l 1,16,-1
600 1369 m 256,20,21
 490 1369 490 1369 425 1293.5 c 128,-1,22
 360 1218 360 1218 360 1057 c 256,23,24
 360 896 360 896 425 819.5 c 128,-1,25
 490 743 490 743 600 743 c 256,26,27
 710 743 710 743 774 819.5 c 128,-1,28
 838 896 838 896 838 1057 c 256,29,30
 838 1218 838 1218 774 1293.5 c 128,-1,31
 710 1369 710 1369 600 1369 c 256,20,21
EndSplineSet
Validated: 1
EndChar

StartChar: uni207F
Encoding: 8319 8319 277
Width: 1200
Flags: W
LayerCount: 2
Fore
SplineSet
664 1446 m 0,0,1
 770 1446 770 1446 818.5 1391.5 c 128,-1,2
 867 1337 867 1337 867 1240 c 2,3,-1
 867 756 l 1,4,-1
 724 756 l 1,5,-1
 724 1163 l 2,6,7
 724 1253 724 1253 707.5 1292.5 c 128,-1,8
 691 1332 691 1332 631 1332 c 0,9,10
 586 1332 586 1332 545 1302 c 128,-1,11
 504 1272 504 1272 478 1237 c 1,12,-1
 478 756 l 1,13,-1
 335 756 l 1,14,-1
 335 1433 l 1,15,-1
 463 1433 l 1,16,-1
 469 1351 l 1,17,18
 510 1401 510 1401 563.5 1423.5 c 128,-1,19
 617 1446 617 1446 664 1446 c 0,0,1
EndSplineSet
Validated: 1
EndChar

StartChar: uni052C
Encoding: 1324 1324 278
Width: 1200
GlyphClass: 2
Flags: W
AnchorPoint: "Anchor-1" 600 -399 basechar 0
AnchorPoint: "Anchor-0" 600 1377 basechar 0
LayerCount: 2
Fore
SplineSet
177 0 m 1,0,-1
 179 146 l 1,1,2
 224 193 224 193 273.5 291 c 128,-1,3
 323 389 323 389 368.5 556 c 128,-1,4
 414 723 414 723 446 976 c 2,5,-1
 497 1377 l 1,6,-1
 1053 1377 l 1,7,-1
 1053 0 l 1,8,-1
 177 0 l 1,0,-1
354 145 m 1,9,-1
 880 145 l 1,10,-1
 880 1229 l 1,11,-1
 655 1229 l 1,12,-1
 625 969 l 2,13,14
 602 764 602 764 571.5 624.5 c 128,-1,15
 541 485 541 485 505.5 393.5 c 128,-1,16
 470 302 470 302 431.5 244 c 128,-1,17
 393 186 393 186 354 145 c 1,9,-1
121 1377 m 1,18,-1
 301 1377 l 1,19,-1
 301 1123 l 2,20,21
 301 1015 301 1015 328 946.5 c 128,-1,22
 355 878 355 878 420.5 846 c 128,-1,23
 486 814 486 814 601 814 c 2,24,-1
 910 814 l 1,25,-1
 910 672 l 1,26,-1
 591 671 l 2,27,28
 433 671 433 671 329 715.5 c 128,-1,29
 225 760 225 760 173.5 858 c 128,-1,30
 122 956 122 956 121 1117 c 2,31,-1
 121 1377 l 1,18,-1
106 145 m 1,32,-1
 303 145 l 1,33,-1
 316 0 l 1,34,-1
 273 0 l 1,35,-1
 243 -294 l 1,36,-1
 106 -294 l 1,37,-1
 106 145 l 1,32,-1
1125 145 m 1,38,-1
 1125 -294 l 1,39,-1
 988 -294 l 1,40,-1
 958 0 l 1,41,-1
 915 0 l 1,42,-1
 928 145 l 1,43,-1
 1125 145 l 1,38,-1
EndSplineSet
Validated: 5
Position2: "'cpsp' Capital Spacing lookup 0 subtable" dx=0 dy=0 dh=0 dv=0
EndChar

StartChar: uni052A
Encoding: 1322 1322 279
Width: 1200
GlyphClass: 2
Flags: W
AnchorPoint: "Anchor-1" 600 -399 basechar 0
AnchorPoint: "Anchor-0" 600 1377 basechar 0
LayerCount: 2
Fore
SplineSet
-25 -294 m 1,0,-1
 -25 129 l 1,1,-1
 185 129 l 1,2,-1
 178 0 l 1,3,-1
 131 0 l 1,4,-1
 101 -294 l 1,5,-1
 -25 -294 l 1,0,-1
605 -294 m 1,6,-1
 575 0 l 1,7,-1
 528 0 l 1,8,-1
 524 129 l 1,9,-1
 735 129 l 1,10,-1
 735 -294 l 1,11,-1
 605 -294 l 1,6,-1
585 0 m 1,12,-1
 565 129 l 1,13,-1
 780 129 l 1,14,-1
 780 0 l 1,15,-1
 585 0 l 1,12,-1
39 0 m 1,16,-1
 41 129 l 1,17,18
 59 178 59 178 77 233 c 128,-1,19
 95 288 95 288 112 368 c 128,-1,20
 129 448 129 448 144 569 c 128,-1,21
 159 690 159 690 172 869 c 2,22,-1
 205 1377 l 1,23,-1
 603 1377 l 1,24,-1
 603 0 l 1,25,-1
 39 0 l 1,16,-1
179 129 m 1,26,-1
 458 129 l 1,27,-1
 458 1243 l 1,28,-1
 347 1243 l 1,29,-1
 327 862 l 2,30,31
 318 696 318 696 305.5 578.5 c 128,-1,32
 293 461 293 461 275 378 c 128,-1,33
 257 295 257 295 233.5 236 c 128,-1,34
 210 177 210 177 179 129 c 1,26,-1
571 647 m 1,35,-1
 571 791 l 1,36,-1
 706 791 l 1,37,-1
 706 1377 l 1,38,-1
 852 1377 l 1,39,-1
 852 791 l 1,40,-1
 907 791 l 1,41,-1
 1038 1377 l 1,42,-1
 1183 1377 l 1,43,-1
 1029 725 l 1,44,-1
 1223 0 l 1,45,-1
 1057 0 l 1,46,-1
 904 647 l 1,47,-1
 852 647 l 1,48,-1
 852 0 l 1,49,-1
 706 0 l 1,50,-1
 706 647 l 1,51,-1
 571 647 l 1,35,-1
EndSplineSet
Validated: 5
Position2: "'cpsp' Capital Spacing lookup 0 subtable" dx=0 dy=0 dh=0 dv=0
EndChar

StartChar: uni052E
Encoding: 1326 1326 280
Width: 1200
Flags: W
LayerCount: 2
Fore
SplineSet
972 1377 m 1,0,-1
 972 0 l 1,1,-1
 799 0 l 1,2,-1
 799 1228 l 1,3,-1
 466 1228 l 1,4,-1
 417 820 l 2,5,6
 394 629 394 629 369.5 498.5 c 128,-1,7
 345 368 345 368 317.5 283.5 c 128,-1,8
 290 199 290 199 255.5 144.5 c 128,-1,9
 221 90 221 90 179 52.5 c 128,-1,10
 137 15 137 15 83 -22 c 1,11,-1
 7 107 l 1,12,13
 40 135 40 135 70.5 169 c 128,-1,14
 101 203 101 203 129 267.5 c 128,-1,15
 157 332 157 332 183.5 452 c 128,-1,16
 210 572 210 572 237 771 c 2,17,-1
 315 1377 l 1,18,-1
 972 1377 l 1,0,-1
1095 145 m 1,19,-1
 1095 -294 l 1,20,-1
 958 -294 l 1,21,-1
 928 0 l 1,22,-1
 885 0 l 1,23,-1
 898 145 l 1,24,-1
 1095 145 l 1,19,-1
EndSplineSet
Validated: 5
Position2: "'cpsp' Capital Spacing lookup 0 subtable" dx=0 dy=0 dh=0 dv=0
EndChar

StartChar: uni0411
Encoding: 1041 1041 283
Width: 1200
GlyphClass: 2
Flags: W
AnchorPoint: "Anchor-1" 600 0 basechar 0
AnchorPoint: "Anchor-0" 600 1377 basechar 0
LayerCount: 2
Fore
SplineSet
971 1377 m 1,0,-1
 954 1233 l 1,1,-1
 375 1233 l 1,2,-1
 375 841 l 1,3,-1
 549 841 l 2,4,5
 798 841 798 841 941.5 744 c 128,-1,6
 1085 647 1085 647 1085 429 c 0,7,8
 1085 272 1085 272 1016.5 178 c 128,-1,9
 948 84 948 84 827.5 42 c 128,-1,10
 707 0 707 0 551 0 c 2,11,-1
 201 0 l 1,12,-1
 201 1377 l 1,13,-1
 971 1377 l 1,0,-1
573 703 m 2,14,-1
 375 703 l 1,15,-1
 375 141 l 1,16,-1
 573 141 l 2,17,18
 669 141 669 141 743 164 c 128,-1,19
 817 187 817 187 860 249 c 128,-1,20
 903 311 903 311 903 427 c 0,21,22
 903 529 903 529 860.5 589.5 c 128,-1,23
 818 650 818 650 744 676.5 c 128,-1,24
 670 703 670 703 573 703 c 2,14,-1
EndSplineSet
Validated: 1
Position2: "'cpsp' Capital Spacing lookup 0 subtable" dx=0 dy=0 dh=0 dv=0
EndChar

StartChar: uni0413
Encoding: 1043 1043 285
Width: 1200
GlyphClass: 2
Flags: W
AnchorPoint: "Anchor-1" 359 0 basechar 0
AnchorPoint: "Anchor-0" 697 1377 basechar 0
LayerCount: 2
Fore
SplineSet
1089 1377 m 1,0,-1
 1071 1225 l 1,1,-1
 445 1225 l 1,2,-1
 445 0 l 1,3,-1
 272 0 l 1,4,-1
 272 1377 l 1,5,-1
 1089 1377 l 1,0,-1
EndSplineSet
Validated: 1
Position2: "'cpsp' Capital Spacing lookup 0 subtable" dx=0 dy=0 dh=0 dv=0
EndChar

StartChar: uni0490
Encoding: 1168 1168 287
Width: 1200
GlyphClass: 2
Flags: W
AnchorPoint: "Anchor-1" 359 0 basechar 0
AnchorPoint: "Anchor-0" 697 1377 basechar 0
LayerCount: 2
Fore
SplineSet
1089 1669 m 1,0,-1
 1089 1377 l 1,1,-1
 919 1357 l 1,2,-1
 919 1669 l 1,3,-1
 1089 1669 l 1,0,-1
1089 1377 m 1,4,-1
 1071 1225 l 1,5,-1
 445 1225 l 1,6,-1
 445 0 l 1,7,-1
 272 0 l 1,8,-1
 272 1377 l 1,9,-1
 1089 1377 l 1,4,-1
EndSplineSet
Validated: 5
Position2: "'cpsp' Capital Spacing lookup 0 subtable" dx=0 dy=0 dh=0 dv=0
EndChar

StartChar: uni0414
Encoding: 1044 1044 288
Width: 1200
GlyphClass: 2
Flags: W
AnchorPoint: "Anchor-1" 600 -399 basechar 0
AnchorPoint: "Anchor-0" 600 1377 basechar 0
LayerCount: 2
Fore
SplineSet
1027 1377 m 1,0,-1
 1027 145 l 1,1,-1
 958 0 l 1,2,-1
 171 0 l 1,3,-1
 85 145 l 1,4,5
 127 186 127 186 152.5 240 c 128,-1,6
 178 294 178 294 197 383 c 128,-1,7
 216 472 216 472 235.5 616.5 c 128,-1,8
 255 761 255 761 285 981 c 2,9,-1
 337 1377 l 1,10,-1
 1027 1377 l 1,0,-1
851 1230 m 1,11,-1
 489 1230 l 1,12,-1
 459 969 l 2,13,14
 435 761 435 761 416.5 621 c 128,-1,15
 398 481 398 481 377.5 390.5 c 128,-1,16
 357 300 357 300 328 243.5 c 128,-1,17
 299 187 299 187 253 145 c 1,18,-1
 851 145 l 1,19,-1
 851 1230 l 1,11,-1
1129 145 m 1,20,-1
 1129 -294 l 1,21,-1
 991 -294 l 1,22,-1
 962 0 l 1,23,-1
 919 0 l 1,24,-1
 931 145 l 1,25,-1
 1129 145 l 1,20,-1
0 145 m 1,26,-1
 198 145 l 1,27,-1
 211 0 l 1,28,-1
 167 0 l 1,29,-1
 138 -294 l 1,30,-1
 0 -294 l 1,31,-1
 0 145 l 1,26,-1
EndSplineSet
Validated: 5
Position2: "'cpsp' Capital Spacing lookup 0 subtable" dx=0 dy=0 dh=0 dv=0
EndChar

StartChar: uni0416
Encoding: 1046 1046 292
Width: 1200
GlyphClass: 2
Flags: W
AnchorPoint: "Anchor-1" 600 0 basechar 0
AnchorPoint: "Anchor-0" 600 1377 basechar 0
LayerCount: 2
Fore
SplineSet
523 653 m 1,0,-1
 399 653 l 1,1,-1
 192 0 l 1,2,-1
 24 0 l 1,3,-1
 269 729 l 1,4,-1
 53 1377 l 1,5,-1
 220 1377 l 1,6,-1
 401 795 l 1,7,-1
 523 795 l 1,8,-1
 523 1377 l 1,9,-1
 677 1377 l 1,10,-1
 677 795 l 1,11,-1
 799 795 l 1,12,-1
 982 1377 l 1,13,-1
 1147 1377 l 1,14,-1
 931 729 l 1,15,-1
 1176 0 l 1,16,-1
 1004 0 l 1,17,-1
 799 653 l 1,18,-1
 677 653 l 1,19,-1
 677 0 l 1,20,-1
 523 0 l 1,21,-1
 523 653 l 1,0,-1
EndSplineSet
Validated: 1
Position2: "'cpsp' Capital Spacing lookup 0 subtable" dx=0 dy=0 dh=0 dv=0
EndChar

StartChar: uni0417
Encoding: 1047 1047 293
Width: 1200
GlyphClass: 2
Flags: W
AnchorPoint: "Anchor-1" 587 0 basechar 0
AnchorPoint: "Anchor-0" 596 1377 basechar 0
LayerCount: 2
Fore
SplineSet
561 1399 m 0,0,1
 708 1399 708 1399 814 1354 c 128,-1,2
 920 1309 920 1309 977.5 1228 c 128,-1,3
 1035 1147 1035 1147 1035 1041 c 0,4,5
 1035 956 1035 956 996 894.5 c 128,-1,6
 957 833 957 833 892.5 796.5 c 128,-1,7
 828 760 828 760 750 749 c 1,8,9
 836 742 836 742 911.5 701.5 c 128,-1,10
 987 661 987 661 1034 588.5 c 128,-1,11
 1081 516 1081 516 1081 409 c 0,12,13
 1081 286 1081 286 1017.5 188 c 128,-1,14
 954 90 954 90 836.5 33.5 c 128,-1,15
 719 -23 719 -23 555 -23 c 0,16,17
 409 -23 409 -23 284.5 28 c 128,-1,18
 160 79 160 79 70 173 c 1,19,-1
 177 269 l 1,20,21
 258 199 258 199 352 161 c 128,-1,22
 446 123 446 123 557 123 c 0,23,24
 718 123 718 123 806.5 198.5 c 128,-1,25
 895 274 895 274 895 403 c 0,26,27
 895 496 895 496 852.5 553.5 c 128,-1,28
 810 611 810 611 737.5 638 c 128,-1,29
 665 665 665 665 573 665 c 2,30,-1
 329 665 l 1,31,-1
 349 812 l 1,32,-1
 559 812 l 2,33,34
 636 812 636 812 704 835.5 c 128,-1,35
 772 859 772 859 814.5 909 c 128,-1,36
 857 959 857 959 857 1038 c 0,37,38
 857 1112 857 1112 817.5 1161 c 128,-1,39
 778 1210 778 1210 711 1234 c 128,-1,40
 644 1258 644 1258 559 1258 c 0,41,42
 444 1258 444 1258 358 1222.5 c 128,-1,43
 272 1187 272 1187 195 1125 c 1,44,-1
 97 1229 l 1,45,46
 199 1314 199 1314 313.5 1356.5 c 128,-1,47
 428 1399 428 1399 561 1399 c 0,0,1
EndSplineSet
Validated: 1
Position2: "'cpsp' Capital Spacing lookup 0 subtable" dx=0 dy=0 dh=0 dv=0
EndChar

StartChar: uni0418
Encoding: 1048 1048 294
Width: 1200
GlyphClass: 2
Flags: W
AnchorPoint: "Anchor-1" 600 0 basechar 0
AnchorPoint: "Anchor-0" 600 1377 basechar 0
LayerCount: 2
Fore
SplineSet
167 0 m 1,0,-1
 167 1377 l 1,1,-1
 339 1377 l 1,2,-1
 339 681 l 2,3,4
 339 559 339 559 336 469 c 128,-1,5
 333 379 333 379 326 304.5 c 128,-1,6
 319 230 319 230 310 153 c 1,7,-1
 810 1377 l 1,8,-1
 1033 1377 l 1,9,-1
 1033 0 l 1,10,-1
 861 0 l 1,11,-1
 861 697 l 2,12,13
 861 855 861 855 870.5 987 c 128,-1,14
 880 1119 880 1119 891 1213 c 1,15,-1
 393 0 l 1,16,-1
 167 0 l 1,0,-1
EndSplineSet
Validated: 1
Position2: "'cpsp' Capital Spacing lookup 0 subtable" dx=0 dy=0 dh=0 dv=0
EndChar

StartChar: uni041A
Encoding: 1050 1050 298
Width: 1200
GlyphClass: 2
Flags: W
AnchorPoint: "Anchor-1" 600 0 basechar 0
AnchorPoint: "Anchor-0" 639 1377 basechar 0
LayerCount: 2
Fore
SplineSet
522 651 m 1,0,-1
 363 651 l 1,1,-1
 363 0 l 1,2,-1
 189 0 l 1,3,-1
 189 1377 l 1,4,-1
 363 1377 l 1,5,-1
 363 797 l 1,6,-1
 525 797 l 1,7,-1
 947 1377 l 1,8,-1
 1135 1377 l 1,9,-1
 671 729 l 1,10,-1
 1173 0 l 1,11,-1
 963 0 l 1,12,-1
 522 651 l 1,0,-1
EndSplineSet
Validated: 1
Position2: "'cpsp' Capital Spacing lookup 0 subtable" dx=0 dy=0 dh=0 dv=0
EndChar

StartChar: uni041B
Encoding: 1051 1051 300
Width: 1200
GlyphClass: 2
Flags: W
AnchorPoint: "Anchor-1" 600 0 basechar 0
AnchorPoint: "Anchor-0" 600 1377 basechar 0
LayerCount: 2
Fore
SplineSet
1033 1377 m 1,0,-1
 1033 0 l 1,1,-1
 860 0 l 1,2,-1
 860 1228 l 1,3,-1
 489 1228 l 1,4,-1
 441 820 l 2,5,6
 417 629 417 629 393 498.5 c 128,-1,7
 369 368 369 368 341 283.5 c 128,-1,8
 313 199 313 199 279 144.5 c 128,-1,9
 245 90 245 90 202.5 52.5 c 128,-1,10
 160 15 160 15 106 -22 c 1,11,-1
 30 107 l 1,12,13
 64 135 64 135 94 169 c 128,-1,14
 124 203 124 203 152 267.5 c 128,-1,15
 180 332 180 332 207 452 c 128,-1,16
 234 572 234 572 260 771 c 2,17,-1
 338 1377 l 1,18,-1
 1033 1377 l 1,0,-1
EndSplineSet
Validated: 1
Position2: "'cpsp' Capital Spacing lookup 0 subtable" dx=0 dy=0 dh=0 dv=0
EndChar

StartChar: uni041F
Encoding: 1055 1055 304
Width: 1200
GlyphClass: 2
Flags: W
AnchorPoint: "Anchor-1" 600 0 basechar 0
AnchorPoint: "Anchor-0" 600 1377 basechar 0
LayerCount: 2
Fore
SplineSet
860 0 m 1,0,-1
 860 1226 l 1,1,-1
 340 1226 l 1,2,-1
 340 0 l 1,3,-1
 167 0 l 1,4,-1
 167 1377 l 1,5,-1
 1033 1377 l 1,6,-1
 1033 0 l 1,7,-1
 860 0 l 1,0,-1
EndSplineSet
Validated: 1
Position2: "'cpsp' Capital Spacing lookup 0 subtable" dx=0 dy=0 dh=0 dv=0
EndChar

StartChar: uni0423
Encoding: 1059 1059 308
Width: 1200
GlyphClass: 2
Flags: W
AnchorPoint: "Anchor-1" 600 0 basechar 0
AnchorPoint: "Anchor-0" 620 1377 basechar 0
LayerCount: 2
Fore
SplineSet
1160 1377 m 1,0,-1
 739 360 l 2,1,2
 703 274 703 274 661.5 208.5 c 128,-1,3
 620 143 620 143 564 96.5 c 128,-1,4
 508 50 508 50 430 20.5 c 128,-1,5
 352 -9 352 -9 243 -23 c 1,6,-1
 217 116 l 1,7,8
 321 131 321 131 386 159 c 128,-1,9
 451 187 451 187 494 239.5 c 128,-1,10
 537 292 537 292 576 379 c 1,11,-1
 507 379 l 1,12,-1
 53 1377 l 1,13,-1
 233 1377 l 1,14,-1
 627 491 l 1,15,-1
 985 1377 l 1,16,-1
 1160 1377 l 1,0,-1
EndSplineSet
Validated: 1
Position2: "'cpsp' Capital Spacing lookup 0 subtable" dx=0 dy=0 dh=0 dv=0
EndChar

StartChar: uni0424
Encoding: 1060 1060 310
Width: 1200
GlyphClass: 2
Flags: W
AnchorPoint: "Anchor-1" 600 0 basechar 0
AnchorPoint: "Anchor-0" 600 1377 basechar 0
LayerCount: 2
Fore
SplineSet
685 1435 m 1,0,-1
 685 1319 l 1,1,2
 934 1301 934 1301 1054 1145 c 128,-1,3
 1174 989 1174 989 1174 693 c 0,4,5
 1174 388 1174 388 1047 231.5 c 128,-1,6
 920 75 920 75 685 63 c 1,7,-1
 685 -58 l 1,8,-1
 515 -58 l 1,9,-1
 515 63 l 1,10,11
 279 72 279 72 152.5 229 c 128,-1,12
 26 386 26 386 26 693 c 0,13,14
 26 989 26 989 146 1145 c 128,-1,15
 266 1301 266 1301 515 1319 c 1,16,-1
 515 1435 l 1,17,-1
 685 1435 l 1,0,-1
517 1190 m 1,18,19
 357 1185 357 1185 279.5 1073 c 128,-1,20
 202 961 202 961 202 693 c 0,21,22
 202 440 202 440 276.5 322.5 c 128,-1,23
 351 205 351 205 517 191 c 1,24,-1
 517 1190 l 1,18,19
683 1190 m 1,25,-1
 683 191 l 1,26,27
 849 205 849 205 923.5 322.5 c 128,-1,28
 998 440 998 440 998 693 c 0,29,30
 998 961 998 961 921 1073 c 128,-1,31
 844 1185 844 1185 683 1190 c 1,25,-1
EndSplineSet
Validated: 1
Position2: "'cpsp' Capital Spacing lookup 0 subtable" dx=0 dy=0 dh=0 dv=0
EndChar

StartChar: uni0427
Encoding: 1063 1063 312
Width: 1200
GlyphClass: 2
Flags: W
AnchorPoint: "Anchor-1" 600 0 basechar 0
AnchorPoint: "Anchor-0" 579 1377 basechar 0
LayerCount: 2
Fore
SplineSet
275 1377 m 1,0,-1
 275 860 l 2,1,2
 275 722 275 722 345.5 656.5 c 128,-1,3
 416 591 416 591 545 591 c 0,4,5
 665 591 665 591 745.5 632.5 c 128,-1,6
 826 674 826 674 878 730 c 1,7,-1
 899 593 l 1,8,9
 831 539 831 539 771 505 c 128,-1,10
 711 471 711 471 647.5 455 c 128,-1,11
 584 439 584 439 503 439 c 0,12,13
 382 439 382 439 291.5 489.5 c 128,-1,14
 201 540 201 540 151 631 c 128,-1,15
 101 722 101 722 101 845 c 2,16,-1
 101 1377 l 1,17,-1
 275 1377 l 1,0,-1
1033 1377 m 1,18,-1
 1033 0 l 1,19,-1
 860 0 l 1,20,-1
 860 1377 l 1,21,-1
 1033 1377 l 1,18,-1
EndSplineSet
Validated: 5
Position2: "'cpsp' Capital Spacing lookup 0 subtable" dx=0 dy=0 dh=0 dv=0
EndChar

StartChar: uni0428
Encoding: 1064 1064 314
Width: 1200
GlyphClass: 2
Flags: W
AnchorPoint: "Anchor-1" 600 0 basechar 0
AnchorPoint: "Anchor-0" 600 1377 basechar 0
LayerCount: 2
Fore
SplineSet
1107 1377 m 1,0,-1
 1107 0 l 1,1,-1
 93 0 l 1,2,-1
 93 1377 l 1,3,-1
 256 1377 l 1,4,-1
 256 145 l 1,5,-1
 522 145 l 1,6,-1
 522 1377 l 1,7,-1
 678 1377 l 1,8,-1
 678 145 l 1,9,-1
 944 145 l 1,10,-1
 944 1377 l 1,11,-1
 1107 1377 l 1,0,-1
EndSplineSet
Validated: 1
Position2: "'cpsp' Capital Spacing lookup 0 subtable" dx=0 dy=0 dh=0 dv=0
EndChar

StartChar: uni042C
Encoding: 1068 1068 317
Width: 1200
GlyphClass: 2
Flags: W
AnchorPoint: "Anchor-1" 600 0 basechar 0
AnchorPoint: "Anchor-0" 600 1377 basechar 0
LayerCount: 2
Fore
SplineSet
362 1377 m 1,0,-1
 362 867 l 1,1,-1
 569 867 l 2,2,3
 818 867 818 867 960.5 766.5 c 128,-1,4
 1103 666 1103 666 1103 443 c 0,5,6
 1103 283 1103 283 1034.5 185.5 c 128,-1,7
 966 88 966 88 846 44 c 128,-1,8
 726 0 726 0 571 0 c 2,9,-1
 189 0 l 1,10,-1
 189 1377 l 1,11,-1
 362 1377 l 1,0,-1
593 729 m 2,12,-1
 362 729 l 1,13,-1
 362 141 l 1,14,-1
 592 141 l 2,15,16
 684 141 684 141 757.5 165.5 c 128,-1,17
 831 190 831 190 874 255 c 128,-1,18
 917 320 917 320 917 441 c 0,19,20
 917 548 917 548 874.5 611 c 128,-1,21
 832 674 832 674 759.5 701.5 c 128,-1,22
 687 729 687 729 593 729 c 2,12,-1
EndSplineSet
Validated: 1
Position2: "'cpsp' Capital Spacing lookup 0 subtable" dx=0 dy=0 dh=0 dv=0
EndChar

StartChar: uni042A
Encoding: 1066 1066 318
Width: 1200
Flags: W
LayerCount: 2
Fore
SplineSet
418 1377 m 1,0,-1
 418 867 l 1,1,-1
 630 867 l 2,2,3
 878 867 878 867 1020.5 766.5 c 128,-1,4
 1163 666 1163 666 1163 443 c 0,5,6
 1163 283 1163 283 1095 185.5 c 128,-1,7
 1027 88 1027 88 906.5 44 c 128,-1,8
 786 0 786 0 631 0 c 2,9,-1
 243 0 l 1,10,-1
 243 1225 l 1,11,-1
 1 1225 l 1,12,-1
 1 1377 l 1,13,-1
 418 1377 l 1,0,-1
658 728 m 2,14,-1
 418 728 l 1,15,-1
 418 142 l 1,16,-1
 661 142 l 2,17,18
 753 142 753 142 825 166 c 128,-1,19
 897 190 897 190 939 255 c 128,-1,20
 981 320 981 320 981 441 c 0,21,22
 981 548 981 548 939 610.5 c 128,-1,23
 897 673 897 673 824 700.5 c 128,-1,24
 751 728 751 728 658 728 c 2,14,-1
EndSplineSet
Validated: 1
Position2: "'cpsp' Capital Spacing lookup 0 subtable" dx=0 dy=0 dh=0 dv=0
EndChar

StartChar: uni042B
Encoding: 1067 1067 319
Width: 1200
GlyphClass: 2
Flags: W
AnchorPoint: "Anchor-1" 600 0 basechar 0
AnchorPoint: "Anchor-0" 600 1377 basechar 0
LayerCount: 2
Fore
SplineSet
238 1377 m 1,0,-1
 238 865 l 1,1,-1
 364 865 l 2,2,3
 615 865 615 865 738 756 c 128,-1,4
 861 647 861 647 861 443 c 0,5,6
 861 219 861 219 732 109.5 c 128,-1,7
 603 0 603 0 368 0 c 2,8,-1
 62 0 l 1,9,-1
 62 1377 l 1,10,-1
 238 1377 l 1,0,-1
383 733 m 2,11,-1
 238 733 l 1,12,-1
 238 139 l 1,13,-1
 385 139 l 2,14,15
 526 139 526 139 601.5 207.5 c 128,-1,16
 677 276 677 276 677 441 c 0,17,18
 677 733 677 733 383 733 c 2,11,-1
1138 1377 m 1,19,-1
 1138 0 l 1,20,-1
 962 0 l 1,21,-1
 962 1377 l 1,22,-1
 1138 1377 l 1,19,-1
EndSplineSet
Validated: 1
Position2: "'cpsp' Capital Spacing lookup 0 subtable" dx=0 dy=0 dh=0 dv=0
EndChar

StartChar: uni0409
Encoding: 1033 1033 320
Width: 1200
GlyphClass: 2
Flags: W
AnchorPoint: "Anchor-1" 600 0 basechar 0
AnchorPoint: "Anchor-0" 600 1377 basechar 0
LayerCount: 2
Fore
SplineSet
710 1377 m 1,0,-1
 710 867 l 1,1,2
 955 867 955 867 1077.5 765 c 128,-1,3
 1200 663 1200 663 1200 443 c 0,4,5
 1200 205 1200 205 1072.5 102.5 c 128,-1,6
 945 0 945 0 725 0 c 2,7,-1
 539 0 l 1,8,-1
 539 1234 l 1,9,-1
 351 1234 l 1,10,-1
 305 621 l 2,11,12
 290 438 290 438 271.5 325.5 c 128,-1,13
 253 213 253 213 228 149.5 c 128,-1,14
 203 86 203 86 170 49 c 128,-1,15
 137 12 137 12 93 -22 c 1,16,-1
 3 92 l 1,17,18
 26 117 26 117 45.5 149.5 c 128,-1,19
 65 182 65 182 81.5 237.5 c 128,-1,20
 98 293 98 293 112 386 c 128,-1,21
 126 479 126 479 138 626 c 2,22,-1
 198 1377 l 1,23,-1
 710 1377 l 1,0,-1
741 732 m 2,24,-1
 710 732 l 1,25,-1
 710 140 l 1,26,-1
 740 140 l 2,27,28
 829 140 829 140 891.5 165 c 128,-1,29
 954 190 954 190 986.5 255 c 128,-1,30
 1019 320 1019 320 1019 441 c 0,31,32
 1019 601 1019 601 948.5 666.5 c 128,-1,33
 878 732 878 732 741 732 c 2,24,-1
EndSplineSet
Validated: 1
Position2: "'cpsp' Capital Spacing lookup 0 subtable" dx=0 dy=0 dh=0 dv=0
EndChar

StartChar: uni040A
Encoding: 1034 1034 321
Width: 1200
GlyphClass: 2
Flags: W
AnchorPoint: "Anchor-1" 600 0 basechar 0
AnchorPoint: "Anchor-0" 600 1377 basechar 0
LayerCount: 2
Fore
SplineSet
709 1377 m 1,0,-1
 709 827 l 1,1,2
 956 828 956 828 1078 731.5 c 128,-1,3
 1200 635 1200 635 1200 425 c 0,4,5
 1200 269 1200 269 1142 175.5 c 128,-1,6
 1084 82 1084 82 978 41 c 128,-1,7
 872 0 872 0 727 0 c 2,8,-1
 538 0 l 1,9,-1
 538 698 l 1,10,-1
 253 698 l 1,11,-1
 253 0 l 1,12,-1
 83 0 l 1,13,-1
 83 1377 l 1,14,-1
 253 1377 l 1,15,-1
 253 827 l 1,16,-1
 538 827 l 1,17,-1
 538 1377 l 1,18,-1
 709 1377 l 1,0,-1
741 697 m 2,19,-1
 709 697 l 1,20,-1
 709 137 l 1,21,-1
 741 137 l 2,22,23
 829 136 829 136 891 158 c 128,-1,24
 953 180 953 180 986 242 c 128,-1,25
 1019 304 1019 304 1019 423 c 0,26,27
 1019 578 1019 578 948.5 637.5 c 128,-1,28
 878 697 878 697 741 697 c 2,19,-1
EndSplineSet
Validated: 33
Position2: "'cpsp' Capital Spacing lookup 0 subtable" dx=0 dy=0 dh=0 dv=0
EndChar

StartChar: uni0404
Encoding: 1028 1028 323
Width: 1200
GlyphClass: 2
Flags: W
AnchorPoint: "Anchor-1" 600 0 basechar 0
AnchorPoint: "Anchor-0" 600 1377 basechar 0
LayerCount: 2
Fore
SplineSet
705 1399 m 0,0,1
 838 1399 838 1399 931 1364.5 c 128,-1,2
 1024 1330 1024 1330 1104 1266 c 1,3,-1
 1015 1159 l 1,4,5
 945 1210 945 1210 870 1234 c 128,-1,6
 795 1258 795 1258 715 1258 c 0,7,8
 611 1258 611 1258 521 1211.5 c 128,-1,9
 431 1165 431 1165 371.5 1061 c 128,-1,10
 312 957 312 957 299 780 c 1,11,-1
 907 780 l 1,12,-1
 907 635 l 1,13,-1
 295 635 l 1,14,15
 303 453 303 453 360.5 340 c 128,-1,16
 418 227 418 227 510 174.5 c 128,-1,17
 602 122 602 122 715 122 c 0,18,19
 830 122 830 122 906 159 c 128,-1,20
 982 196 982 196 1032 241 c 1,21,-1
 1124 128 l 1,22,23
 1061 70 1061 70 958.5 23.5 c 128,-1,24
 856 -23 856 -23 708 -23 c 0,25,26
 536 -23 536 -23 402 59 c 128,-1,27
 268 141 268 141 191.5 299.5 c 128,-1,28
 115 458 115 458 115 689 c 0,29,30
 115 921 115 921 196 1079 c 128,-1,31
 277 1237 277 1237 411.5 1318 c 128,-1,32
 546 1399 546 1399 705 1399 c 0,0,1
EndSplineSet
Validated: 1
Position2: "'cpsp' Capital Spacing lookup 0 subtable" dx=0 dy=0 dh=0 dv=0
EndChar

StartChar: uni042D
Encoding: 1069 1069 324
Width: 1200
GlyphClass: 2
Flags: W
AnchorPoint: "Anchor-1" 600 0 basechar 0
AnchorPoint: "Anchor-0" 579 1378 basechar 0
LayerCount: 2
Fore
SplineSet
538 1399 m 0,0,1
 787 1399 787 1399 932 1227 c 128,-1,2
 1077 1055 1077 1055 1077 707 c 0,3,4
 1077 467 1077 467 1009 304 c 128,-1,5
 941 141 941 141 816.5 59 c 128,-1,6
 692 -23 692 -23 522 -23 c 0,7,8
 386 -23 386 -23 274 25.5 c 128,-1,9
 162 74 162 74 84 153 c 1,10,-1
 189 253 l 1,11,12
 260 189 260 189 337.5 155.5 c 128,-1,13
 415 122 415 122 511 122 c 0,14,15
 692 122 692 122 789 246 c 128,-1,16
 886 370 886 370 898 635 c 1,17,-1
 292 635 l 1,18,-1
 292 781 l 1,19,-1
 898 781 l 1,20,21
 884 1042 884 1042 789 1150 c 128,-1,22
 694 1258 694 1258 530 1258 c 0,23,24
 414 1258 414 1258 336.5 1218 c 128,-1,25
 259 1178 259 1178 196 1127 c 1,26,-1
 100 1230 l 1,27,28
 178 1298 178 1298 285 1348.5 c 128,-1,29
 392 1399 392 1399 538 1399 c 0,0,1
EndSplineSet
Validated: 1
Position2: "'cpsp' Capital Spacing lookup 0 subtable" dx=0 dy=0 dh=0 dv=0
EndChar

StartChar: uni040B
Encoding: 1035 1035 328
Width: 1200
Flags: W
LayerCount: 2
Fore
SplineSet
826 1377 m 1,0,-1
 808 1233 l 1,1,-1
 487 1233 l 1,2,-1
 487 780 l 1,3,4
 542 833 542 833 612.5 866 c 128,-1,5
 683 899 683 899 777 899 c 0,6,7
 958 899 958 899 1045.5 795.5 c 128,-1,8
 1133 692 1133 692 1133 493 c 2,9,-1
 1133 0 l 1,10,-1
 959 0 l 1,11,-1
 959 481 l 2,12,13
 959 624 959 624 909 686.5 c 128,-1,14
 859 749 859 749 738 749 c 0,15,16
 645 749 645 749 585.5 713.5 c 128,-1,17
 526 678 526 678 487 642 c 1,18,-1
 487 0 l 1,19,-1
 313 0 l 1,20,-1
 313 1233 l 1,21,-1
 -9 1233 l 1,22,-1
 -9 1377 l 1,23,-1
 826 1377 l 1,0,-1
EndSplineSet
Validated: 1
Position2: "'cpsp' Capital Spacing lookup 0 subtable" dx=0 dy=0 dh=0 dv=0
EndChar

StartChar: uni042E
Encoding: 1070 1070 329
Width: 1200
GlyphClass: 2
Flags: W
AnchorPoint: "Anchor-1" 600 0 basechar 0
AnchorPoint: "Anchor-0" 600 1377 basechar 0
LayerCount: 2
Fore
SplineSet
777 1399 m 0,0,1
 993 1399 993 1399 1075.5 1218.5 c 128,-1,2
 1158 1038 1158 1038 1158 687 c 0,3,4
 1158 344 1158 344 1069.5 160.5 c 128,-1,5
 981 -23 981 -23 777 -23 c 0,6,7
 634 -23 634 -23 551.5 60.5 c 128,-1,8
 469 144 469 144 433.5 293.5 c 128,-1,9
 398 443 398 443 395 642 c 1,10,-1
 261 642 l 1,11,-1
 261 0 l 1,12,-1
 93 0 l 1,13,-1
 93 1377 l 1,14,-1
 261 1377 l 1,15,-1
 261 785 l 1,16,-1
 397 785 l 1,17,18
 409 1082 409 1082 495 1240.5 c 128,-1,19
 581 1399 581 1399 777 1399 c 0,0,1
777 1257 m 0,20,21
 703 1257 703 1257 658 1204 c 128,-1,22
 613 1151 613 1151 593 1026.5 c 128,-1,23
 573 902 573 902 573 689 c 256,24,25
 573 476 573 476 593.5 351 c 128,-1,26
 614 226 614 226 658.5 172.5 c 128,-1,27
 703 119 703 119 777 119 c 0,28,29
 847 119 847 119 891.5 172 c 128,-1,30
 936 225 936 225 958 349.5 c 128,-1,31
 980 474 980 474 980 687 c 0,32,33
 980 901 980 901 958.5 1025.5 c 128,-1,34
 937 1150 937 1150 892 1203.5 c 128,-1,35
 847 1257 847 1257 777 1257 c 0,20,21
EndSplineSet
Validated: 1
Position2: "'cpsp' Capital Spacing lookup 0 subtable" dx=0 dy=0 dh=0 dv=0
EndChar

StartChar: uni042F
Encoding: 1071 1071 330
Width: 1200
GlyphClass: 2
Flags: W
AnchorPoint: "Anchor-1" 600 0 basechar 0
AnchorPoint: "Anchor-0" 600 1377 basechar 0
LayerCount: 2
Fore
SplineSet
1033 1377 m 1,0,-1
 1033 0 l 1,1,-1
 860 0 l 1,2,-1
 860 553 l 1,3,-1
 553 553 l 1,4,-1
 261 0 l 1,5,-1
 67 0 l 1,6,-1
 391 593 l 1,7,8
 271 648 271 648 210.5 745.5 c 128,-1,9
 150 843 150 843 150 969 c 0,10,11
 150 1162 150 1162 283 1269.5 c 128,-1,12
 416 1377 416 1377 671 1377 c 2,13,-1
 1033 1377 l 1,0,-1
860 1239 m 1,14,-1
 650 1239 l 2,15,16
 491 1239 491 1239 413.5 1174 c 128,-1,17
 336 1109 336 1109 336 969 c 256,18,19
 336 829 336 829 407 762 c 128,-1,20
 478 695 478 695 613 695 c 2,21,-1
 860 695 l 1,22,-1
 860 1239 l 1,14,-1
EndSplineSet
Validated: 1
Position2: "'cpsp' Capital Spacing lookup 0 subtable" dx=0 dy=0 dh=0 dv=0
EndChar

StartChar: uni0402
Encoding: 1026 1026 331
Width: 1200
GlyphClass: 2
Flags: W
AnchorPoint: "Anchor-1" 600 -399 basechar 0
AnchorPoint: "Anchor-0" 600 1377 basechar 0
LayerCount: 2
Fore
SplineSet
487 1233 m 1,0,-1
 487 780 l 1,1,2
 542 829 542 829 614.5 864 c 128,-1,3
 687 899 687 899 777 899 c 0,4,5
 958 899 958 899 1045.5 795.5 c 128,-1,6
 1133 692 1133 692 1133 493 c 2,7,-1
 1133 191 l 2,8,9
 1133 52 1133 52 1092 -36.5 c 128,-1,10
 1051 -125 1051 -125 973.5 -179.5 c 128,-1,11
 896 -234 896 -234 787 -271 c 1,12,-1
 743 -131 l 1,13,14
 831 -96 831 -96 877.5 -56 c 128,-1,15
 924 -16 924 -16 941.5 42.5 c 128,-1,16
 959 101 959 101 959 191 c 2,17,-1
 959 481 l 2,18,19
 959 624 959 624 909 686.5 c 128,-1,20
 859 749 859 749 738 749 c 0,21,22
 645 749 645 749 585.5 713.5 c 128,-1,23
 526 678 526 678 487 642 c 1,24,-1
 487 0 l 1,25,-1
 313 0 l 1,26,-1
 313 1233 l 1,27,-1
 -9 1233 l 1,28,-1
 -9 1377 l 1,29,-1
 826 1377 l 1,30,-1
 808 1233 l 1,31,-1
 487 1233 l 1,0,-1
EndSplineSet
Validated: 1
Position2: "'cpsp' Capital Spacing lookup 0 subtable" dx=0 dy=0 dh=0 dv=0
EndChar

StartChar: uni0460
Encoding: 1120 1120 332
Width: 1200
Flags: W
LayerCount: 2
Fore
SplineSet
1026 1377 m 1,0,1
 1051 1308 1051 1308 1085 1199.5 c 128,-1,2
 1119 1091 1119 1091 1144 941.5 c 128,-1,3
 1169 792 1169 792 1169 597 c 0,4,5
 1169 369 1169 369 1128 233 c 128,-1,6
 1087 97 1087 97 1015 37.5 c 128,-1,7
 943 -22 943 -22 847 -22 c 256,8,9
 751 -22 751 -22 692 31.5 c 128,-1,10
 633 85 633 85 603 186 c 1,11,12
 571 86 571 86 515 32 c 128,-1,13
 459 -22 459 -22 359 -22 c 0,14,15
 300 -22 300 -22 242 9.5 c 128,-1,16
 184 41 184 41 137 112.5 c 128,-1,17
 90 184 90 184 61.5 303 c 128,-1,18
 33 422 33 422 33 597 c 0,19,20
 33 792 33 792 58.5 941.5 c 128,-1,21
 84 1091 84 1091 118 1199.5 c 128,-1,22
 152 1308 152 1308 177 1377 c 1,23,-1
 345 1377 l 1,24,25
 302 1265 302 1265 270 1149 c 128,-1,26
 238 1033 238 1033 220.5 899.5 c 128,-1,27
 203 766 203 766 203 603 c 0,28,29
 203 421 203 421 227 316 c 128,-1,30
 251 211 251 211 293 166 c 128,-1,31
 335 121 335 121 389 121 c 0,32,33
 440 121 440 121 478 168 c 128,-1,34
 516 215 516 215 516 338 c 2,35,-1
 516 796 l 1,36,-1
 686 796 l 1,37,-1
 686 340 l 2,38,39
 686 221 686 221 728 171 c 128,-1,40
 770 121 770 121 827 121 c 0,41,42
 862 121 862 121 893 139.5 c 128,-1,43
 924 158 924 158 948 208.5 c 128,-1,44
 972 259 972 259 985.5 353.5 c 128,-1,45
 999 448 999 448 999 599 c 0,46,47
 999 764 999 764 980.5 898.5 c 128,-1,48
 962 1033 962 1033 930 1149.5 c 128,-1,49
 898 1266 898 1266 858 1377 c 1,50,-1
 1026 1377 l 1,0,1
EndSplineSet
Validated: 1
Position2: "'cpsp' Capital Spacing lookup 0 subtable" dx=0 dy=0 dh=0 dv=0
EndChar

StartChar: uni0462
Encoding: 1122 1122 333
Width: 1200
GlyphClass: 2
Flags: W
AnchorPoint: "Anchor-1" 600 0 basechar 0
AnchorPoint: "Anchor-0" 600 1377 basechar 0
LayerCount: 2
Fore
SplineSet
308 0 m 1,0,-1
 308 1377 l 1,1,-1
 481 1377 l 1,2,-1
 481 141 l 1,3,-1
 621 141 l 2,4,5
 716 141 716 141 790 167 c 128,-1,6
 864 193 864 193 907 257.5 c 128,-1,7
 950 322 950 322 950 438 c 0,8,9
 950 594 950 594 863 656.5 c 128,-1,10
 776 719 776 719 629 719 c 2,11,-1
 449 719 l 1,12,-1
 449 857 l 1,13,-1
 625 857 l 2,14,15
 779 857 779 857 894 811.5 c 128,-1,16
 1009 766 1009 766 1072.5 674 c 128,-1,17
 1136 582 1136 582 1136 442 c 0,18,19
 1136 286 1136 286 1067 188.5 c 128,-1,20
 998 91 998 91 877.5 45.5 c 128,-1,21
 757 0 757 0 600 0 c 2,22,-1
 308 0 l 1,0,-1
20 1061 m 1,23,-1
 20 1190 l 1,24,-1
 308 1190 l 1,25,-1
 788 1190 l 1,26,-1
 788 1061 l 1,27,-1
 20 1061 l 1,23,-1
EndSplineSet
Validated: 5
Position2: "'cpsp' Capital Spacing lookup 0 subtable" dx=0 dy=0 dh=0 dv=0
EndChar

StartChar: uni0464
Encoding: 1124 1124 334
Width: 1200
GlyphClass: 2
Flags: W
AnchorPoint: "Anchor-1" 600 0 basechar 0
AnchorPoint: "Anchor-0" 600 1377 basechar 0
LayerCount: 2
Fore
SplineSet
255 1377 m 1,0,-1
 255 785 l 1,1,-1
 478 785 l 1,2,-1
 478 635 l 1,3,-1
 255 635 l 1,4,-1
 255 0 l 1,5,-1
 80 0 l 1,6,-1
 80 1377 l 1,7,-1
 255 1377 l 1,0,-1
1189 74 m 1,8,9
 1136 33 1136 33 1068.5 5 c 128,-1,10
 1001 -23 1001 -23 893 -23 c 0,11,12
 741 -23 741 -23 629 59 c 128,-1,13
 517 141 517 141 456 299.5 c 128,-1,14
 395 458 395 458 395 689 c 0,15,16
 395 921 395 921 458.5 1079 c 128,-1,17
 522 1237 522 1237 636.5 1318 c 128,-1,18
 751 1399 751 1399 903 1399 c 0,19,20
 998 1399 998 1399 1058.5 1378.5 c 128,-1,21
 1119 1358 1119 1358 1176 1318 c 1,22,-1
 1091 1204 l 1,23,24
 1047 1231 1047 1231 1007 1244 c 128,-1,25
 967 1257 967 1257 907 1257 c 0,26,27
 819 1257 819 1257 749.5 1211 c 128,-1,28
 680 1165 680 1165 635.5 1061 c 128,-1,29
 591 957 591 957 577 781 c 1,30,-1
 1034 781 l 1,31,-1
 1034 635 l 1,32,-1
 572 635 l 1,33,34
 581 454 581 454 623.5 341.5 c 128,-1,35
 666 229 666 229 736.5 177 c 128,-1,36
 807 125 807 125 898 125 c 0,37,38
 974 125 974 125 1021.5 145.5 c 128,-1,39
 1069 166 1069 166 1108 190 c 1,40,-1
 1189 74 l 1,8,9
EndSplineSet
Validated: 5
Position2: "'cpsp' Capital Spacing lookup 0 subtable" dx=0 dy=0 dh=0 dv=0
EndChar

StartChar: uni0466
Encoding: 1126 1126 335
Width: 1200
GlyphClass: 2
Flags: W
AnchorPoint: "Anchor-1" 600 0 basechar 0
AnchorPoint: "Anchor-0" 600 1377 basechar 0
LayerCount: 2
Fore
SplineSet
41 0 m 1,0,-1
 489 1377 l 1,1,-1
 711 1377 l 1,2,-1
 1159 0 l 1,3,-1
 973 0 l 1,4,-1
 596 1223 l 1,5,-1
 219 0 l 1,6,-1
 41 0 l 1,0,-1
513 0 m 1,7,-1
 513 623 l 1,8,-1
 677 623 l 1,9,-1
 677 0 l 1,10,-1
 513 0 l 1,7,-1
295 580 m 1,11,-1
 339 727 l 1,12,-1
 854 727 l 1,13,-1
 899 580 l 1,14,-1
 295 580 l 1,11,-1
EndSplineSet
Validated: 5
Position2: "'cpsp' Capital Spacing lookup 0 subtable" dx=0 dy=0 dh=0 dv=0
EndChar

StartChar: uni0468
Encoding: 1128 1128 336
Width: 1200
GlyphClass: 2
Flags: W
AnchorPoint: "Anchor-1" 600 0 basechar 0
AnchorPoint: "Anchor-0" 600 1377 basechar 0
LayerCount: 2
Fore
SplineSet
467 582 m 1,0,-1
 245 582 l 1,1,-1
 245 1 l 1,2,-1
 74 1 l 1,3,-1
 74 1377 l 1,4,-1
 245 1377 l 1,5,-1
 245 721 l 1,6,-1
 461 721 l 1,7,-1
 467 582 l 1,0,-1
315 0 m 1,8,-1
 647 1377 l 1,9,-1
 867 1377 l 1,10,-1
 1199 0 l 1,11,-1
 1027 0 l 1,12,-1
 753 1243 l 1,13,-1
 479 0 l 1,14,-1
 315 0 l 1,8,-1
680 0 m 1,15,-1
 680 620 l 1,16,-1
 826 620 l 1,17,-1
 826 0 l 1,18,-1
 680 0 l 1,15,-1
452 582 m 1,19,-1
 497 721 l 1,20,-1
 1011 721 l 1,21,-1
 1056 582 l 1,22,-1
 452 582 l 1,19,-1
EndSplineSet
Validated: 5
Position2: "'cpsp' Capital Spacing lookup 0 subtable" dx=0 dy=0 dh=0 dv=0
EndChar

StartChar: uni046A
Encoding: 1130 1130 337
Width: 1200
GlyphClass: 2
Flags: W
AnchorPoint: "Anchor-1" 600 0 basechar 0
AnchorPoint: "Anchor-0" 600 1377 basechar 0
LayerCount: 2
Fore
SplineSet
75 0 m 1,0,-1
 299 757 l 1,1,-1
 917 757 l 1,2,-1
 1125 0 l 1,3,-1
 963 0 l 1,4,-1
 800 622 l 1,5,-1
 686 622 l 1,6,-1
 686 0 l 1,7,-1
 517 0 l 1,8,-1
 517 622 l 1,9,-1
 403 622 l 1,10,-1
 237 0 l 1,11,-1
 75 0 l 1,0,-1
499 649 m 1,12,-1
 185 1262 l 1,13,-1
 185 1377 l 1,14,-1
 304 1377 l 1,15,-1
 607 757 l 1,16,-1
 913 1377 l 1,17,-1
 1025 1377 l 1,18,-1
 1025 1262 l 1,19,-1
 699 649 l 1,20,-1
 499 649 l 1,12,-1
250 1251 m 1,21,-1
 245 1377 l 1,22,-1
 977 1377 l 1,23,-1
 977 1251 l 1,24,-1
 250 1251 l 1,21,-1
EndSplineSet
Validated: 5
Position2: "'cpsp' Capital Spacing lookup 0 subtable" dx=0 dy=0 dh=0 dv=0
EndChar

StartChar: uni046C
Encoding: 1132 1132 338
Width: 1200
GlyphClass: 2
Flags: W
AnchorPoint: "Anchor-1" 600 0 basechar 0
AnchorPoint: "Anchor-0" 600 1377 basechar 0
LayerCount: 2
Fore
SplineSet
37 1 m 1,0,-1
 37 1377 l 1,1,-1
 208 1377 l 1,2,-1
 208 757 l 1,3,-1
 755 757 l 1,4,-1
 761 622 l 1,5,-1
 208 622 l 1,6,-1
 208 1 l 1,7,-1
 37 1 l 1,0,-1
263 0 m 1,8,-1
 479 757 l 1,9,-1
 1056 757 l 1,10,-1
 1255 0 l 1,11,-1
 1092 0 l 1,12,-1
 939 622 l 1,13,-1
 847 622 l 1,14,-1
 847 0 l 1,15,-1
 674 0 l 1,16,-1
 674 622 l 1,17,-1
 581 622 l 1,18,-1
 427 0 l 1,19,-1
 263 0 l 1,8,-1
659 649 m 1,20,-1
 381 1261 l 1,21,-1
 381 1377 l 1,22,-1
 500 1377 l 1,23,-1
 766 757 l 1,24,-1
 1035 1377 l 1,25,-1
 1148 1377 l 1,26,-1
 1148 1261 l 1,27,-1
 858 649 l 1,28,-1
 659 649 l 1,20,-1
445 1250 m 1,29,-1
 440 1377 l 1,30,-1
 1101 1377 l 1,31,-1
 1101 1250 l 1,32,-1
 445 1250 l 1,29,-1
EndSplineSet
Validated: 5
Position2: "'cpsp' Capital Spacing lookup 0 subtable" dx=0 dy=0 dh=0 dv=0
EndChar

StartChar: uni0474
Encoding: 1140 1140 342
Width: 1200
GlyphClass: 2
Flags: W
AnchorPoint: "Anchor-1" 600 0 basechar 0
AnchorPoint: "Anchor-0" 578 1377 basechar 0
LayerCount: 2
Fore
SplineSet
1131 1252 m 1,0,1
 1114 1258 1114 1258 1098.5 1262.5 c 128,-1,2
 1083 1267 1083 1267 1063 1267 c 0,3,4
 1025 1267 1025 1267 1002.5 1240.5 c 128,-1,5
 980 1214 980 1214 963 1157 c 2,6,-1
 655 0 l 1,7,-1
 465 0 l 1,8,-1
 56 1377 l 1,9,-1
 243 1377 l 1,10,-1
 558 201 l 1,11,-1
 809 1182 l 2,12,13
 839 1296 839 1296 895 1347.5 c 128,-1,14
 951 1399 951 1399 1044 1399 c 0,15,16
 1088 1399 1088 1399 1122 1389.5 c 128,-1,17
 1156 1380 1156 1380 1187 1363 c 1,18,-1
 1131 1252 l 1,0,1
EndSplineSet
Validated: 1
Position2: "'cpsp' Capital Spacing lookup 0 subtable" dx=0 dy=0 dh=0 dv=0
EndChar

StartChar: uni0478
Encoding: 1144 1144 344
Width: 1200
Flags: W
LayerCount: 2
Fore
SplineSet
329 -23 m 0,0,1
 214 -23 214 -23 146 61 c 128,-1,2
 78 145 78 145 48 303 c 128,-1,3
 18 461 18 461 18 685 c 0,4,5
 18 905 18 905 48 1065.5 c 128,-1,6
 78 1226 78 1226 146 1312.5 c 128,-1,7
 214 1399 214 1399 329 1399 c 0,8,9
 443 1399 443 1399 511 1314.5 c 128,-1,10
 579 1230 579 1230 609 1070.5 c 128,-1,11
 639 911 639 911 639 687 c 0,12,13
 639 462 639 462 609 303 c 128,-1,14
 579 144 579 144 511 60.5 c 128,-1,15
 443 -23 443 -23 329 -23 c 0,0,1
329 110 m 0,16,17
 418 110 418 110 447.5 248 c 128,-1,18
 477 386 477 386 477 687 c 0,19,20
 477 989 477 989 447.5 1128 c 128,-1,21
 418 1267 418 1267 329 1267 c 0,22,23
 239 1267 239 1267 209 1127 c 128,-1,24
 179 987 179 987 179 685 c 256,25,26
 179 383 179 383 211.5 246.5 c 128,-1,27
 244 110 244 110 329 110 c 0,16,17
699 -423 m 1,28,-1
 675 -295 l 1,29,30
 762 -269 762 -269 813.5 -202 c 128,-1,31
 865 -135 865 -135 886 0 c 1,32,-1
 815 0 l 1,33,-1
 649 1053 l 1,34,-1
 799 1053 l 1,35,-1
 921 128 l 1,36,-1
 1034 1053 l 1,37,-1
 1188 1053 l 1,38,-1
 1023 -7 l 2,39,40
 1004 -127 1004 -127 961 -210.5 c 128,-1,41
 918 -294 918 -294 852 -345.5 c 128,-1,42
 786 -397 786 -397 699 -423 c 1,28,-1
EndSplineSet
Validated: 1
Position2: "'cpsp' Capital Spacing lookup 0 subtable" dx=0 dy=0 dh=0 dv=0
EndChar

StartChar: uni0492
Encoding: 1170 1170 345
Width: 1200
GlyphClass: 2
Flags: W
AnchorPoint: "Anchor-1" 420 0 basechar 0
AnchorPoint: "Anchor-0" 758 1377 basechar 0
LayerCount: 2
Fore
SplineSet
821 866 m 1,0,-1
 821 733 l 1,1,-1
 507 733 l 1,2,-1
 132 733 l 1,3,-1
 132 866 l 1,4,-1
 333 866 l 1,5,-1
 821 866 l 1,0,-1
1150 1377 m 1,6,-1
 1131 1225 l 1,7,-1
 506 1225 l 1,8,-1
 506 0 l 1,9,-1
 333 0 l 1,10,-1
 333 1377 l 1,11,-1
 1150 1377 l 1,6,-1
EndSplineSet
Validated: 5
Position2: "'cpsp' Capital Spacing lookup 0 subtable" dx=0 dy=0 dh=0 dv=0
EndChar

StartChar: uni0494
Encoding: 1172 1172 346
Width: 1200
GlyphClass: 2
Flags: W
AnchorPoint: "Anchor-1" 600 -399 basechar 0
AnchorPoint: "Anchor-0" 600 1377 basechar 0
LayerCount: 2
Fore
SplineSet
939 1377 m 1,0,-1
 917 1233 l 1,1,-1
 343 1233 l 1,2,-1
 205 1377 l 1,3,-1
 939 1377 l 1,0,-1
706 899 m 0,4,5
 885 899 885 899 992 785.5 c 128,-1,6
 1099 672 1099 672 1099 471 c 2,7,-1
 1099 0 l 1,8,-1
 926 0 l 1,9,-1
 926 469 l 2,10,11
 926 603 926 603 863.5 675 c 128,-1,12
 801 747 801 747 677 747 c 0,13,14
 557 747 557 747 475.5 698.5 c 128,-1,15
 394 650 394 650 322 563 c 1,16,-1
 323 725 l 1,17,18
 395 808 395 808 487 853.5 c 128,-1,19
 579 899 579 899 706 899 c 0,4,5
343 1377 m 1,20,-1
 343 0 l 1,21,-1
 170 0 l 1,22,-1
 170 1377 l 1,23,-1
 343 1377 l 1,20,-1
809 -423 m 0,24,25
 731 -423 731 -423 675.5 -399.5 c 128,-1,26
 620 -376 620 -376 584 -349 c 1,27,-1
 649 -234 l 1,28,29
 685 -255 685 -255 718 -268 c 128,-1,30
 751 -281 751 -281 802 -281 c 0,31,32
 861 -281 861 -281 893.5 -244.5 c 128,-1,33
 926 -208 926 -208 926 -131 c 2,34,-1
 926 2 l 1,35,-1
 1099 2 l 1,36,-1
 1099 -121 l 2,37,38
 1099 -273 1099 -273 1019.5 -348 c 128,-1,39
 940 -423 940 -423 809 -423 c 0,24,25
EndSplineSet
Validated: 5
Position2: "'cpsp' Capital Spacing lookup 0 subtable" dx=0 dy=0 dh=0 dv=0
EndChar

StartChar: uni049C
Encoding: 1180 1180 350
Width: 1200
GlyphClass: 2
Flags: W
AnchorPoint: "Anchor-1" 600 0 basechar 0
AnchorPoint: "Anchor-0" 600 1377 basechar 0
LayerCount: 2
Fore
SplineSet
457 301 m 1,0,-1
 457 651 l 1,1,-1
 359 651 l 1,2,-1
 359 0 l 1,3,-1
 189 0 l 1,4,-1
 189 1377 l 1,5,-1
 359 1377 l 1,6,-1
 359 797 l 1,7,-1
 457 797 l 1,8,-1
 457 1139 l 1,9,-1
 564 1139 l 1,10,-1
 564 797 l 1,11,-1
 616 797 l 1,12,-1
 955 1377 l 1,13,-1
 1137 1377 l 1,14,-1
 753 729 l 1,15,-1
 1175 0 l 1,16,-1
 981 0 l 1,17,-1
 615 651 l 1,18,-1
 564 651 l 1,19,-1
 564 301 l 1,20,-1
 457 301 l 1,0,-1
EndSplineSet
Validated: 1
Position2: "'cpsp' Capital Spacing lookup 0 subtable" dx=0 dy=0 dh=0 dv=0
EndChar

StartChar: uni049E
Encoding: 1182 1182 351
Width: 1200
Flags: W
LayerCount: 2
Fore
SplineSet
74 1055 m 1,0,-1
 74 1186 l 1,1,-1
 226 1186 l 1,2,-1
 625 1186 l 1,3,-1
 625 1055 l 1,4,-1
 74 1055 l 1,0,-1
557 651 m 1,5,-1
 397 651 l 1,6,-1
 397 0 l 1,7,-1
 223 0 l 1,8,-1
 223 1377 l 1,9,-1
 397 1377 l 1,10,-1
 397 797 l 1,11,-1
 559 797 l 1,12,-1
 942 1377 l 1,13,-1
 1130 1377 l 1,14,-1
 706 729 l 1,15,-1
 1168 0 l 1,16,-1
 958 0 l 1,17,-1
 557 651 l 1,5,-1
EndSplineSet
Validated: 5
Position2: "'cpsp' Capital Spacing lookup 0 subtable" dx=0 dy=0 dh=0 dv=0
EndChar

StartChar: uni04A0
Encoding: 1184 1184 352
Width: 1200
Flags: W
LayerCount: 2
Fore
SplineSet
579 651 m 1,0,-1
 441 651 l 1,1,-1
 441 0 l 1,2,-1
 264 0 l 1,3,-1
 264 1225 l 1,4,-1
 23 1225 l 1,5,-1
 23 1377 l 1,6,-1
 441 1377 l 1,7,-1
 441 798 l 1,8,-1
 581 798 l 1,9,-1
 972 1377 l 1,10,-1
 1161 1377 l 1,11,-1
 730 729 l 1,12,-1
 1199 0 l 1,13,-1
 987 0 l 1,14,-1
 579 651 l 1,0,-1
EndSplineSet
Validated: 1
Position2: "'cpsp' Capital Spacing lookup 0 subtable" dx=0 dy=0 dh=0 dv=0
EndChar

StartChar: uni04A4
Encoding: 1188 1188 354
Width: 1200
Flags: W
LayerCount: 2
Fore
SplineSet
838 1377 m 1,0,-1
 1209 1377 l 1,1,-1
 1191 1233 l 1,2,-1
 922 1233 l 1,3,-1
 838 1377 l 1,0,-1
751 0 m 1,4,-1
 751 654 l 1,5,-1
 309 654 l 1,6,-1
 309 0 l 1,7,-1
 135 0 l 1,8,-1
 135 1377 l 1,9,-1
 309 1377 l 1,10,-1
 309 795 l 1,11,-1
 751 795 l 1,12,-1
 751 1377 l 1,13,-1
 924 1377 l 1,14,-1
 924 0 l 1,15,-1
 751 0 l 1,4,-1
EndSplineSet
Validated: 5
Position2: "'cpsp' Capital Spacing lookup 0 subtable" dx=0 dy=0 dh=0 dv=0
EndChar

StartChar: uni04A6
Encoding: 1190 1190 355
Width: 1200
GlyphClass: 2
Flags: W
AnchorPoint: "Anchor-1" 600 -399 basechar 0
AnchorPoint: "Anchor-0" 600 1377 basechar 0
LayerCount: 2
Fore
SplineSet
521 0 m 1,0,-1
 521 1222 l 1,1,-1
 229 1222 l 1,2,-1
 229 0 l 1,3,-1
 55 0 l 1,4,-1
 55 1377 l 1,5,-1
 695 1377 l 1,6,-1
 695 0 l 1,7,-1
 521 0 l 1,0,-1
898 902 m 0,8,9
 1032 902 1032 902 1109 816 c 128,-1,10
 1186 730 1186 730 1186 588 c 2,11,-1
 1186 0 l 1,12,-1
 1013 0 l 1,13,-1
 1013 591 l 2,14,15
 1013 673 1013 673 975 711 c 128,-1,16
 937 749 937 749 871 749 c 256,17,18
 805 749 805 749 745.5 712.5 c 128,-1,19
 686 676 686 676 616 594 c 1,20,-1
 623 736 l 1,21,22
 676 812 676 812 740 857 c 128,-1,23
 804 902 804 902 898 902 c 0,8,9
896 -423 m 0,24,25
 818 -423 818 -423 762.5 -399.5 c 128,-1,26
 707 -376 707 -376 671 -349 c 1,27,-1
 738 -233 l 1,28,29
 773 -254 773 -254 805.5 -267 c 128,-1,30
 838 -280 838 -280 889 -280 c 0,31,32
 948 -280 948 -280 980.5 -243.5 c 128,-1,33
 1013 -207 1013 -207 1013 -130 c 2,34,-1
 1013 2 l 1,35,-1
 1186 2 l 1,36,-1
 1186 -117 l 2,37,38
 1186 -270 1186 -270 1103 -346.5 c 128,-1,39
 1020 -423 1020 -423 896 -423 c 0,24,25
EndSplineSet
Validated: 5
Position2: "'cpsp' Capital Spacing lookup 0 subtable" dx=0 dy=0 dh=0 dv=0
EndChar

StartChar: uni04A8
Encoding: 1192 1192 357
Width: 1200
GlyphClass: 2
Flags: W
AnchorPoint: "Anchor-1" 600 -399 basechar 0
AnchorPoint: "Anchor-0" 600 1377 basechar 0
LayerCount: 2
Fore
SplineSet
627 -22 m 1,0,1
 460 -22 460 -22 334.5 59.5 c 128,-1,2
 209 141 209 141 140 300 c 128,-1,3
 71 459 71 459 71 690 c 0,4,5
 71 864 71 864 115.5 997 c 128,-1,6
 160 1130 160 1130 236 1219 c 128,-1,7
 312 1308 312 1308 408.5 1353.5 c 128,-1,8
 505 1399 505 1399 611 1399 c 0,9,10
 734 1399 734 1399 816 1365.5 c 128,-1,11
 898 1332 898 1332 979 1267 c 1,12,-1
 887 1151 l 1,13,14
 821 1204 821 1204 755 1228.5 c 128,-1,15
 689 1253 689 1253 615 1253 c 0,16,17
 548 1253 548 1253 484.5 1224.5 c 128,-1,18
 421 1196 421 1196 369.5 1130.5 c 128,-1,19
 318 1065 318 1065 288.5 957 c 128,-1,20
 259 849 259 849 259 690 c 0,21,22
 259 490 259 490 306 366 c 128,-1,23
 353 242 353 242 438 185.5 c 128,-1,24
 523 129 523 129 635 129 c 1,25,-1
 627 -22 l 1,0,1
943 -237 m 1,26,27
 865 -135 865 -135 789 -41.5 c 128,-1,28
 713 52 713 52 652 142 c 128,-1,29
 591 232 591 232 554 322 c 128,-1,30
 517 412 517 412 517 508 c 0,31,32
 517 608 517 608 558.5 688 c 128,-1,33
 600 768 600 768 673.5 815 c 128,-1,34
 747 862 747 862 841 862 c 0,35,36
 946 862 946 862 1018 818 c 128,-1,37
 1090 774 1090 774 1127 696.5 c 128,-1,38
 1164 619 1164 619 1164 519 c 0,39,40
 1164 422 1164 422 1129.5 326 c 128,-1,41
 1095 230 1095 230 1027.5 151 c 128,-1,42
 960 72 960 72 859.5 25 c 128,-1,43
 759 -22 759 -22 627 -22 c 1,44,-1
 635 129 l 1,45,46
 806 129 806 129 895.5 232.5 c 128,-1,47
 985 336 985 336 985 520 c 0,48,49
 985 721 985 721 842 721 c 0,50,51
 766 721 766 721 728 664 c 128,-1,52
 690 607 690 607 690 509 c 0,53,54
 690 413 690 413 720.5 332.5 c 128,-1,55
 751 252 751 252 804 177.5 c 128,-1,56
 857 103 857 103 923 23.5 c 128,-1,57
 989 -56 989 -56 1058 -151 c 1,58,-1
 943 -237 l 1,26,27
EndSplineSet
Validated: 5
Position2: "'cpsp' Capital Spacing lookup 0 subtable" dx=0 dy=0 dh=0 dv=0
EndChar

StartChar: Ustraitstrokecy
Encoding: 1200 1200 361
Width: 1200
GlyphClass: 2
Flags: W
AnchorPoint: "Anchor-1" 600 0 basechar 0
AnchorPoint: "Anchor-0" 607 1377 basechar 0
LayerCount: 2
Fore
SplineSet
945 637 m 1,0,-1
 945 503 l 1,1,-1
 688 503 l 1,2,-1
 255 503 l 1,3,-1
 255 637 l 1,4,-1
 451 637 l 1,5,-1
 945 637 l 1,0,-1
688 531 m 1,6,-1
 688 0 l 1,7,-1
 512 0 l 1,8,-1
 512 529 l 1,9,-1
 47 1377 l 1,10,-1
 239 1377 l 1,11,-1
 604 687 l 1,12,-1
 973 1377 l 1,13,-1
 1153 1377 l 1,14,-1
 688 531 l 1,6,-1
EndSplineSet
Validated: 5
Position2: "'cpsp' Capital Spacing lookup 0 subtable" dx=0 dy=0 dh=0 dv=0
EndChar

StartChar: uni04B4
Encoding: 1204 1204 363
Width: 1200
GlyphClass: 2
Flags: W
AnchorPoint: "Anchor-1" 600 -399 basechar 0
AnchorPoint: "Anchor-0" 600 1377 basechar 0
LayerCount: 2
Fore
SplineSet
692 1377 m 1,0,-1
 673 1235 l 1,1,-1
 433 1235 l 1,2,-1
 256 1235 l 1,3,-1
 0 1235 l 1,4,-1
 0 1377 l 1,5,-1
 692 1377 l 1,0,-1
1127 145 m 1,6,-1
 1127 -294 l 1,7,-1
 985 -294 l 1,8,-1
 956 0 l 1,9,-1
 913 0 l 1,10,-1
 927 145 l 1,11,-1
 1127 145 l 1,6,-1
256 0 m 1,12,-1
 256 1317 l 1,13,-1
 434 1317 l 1,14,-1
 434 144 l 1,15,-1
 849 144 l 1,16,-1
 849 1377 l 1,17,-1
 1027 1377 l 1,18,-1
 1027 0 l 1,19,-1
 256 0 l 1,12,-1
EndSplineSet
Validated: 5
Position2: "'cpsp' Capital Spacing lookup 0 subtable" dx=0 dy=0 dh=0 dv=0
EndChar

StartChar: uni04B8
Encoding: 1208 1208 365
Width: 1200
GlyphClass: 2
Flags: W
AnchorPoint: "Anchor-1" 600 0 basechar 0
AnchorPoint: "Anchor-0" 579 1377 basechar 0
LayerCount: 2
Fore
SplineSet
637 1077 m 1,0,-1
 637 239 l 1,1,-1
 520 239 l 1,2,-1
 520 593 l 1,3,-1
 520 1077 l 1,4,-1
 637 1077 l 1,0,-1
275 1377 m 1,5,-1
 275 860 l 2,6,7
 275 722 275 722 345.5 656.5 c 128,-1,8
 416 591 416 591 545 591 c 0,9,10
 665 591 665 591 745.5 632.5 c 128,-1,11
 826 674 826 674 878 730 c 1,12,-1
 899 593 l 1,13,14
 831 539 831 539 771 505 c 128,-1,15
 711 471 711 471 647.5 455 c 128,-1,16
 584 439 584 439 503 439 c 0,17,18
 382 439 382 439 291.5 489.5 c 128,-1,19
 201 540 201 540 151 631 c 128,-1,20
 101 722 101 722 101 845 c 2,21,-1
 101 1377 l 1,22,-1
 275 1377 l 1,5,-1
1033 1377 m 1,23,-1
 1033 0 l 1,24,-1
 860 0 l 1,25,-1
 860 1377 l 1,26,-1
 1033 1377 l 1,23,-1
EndSplineSet
Validated: 5
Position2: "'cpsp' Capital Spacing lookup 0 subtable" dx=0 dy=0 dh=0 dv=0
EndChar

StartChar: uni04BA
Encoding: 1210 1210 366
Width: 1200
GlyphClass: 2
Flags: W
AnchorPoint: "Anchor-1" 600 0 basechar 0
AnchorPoint: "Anchor-0" 600 1377 basechar 0
LayerCount: 2
Fore
SplineSet
703 899 m 0,0,1
 883 899 883 899 989.5 785.5 c 128,-1,2
 1096 672 1096 672 1096 471 c 2,3,-1
 1096 0 l 1,4,-1
 923 0 l 1,5,-1
 923 469 l 2,6,7
 923 603 923 603 861 675 c 128,-1,8
 799 747 799 747 675 747 c 0,9,10
 555 747 555 747 473.5 698.5 c 128,-1,11
 392 650 392 650 320 563 c 1,12,-1
 321 725 l 1,13,14
 392 808 392 808 484 853.5 c 128,-1,15
 576 899 576 899 703 899 c 0,0,1
340 1377 m 1,16,-1
 340 0 l 1,17,-1
 167 0 l 1,18,-1
 167 1377 l 1,19,-1
 340 1377 l 1,16,-1
EndSplineSet
Validated: 5
Position2: "'cpsp' Capital Spacing lookup 0 subtable" dx=0 dy=0 dh=0 dv=0
EndChar

StartChar: uni0526
Encoding: 1318 1318 367
Width: 1200
Flags: W
LayerCount: 2
Fore
SplineSet
681 899 m 0,0,1
 871 899 871 899 977 785.5 c 128,-1,2
 1083 672 1083 672 1083 471 c 2,3,-1
 1083 0 l 1,4,-1
 909 0 l 1,5,-1
 909 469 l 2,6,7
 909 603 909 603 845 675 c 128,-1,8
 781 747 781 747 643 747 c 0,9,10
 534 747 534 747 457.5 698.5 c 128,-1,11
 381 650 381 650 320 563 c 1,12,-1
 321 735 l 1,13,14
 383 811 383 811 470 855 c 128,-1,15
 557 899 557 899 681 899 c 0,0,1
340 1377 m 1,16,-1
 340 0 l 1,17,-1
 167 0 l 1,18,-1
 167 1377 l 1,19,-1
 340 1377 l 1,16,-1
1201 145 m 1,20,-1
 1201 -294 l 1,21,-1
 1063 -294 l 1,22,-1
 1034 0 l 1,23,-1
 991 0 l 1,24,-1
 1003 145 l 1,25,-1
 1201 145 l 1,20,-1
EndSplineSet
Validated: 5
Position2: "'cpsp' Capital Spacing lookup 0 subtable" dx=0 dy=0 dh=0 dv=0
EndChar

StartChar: uni04BC
Encoding: 1212 1212 368
Width: 1200
GlyphClass: 2
Flags: W
AnchorPoint: "Anchor-1" 600 0 basechar 0
AnchorPoint: "Anchor-0" 600 1377 basechar 0
LayerCount: 2
Fore
SplineSet
1134 714 m 0,0,1
 1134 697 1134 697 1133 670.5 c 128,-1,2
 1132 644 1132 644 1129 617 c 1,3,-1
 441 617 l 1,4,5
 444 437 444 437 485 327.5 c 128,-1,6
 526 218 526 218 592.5 168.5 c 128,-1,7
 659 119 659 119 739 119 c 0,8,9
 832 119 832 119 889 147.5 c 128,-1,10
 946 176 946 176 993 209 c 1,11,-1
 1076 105 l 1,12,13
 1021 58 1021 58 940.5 17.5 c 128,-1,14
 860 -23 860 -23 741 -23 c 0,15,16
 599 -23 599 -23 491 53.5 c 128,-1,17
 383 130 383 130 324 284.5 c 128,-1,18
 265 439 265 439 265 671 c 0,19,20
 265 898 265 898 322 1061 c 128,-1,21
 379 1224 379 1224 482 1311.5 c 128,-1,22
 585 1399 585 1399 721 1399 c 0,23,24
 845 1399 845 1399 938 1323 c 128,-1,25
 1031 1247 1031 1247 1082.5 1094.5 c 128,-1,26
 1134 942 1134 942 1134 714 c 0,0,1
719 1260 m 0,27,28
 641 1260 641 1260 581.5 1207 c 128,-1,29
 522 1154 522 1154 486 1043 c 128,-1,30
 450 932 450 932 441 757 c 1,31,-1
 971 757 l 1,32,33
 964 940 964 940 931.5 1050 c 128,-1,34
 899 1160 899 1160 845.5 1210 c 128,-1,35
 792 1260 792 1260 719 1260 c 0,27,28
1 845 m 0,36,37
 1 911 1 911 26 962 c 128,-1,38
 51 1013 51 1013 79 1053 c 1,39,-1
 193 1001 l 1,40,41
 176 964 176 964 164 930.5 c 128,-1,42
 152 897 152 897 152 859 c 0,43,44
 152 757 152 757 255 757 c 2,45,-1
 403 757 l 1,46,-1
 403 616 l 1,47,-1
 271 616 l 2,48,49
 137 616 137 616 69 683.5 c 128,-1,50
 1 751 1 751 1 845 c 0,36,37
EndSplineSet
Validated: 5
Position2: "'cpsp' Capital Spacing lookup 0 subtable" dx=0 dy=0 dh=0 dv=0
EndChar

StartChar: uni04C3
Encoding: 1219 1219 372
Width: 1200
GlyphClass: 2
Flags: W
AnchorPoint: "Anchor-1" 600 -399 basechar 0
AnchorPoint: "Anchor-0" 600 1377 basechar 0
LayerCount: 2
Fore
SplineSet
167 0 m 1,0,-1
 167 1377 l 1,1,-1
 340 1377 l 1,2,-1
 340 771 l 1,3,-1
 537 771 l 1,4,-1
 883 1377 l 1,5,-1
 1068 1377 l 1,6,-1
 665 705 l 1,7,-1
 618 625 l 1,8,-1
 340 625 l 1,9,-1
 340 0 l 1,10,-1
 167 0 l 1,0,-1
891 0 m 1,11,-1
 891 339 l 2,12,13
 891 485 891 485 820.5 555 c 128,-1,14
 750 625 750 625 576 625 c 1,15,-1
 593 771 l 1,16,17
 841 771 841 771 952.5 659 c 128,-1,18
 1064 547 1064 547 1064 341 c 2,19,-1
 1064 0 l 1,20,-1
 891 0 l 1,11,-1
774 -423 m 0,21,22
 697 -423 697 -423 641.5 -399.5 c 128,-1,23
 586 -376 586 -376 550 -349 c 1,24,-1
 615 -234 l 1,25,26
 651 -255 651 -255 683.5 -268 c 128,-1,27
 716 -281 716 -281 767 -281 c 0,28,29
 826 -281 826 -281 858.5 -244.5 c 128,-1,30
 891 -208 891 -208 891 -131 c 2,31,-1
 891 2 l 1,32,-1
 1064 2 l 1,33,-1
 1064 -121 l 2,34,35
 1064 -273 1064 -273 985 -348 c 128,-1,36
 906 -423 906 -423 774 -423 c 0,21,22
EndSplineSet
Validated: 5
Position2: "'cpsp' Capital Spacing lookup 0 subtable" dx=0 dy=0 dh=0 dv=0
EndChar

StartChar: uni04C5
Encoding: 1221 1221 373
Width: 1200
Flags: W
LayerCount: 2
Fore
SplineSet
981 1377 m 1,0,-1
 981 0 l 1,1,-1
 809 0 l 1,2,-1
 809 1228 l 1,3,-1
 498 1228 l 1,4,-1
 449 820 l 2,5,6
 426 629 426 629 401.5 498.5 c 128,-1,7
 377 368 377 368 349.5 283.5 c 128,-1,8
 322 199 322 199 287.5 144.5 c 128,-1,9
 253 90 253 90 211 52.5 c 128,-1,10
 169 15 169 15 115 -22 c 1,11,-1
 39 107 l 1,12,13
 72 135 72 135 102.5 169 c 128,-1,14
 133 203 133 203 161 267.5 c 128,-1,15
 189 332 189 332 215.5 452 c 128,-1,16
 242 572 242 572 269 771 c 2,17,-1
 347 1377 l 1,18,-1
 981 1377 l 1,0,-1
1161 138 m 1,19,-1
 1007 -294 l 1,20,-1
 871 -294 l 1,21,-1
 940 0 l 1,22,-1
 903 0 l 1,23,-1
 904 138 l 1,24,-1
 1161 138 l 1,19,-1
EndSplineSet
Validated: 5
Position2: "'cpsp' Capital Spacing lookup 0 subtable" dx=0 dy=0 dh=0 dv=0
EndChar

StartChar: uni04C9
Encoding: 1225 1225 375
Width: 1200
Flags: W
LayerCount: 2
Fore
SplineSet
800 0 m 1,0,-1
 800 654 l 1,1,-1
 317 654 l 1,2,-1
 317 0 l 1,3,-1
 145 0 l 1,4,-1
 145 1377 l 1,5,-1
 317 1377 l 1,6,-1
 317 795 l 1,7,-1
 800 795 l 1,8,-1
 800 1377 l 1,9,-1
 973 1377 l 1,10,-1
 973 0 l 1,11,-1
 800 0 l 1,0,-1
1153 138 m 1,12,-1
 998 -294 l 1,13,-1
 862 -294 l 1,14,-1
 931 0 l 1,15,-1
 894 0 l 1,16,-1
 895 138 l 1,17,-1
 1153 138 l 1,12,-1
EndSplineSet
Validated: 5
Position2: "'cpsp' Capital Spacing lookup 0 subtable" dx=0 dy=0 dh=0 dv=0
EndChar

StartChar: uni04CD
Encoding: 1229 1229 377
Width: 1200
Flags: W
LayerCount: 2
Fore
SplineSet
980 1377 m 1,0,-1
 1058 0 l 1,1,-1
 891 0 l 1,2,-1
 849 719 l 2,3,4
 845 792 845 792 842.5 868 c 128,-1,5
 840 944 840 944 839 1013 c 128,-1,6
 838 1082 838 1082 837.5 1133 c 128,-1,7
 837 1184 837 1184 837 1205 c 1,8,-1
 634 247 l 1,9,-1
 460 247 l 1,10,-1
 245 1205 l 1,11,12
 245 1182 245 1182 245 1128 c 128,-1,13
 245 1074 245 1074 244.5 1004 c 128,-1,14
 244 934 244 934 242.5 859.5 c 128,-1,15
 241 785 241 785 237 721 c 2,16,-1
 201 0 l 1,17,-1
 37 0 l 1,18,-1
 115 1377 l 1,19,-1
 357 1377 l 1,20,-1
 552 434 l 1,21,-1
 737 1377 l 1,22,-1
 980 1377 l 1,0,-1
1209 138 m 1,23,-1
 1053 -294 l 1,24,-1
 913 -294 l 1,25,-1
 982 0 l 1,26,-1
 945 0 l 1,27,-1
 945 138 l 1,28,-1
 1209 138 l 1,23,-1
EndSplineSet
Validated: 5
Position2: "'cpsp' Capital Spacing lookup 0 subtable" dx=0 dy=0 dh=0 dv=0
EndChar

StartChar: uni04D8
Encoding: 1240 1240 382
Width: 1200
GlyphClass: 2
Flags: W
AnchorPoint: "Anchor-1" 600 0 basechar 0
AnchorPoint: "Anchor-0" 586 1377 basechar 0
LayerCount: 2
Fore
SplineSet
89 663 m 0,0,1
 89 681 89 681 90.5 708 c 128,-1,2
 92 735 92 735 95 761 c 1,3,-1
 925 761 l 1,4,5
 916 1031 916 1031 826 1145.5 c 128,-1,6
 736 1260 736 1260 581 1260 c 0,7,8
 480 1260 480 1260 407 1227 c 128,-1,9
 334 1194 334 1194 265 1143 c 1,10,-1
 176 1246 l 1,11,12
 255 1313 255 1313 354.5 1356 c 128,-1,13
 454 1399 454 1399 586 1399 c 0,14,15
 838 1399 838 1399 970.5 1225.5 c 128,-1,16
 1103 1052 1103 1052 1103 707 c 0,17,18
 1103 478 1103 478 1041.5 314.5 c 128,-1,19
 980 151 980 151 866 64 c 128,-1,20
 752 -23 752 -23 594 -23 c 0,21,22
 439 -23 439 -23 325.5 53.5 c 128,-1,23
 212 130 212 130 150.5 282.5 c 128,-1,24
 89 435 89 435 89 663 c 0,0,1
597 119 m 0,25,26
 742 119 742 119 826 239 c 128,-1,27
 910 359 910 359 925 617 c 1,28,-1
 258 617 l 1,29,30
 270 347 270 347 353 233 c 128,-1,31
 436 119 436 119 597 119 c 0,25,26
EndSplineSet
Validated: 1
Position2: "'cpsp' Capital Spacing lookup 0 subtable" dx=0 dy=0 dh=0 dv=0
EndChar

StartChar: uni04E0
Encoding: 1248 1248 386
Width: 1200
Flags: W
LayerCount: 2
Fore
SplineSet
564 -22 m 0,0,1
 465 -22 465 -22 390 -4.5 c 128,-1,2
 315 13 315 13 255.5 46.5 c 128,-1,3
 196 80 196 80 141 127 c 1,4,-1
 229 235 l 1,5,6
 302 186 302 186 375.5 155 c 128,-1,7
 449 124 449 124 566 124 c 0,8,9
 720 124 720 124 799.5 202 c 128,-1,10
 879 280 879 280 879 413 c 0,11,12
 879 542 879 542 804.5 601.5 c 128,-1,13
 730 661 730 661 597 661 c 2,14,-1
 355 661 l 1,15,-1
 490 799 l 1,16,-1
 591 799 l 2,17,18
 760 799 760 799 863 750 c 128,-1,19
 966 701 966 701 1012.5 613.5 c 128,-1,20
 1059 526 1059 526 1059 411 c 0,21,22
 1059 282 1059 282 998.5 184.5 c 128,-1,23
 938 87 938 87 827 32.5 c 128,-1,24
 716 -22 716 -22 564 -22 c 0,0,1
355 791 m 1,25,-1
 799 1232 l 1,26,-1
 193 1232 l 1,27,-1
 193 1377 l 1,28,-1
 1001 1377 l 1,29,-1
 1001 1233 l 1,30,-1
 478 723 l 1,31,-1
 355 661 l 1,32,-1
 355 791 l 1,25,-1
EndSplineSet
Validated: 5
Position2: "'cpsp' Capital Spacing lookup 0 subtable" dx=0 dy=0 dh=0 dv=0
EndChar

StartChar: uni04E8
Encoding: 1256 1256 390
Width: 1200
GlyphClass: 2
Flags: W
AnchorPoint: "Anchor-1" 600 0 basechar 0
AnchorPoint: "Anchor-0" 600 1377 basechar 0
LayerCount: 2
Fore
SplineSet
1107 687 m 0,0,1
 1107 479 1107 479 1050.5 318.5 c 128,-1,2
 994 158 994 158 881 67.5 c 128,-1,3
 768 -23 768 -23 600 -23 c 0,4,5
 433 -23 433 -23 319.5 65.5 c 128,-1,6
 206 154 206 154 149.5 313 c 128,-1,7
 93 472 93 472 93 685 c 0,8,9
 93 894 93 894 149.5 1055 c 128,-1,10
 206 1216 206 1216 319.5 1307.5 c 128,-1,11
 433 1399 433 1399 600 1399 c 0,12,13
 768 1399 768 1399 881 1310 c 128,-1,14
 994 1221 994 1221 1050.5 1061 c 128,-1,15
 1107 901 1107 901 1107 687 c 0,0,1
600 123 m 0,16,17
 766 123 766 123 841.5 254.5 c 128,-1,18
 917 386 917 386 922 635 c 1,19,-1
 275 635 l 1,20,21
 281 387 281 387 359 255 c 128,-1,22
 437 123 437 123 600 123 c 0,16,17
600 1254 m 0,23,24
 442 1254 442 1254 366 1130.5 c 128,-1,25
 290 1007 290 1007 278 768 c 1,26,-1
 920 768 l 1,27,28
 909 1007 909 1007 834 1130.5 c 128,-1,29
 759 1254 759 1254 600 1254 c 0,23,24
EndSplineSet
Validated: 1
Position2: "'cpsp' Capital Spacing lookup 0 subtable" dx=0 dy=0 dh=0 dv=0
EndChar

StartChar: uni04FA
Encoding: 1274 1274 399
Width: 1200
GlyphClass: 2
Flags: W
AnchorPoint: "Anchor-1" 437 0 basechar 0
AnchorPoint: "Anchor-0" 774 1377 basechar 0
LayerCount: 2
Fore
SplineSet
475 145 m 1,0,-1
 641 145 l 1,1,-1
 641 0 l 1,2,-1
 475 0 l 1,3,-1
 475 145 l 1,0,-1
1166 1377 m 1,4,-1
 1148 1225 l 1,5,-1
 522 1225 l 1,6,-1
 522 0 l 1,7,-1
 349 0 l 1,8,-1
 349 1377 l 1,9,-1
 1166 1377 l 1,4,-1
838 866 m 1,10,-1
 838 733 l 1,11,-1
 523 733 l 1,12,-1
 149 733 l 1,13,-1
 149 866 l 1,14,-1
 349 866 l 1,15,-1
 838 866 l 1,10,-1
351 -423 m 0,16,17
 274 -423 274 -423 218.5 -399.5 c 128,-1,18
 163 -376 163 -376 127 -349 c 1,19,-1
 192 -234 l 1,20,21
 228 -255 228 -255 260.5 -268 c 128,-1,22
 293 -281 293 -281 344 -281 c 0,23,24
 404 -281 404 -281 436 -244.5 c 128,-1,25
 468 -208 468 -208 468 -131 c 2,26,-1
 468 2 l 1,27,-1
 641 2 l 1,28,-1
 641 -121 l 2,29,30
 641 -273 641 -273 562 -348 c 128,-1,31
 483 -423 483 -423 351 -423 c 0,16,17
EndSplineSet
Validated: 5
Position2: "'cpsp' Capital Spacing lookup 0 subtable" dx=0 dy=0 dh=0 dv=0
EndChar

StartChar: uni04FC
Encoding: 1276 1276 400
Width: 1200
GlyphClass: 2
Flags: W
AnchorPoint: "Anchor-1" 567 0 basechar 0
AnchorPoint: "Anchor-0" 567 1377 basechar 0
LayerCount: 2
Fore
SplineSet
983 0 m 1,0,-1
 983 145 l 1,1,-1
 1153 145 l 1,2,-1
 1153 0 l 1,3,-1
 983 0 l 1,0,-1
66 1377 m 1,4,-1
 265 1377 l 1,5,-1
 567 848 l 1,6,-1
 871 1377 l 1,7,-1
 1058 1377 l 1,8,-1
 667 743 l 1,9,-1
 1105 0 l 1,10,-1
 906 0 l 1,11,-1
 563 622 l 1,12,-1
 216 0 l 1,13,-1
 29 0 l 1,14,-1
 461 734 l 1,15,-1
 66 1377 l 1,4,-1
863 -423 m 0,16,17
 786 -423 786 -423 730.5 -399.5 c 128,-1,18
 675 -376 675 -376 638 -349 c 1,19,-1
 704 -234 l 1,20,21
 739 -255 739 -255 772 -268 c 128,-1,22
 805 -281 805 -281 856 -281 c 0,23,24
 915 -281 915 -281 947.5 -244.5 c 128,-1,25
 980 -208 980 -208 980 -131 c 2,26,-1
 980 2 l 1,27,-1
 1153 2 l 1,28,-1
 1153 -121 l 2,29,30
 1153 -273 1153 -273 1074 -348 c 128,-1,31
 995 -423 995 -423 863 -423 c 0,16,17
EndSplineSet
Validated: 5
Position2: "'cpsp' Capital Spacing lookup 0 subtable" dx=0 dy=0 dh=0 dv=0
EndChar

StartChar: uni0500
Encoding: 1280 1280 402
Width: 1200
GlyphClass: 2
Flags: W
AnchorPoint: "Anchor-1" 600 0 basechar 0
AnchorPoint: "Anchor-0" 600 1377 basechar 0
LayerCount: 2
Fore
SplineSet
607 0 m 2,0,1
 462 0 462 0 346.5 45.5 c 128,-1,2
 231 91 231 91 164 184 c 128,-1,3
 97 277 97 277 97 419 c 0,4,5
 97 625 97 625 238 739 c 128,-1,6
 379 853 379 853 617 853 c 2,7,-1
 838 853 l 1,8,-1
 838 1377 l 1,9,-1
 1011 1377 l 1,10,-1
 1011 0 l 1,11,-1
 607 0 l 2,0,1
608 141 m 2,12,-1
 838 141 l 1,13,-1
 838 715 l 1,14,-1
 613 715 l 2,15,16
 459 715 459 715 371 644.5 c 128,-1,17
 283 574 283 574 283 419 c 0,18,19
 283 315 283 315 326 254.5 c 128,-1,20
 369 194 369 194 442.5 167.5 c 128,-1,21
 516 141 516 141 608 141 c 2,12,-1
EndSplineSet
Validated: 1
Position2: "'cpsp' Capital Spacing lookup 0 subtable" dx=0 dy=0 dh=0 dv=0
EndChar

StartChar: uni0502
Encoding: 1282 1282 403
Width: 1200
GlyphClass: 2
Flags: W
AnchorPoint: "Anchor-1" 600 0 basechar 0
AnchorPoint: "Anchor-0" 600 1377 basechar 0
LayerCount: 2
Fore
SplineSet
329 -28 m 0,0,1
 247 -28 247 -28 176 17.5 c 128,-1,2
 105 63 105 63 61.5 153.5 c 128,-1,3
 18 244 18 244 18 380 c 0,4,5
 18 528 18 528 67.5 634 c 128,-1,6
 117 740 117 740 216 796.5 c 128,-1,7
 315 853 315 853 464 853 c 2,8,-1
 579 853 l 1,9,-1
 579 718 l 1,10,-1
 460 718 l 2,11,12
 337 718 337 718 264 636 c 128,-1,13
 191 554 191 554 191 379 c 0,14,15
 191 233 191 233 240 173 c 128,-1,16
 289 113 289 113 359 113 c 0,17,18
 431 113 431 113 477 162.5 c 128,-1,19
 523 212 523 212 567 309 c 1,20,-1
 625 199 l 1,21,22
 577 86 577 86 503.5 29 c 128,-1,23
 430 -28 430 -28 329 -28 c 0,0,1
555 982 m 1,24,-1
 555 1377 l 1,25,-1
 729 1377 l 1,26,-1
 729 982 l 1,27,-1
 555 982 l 1,24,-1
839 -27 m 0,28,29
 721 -27 721 -27 645.5 52 c 128,-1,30
 570 131 570 131 555 275 c 1,31,-1
 555 1049 l 1,32,-1
 729 1049 l 1,33,-1
 729 309 l 2,34,35
 729 213 729 213 758 163 c 128,-1,36
 787 113 787 113 843 113 c 0,37,38
 884 113 884 113 919 147 c 128,-1,39
 954 181 954 181 975.5 265 c 128,-1,40
 997 349 997 349 997 497 c 0,41,42
 997 570 997 570 994.5 630 c 128,-1,43
 992 690 992 690 987 753 c 1,44,-1
 1161 753 l 1,45,46
 1165 695 1165 695 1168 633.5 c 128,-1,47
 1171 572 1171 572 1171 501 c 0,48,49
 1171 315 1171 315 1126.5 198.5 c 128,-1,50
 1082 82 1082 82 1007 27.5 c 128,-1,51
 932 -27 932 -27 839 -27 c 0,28,29
EndSplineSet
Validated: 5
Position2: "'cpsp' Capital Spacing lookup 0 subtable" dx=0 dy=0 dh=0 dv=0
EndChar

StartChar: uni0504
Encoding: 1284 1284 404
Width: 1200
GlyphClass: 2
Flags: W
AnchorPoint: "Anchor-1" 600 0 basechar 0
AnchorPoint: "Anchor-0" 600 1377 basechar 0
LayerCount: 2
Fore
SplineSet
793 -23 m 0,0,1
 664 -23 664 -23 581.5 45.5 c 128,-1,2
 499 114 499 114 434 255 c 2,3,-1
 262 619 l 1,4,-1
 443 637 l 1,5,-1
 592 301 l 2,6,7
 638 200 638 200 682.5 156.5 c 128,-1,8
 727 113 727 113 793 113 c 0,9,10
 846 113 846 113 887.5 148.5 c 128,-1,11
 929 184 929 184 954 270 c 128,-1,12
 979 356 979 356 979 510 c 0,13,14
 979 577 979 577 976.5 637 c 128,-1,15
 974 697 974 697 969 760 c 1,16,-1
 1141 760 l 1,17,18
 1145 702 1145 702 1147.5 639.5 c 128,-1,19
 1150 577 1150 577 1150 510 c 0,20,21
 1150 321 1150 321 1104 203.5 c 128,-1,22
 1058 86 1058 86 977.5 31.5 c 128,-1,23
 897 -23 897 -23 793 -23 c 0,0,1
110 591 m 1,24,-1
 110 727 l 1,25,-1
 253 727 l 2,26,27
 401 727 401 727 483 788 c 128,-1,28
 565 849 565 849 565 991 c 0,29,30
 565 1123 565 1123 485.5 1181 c 128,-1,31
 406 1239 406 1239 230 1239 c 2,32,-1
 50 1239 l 1,33,-1
 50 1377 l 1,34,-1
 233 1377 l 2,35,36
 488 1377 488 1377 619.5 1278.5 c 128,-1,37
 751 1180 751 1180 751 991 c 0,38,39
 751 817 751 817 644.5 722.5 c 128,-1,40
 538 628 538 628 322 595 c 2,41,-1
 293 591 l 1,42,-1
 110 591 l 1,24,-1
EndSplineSet
Validated: 5
Position2: "'cpsp' Capital Spacing lookup 0 subtable" dx=0 dy=0 dh=0 dv=0
EndChar

StartChar: uni0506
Encoding: 1286 1286 405
Width: 1200
GlyphClass: 2
Flags: W
AnchorPoint: "Anchor-1" 600 -399 basechar 0
AnchorPoint: "Anchor-0" 600 1377 basechar 0
LayerCount: 2
Fore
SplineSet
145 1377 m 1,0,-1
 488 1377 l 2,1,2
 743 1377 743 1377 874.5 1279.5 c 128,-1,3
 1006 1182 1006 1182 1006 991 c 0,4,5
 1006 888 1006 888 961.5 811 c 128,-1,6
 917 734 917 734 841 684 c 128,-1,7
 765 634 765 634 670 611 c 1,8,-1
 1079 0 l 1,9,-1
 871 0 l 1,10,-1
 494 591 l 1,11,-1
 203 591 l 1,12,-1
 203 727 l 1,13,-1
 509 727 l 2,14,15
 657 727 657 727 739 787.5 c 128,-1,16
 821 848 821 848 821 991 c 0,17,18
 821 1124 821 1124 744.5 1181.5 c 128,-1,19
 668 1239 668 1239 508 1239 c 2,20,-1
 145 1239 l 1,21,-1
 145 1377 l 1,0,-1
1109 145 m 1,22,-1
 1109 -294 l 1,23,-1
 972 -294 l 1,24,-1
 943 0 l 1,25,-1
 899 0 l 1,26,-1
 912 145 l 1,27,-1
 1109 145 l 1,22,-1
EndSplineSet
Validated: 5
Position2: "'cpsp' Capital Spacing lookup 0 subtable" dx=0 dy=0 dh=0 dv=0
EndChar

StartChar: uni0508
Encoding: 1288 1288 406
Width: 1200
GlyphClass: 2
Flags: W
AnchorPoint: "Anchor-1" 600 0 basechar 0
AnchorPoint: "Anchor-0" 600 1377 basechar 0
LayerCount: 2
Fore
SplineSet
843 -27 m 0,0,1
 724 -27 724 -27 641.5 57 c 128,-1,2
 559 141 559 141 559 316 c 2,3,-1
 559 1049 l 1,4,-1
 733 1049 l 1,5,-1
 733 309 l 2,6,7
 733 213 733 213 761.5 163 c 128,-1,8
 790 113 790 113 846 113 c 0,9,10
 887 113 887 113 922 147 c 128,-1,11
 957 181 957 181 978.5 265 c 128,-1,12
 1000 349 1000 349 1000 497 c 0,13,14
 1000 570 1000 570 997.5 630 c 128,-1,15
 995 690 995 690 990 753 c 1,16,-1
 1164 753 l 1,17,18
 1168 695 1168 695 1170.5 633.5 c 128,-1,19
 1173 572 1173 572 1173 501 c 0,20,21
 1173 315 1173 315 1129 198.5 c 128,-1,22
 1085 82 1085 82 1010 27.5 c 128,-1,23
 935 -27 935 -27 843 -27 c 0,0,1
111 -22 m 1,24,-1
 10 99 l 1,25,26
 36 127 36 127 57 162 c 128,-1,27
 78 197 78 197 95.5 264 c 128,-1,28
 113 331 113 331 129 452.5 c 128,-1,29
 145 574 145 574 161 776 c 2,30,-1
 209 1377 l 1,31,-1
 733 1377 l 1,32,-1
 733 667 l 1,33,-1
 559 667 l 1,34,-1
 559 1233 l 1,35,-1
 370 1233 l 1,36,-1
 334 740 l 2,37,38
 319 528 319 528 298.5 398 c 128,-1,39
 278 268 278 268 252 192.5 c 128,-1,40
 226 117 226 117 191 70 c 128,-1,41
 156 23 156 23 111 -22 c 1,24,-1
EndSplineSet
Validated: 5
Position2: "'cpsp' Capital Spacing lookup 0 subtable" dx=0 dy=0 dh=0 dv=0
EndChar

StartChar: uni050A
Encoding: 1290 1290 407
Width: 1200
GlyphClass: 2
Flags: W
AnchorPoint: "Anchor-1" 600 0 basechar 0
AnchorPoint: "Anchor-0" 600 1377 basechar 0
LayerCount: 2
Fore
SplineSet
569 571 m 1,0,-1
 569 654 l 1,1,-1
 270 654 l 1,2,-1
 270 0 l 1,3,-1
 98 0 l 1,4,-1
 98 1377 l 1,5,-1
 270 1377 l 1,6,-1
 270 799 l 1,7,-1
 569 799 l 1,8,-1
 569 1377 l 1,9,-1
 741 1377 l 1,10,-1
 741 571 l 1,11,-1
 569 571 l 1,0,-1
850 -27 m 0,12,13
 771 -27 771 -27 707 10 c 128,-1,14
 643 47 643 47 606 123.5 c 128,-1,15
 569 200 569 200 569 316 c 2,16,-1
 569 1049 l 1,17,-1
 741 1049 l 1,18,-1
 741 309 l 2,19,20
 741 213 741 213 769.5 163 c 128,-1,21
 798 113 798 113 853 113 c 0,22,23
 895 113 895 113 930 147 c 128,-1,24
 965 181 965 181 986 265 c 128,-1,25
 1007 349 1007 349 1007 497 c 0,26,27
 1007 570 1007 570 1004.5 630 c 128,-1,28
 1002 690 1002 690 997 753 c 1,29,-1
 1170 753 l 1,30,31
 1174 695 1174 695 1176.5 633.5 c 128,-1,32
 1179 572 1179 572 1179 501 c 0,33,34
 1179 315 1179 315 1135 198.5 c 128,-1,35
 1091 82 1091 82 1016.5 27.5 c 128,-1,36
 942 -27 942 -27 850 -27 c 0,12,13
EndSplineSet
Validated: 5
Position2: "'cpsp' Capital Spacing lookup 0 subtable" dx=0 dy=0 dh=0 dv=0
EndChar

StartChar: uni050E
Encoding: 1294 1294 409
Width: 1200
GlyphClass: 2
Flags: W
AnchorPoint: "Anchor-1" 600 0 basechar 0
AnchorPoint: "Anchor-0" 600 1377 basechar 0
LayerCount: 2
Fore
SplineSet
388 585 m 1,0,-1
 388 1225 l 1,1,-1
 31 1225 l 1,2,-1
 31 1377 l 1,3,-1
 970 1377 l 1,4,-1
 951 1225 l 1,5,-1
 561 1225 l 1,6,-1
 561 585 l 1,7,-1
 388 585 l 1,0,-1
715 -23 m 0,8,9
 627 -23 627 -23 552 18 c 128,-1,10
 477 59 477 59 432 140.5 c 128,-1,11
 387 222 387 222 387 342 c 2,12,-1
 387 585 l 1,13,-1
 561 585 l 1,14,-1
 561 369 l 2,15,16
 561 235 561 235 603.5 175 c 128,-1,17
 646 115 646 115 723 115 c 0,18,19
 784 115 784 115 839.5 149.5 c 128,-1,20
 895 184 895 184 930 271 c 128,-1,21
 965 358 965 358 965 513 c 0,22,23
 965 577 965 577 962.5 636 c 128,-1,24
 960 695 960 695 955 758 c 1,25,-1
 1125 758 l 1,26,27
 1130 700 1130 700 1132.5 639 c 128,-1,28
 1135 578 1135 578 1135 512 c 0,29,30
 1135 370 1135 370 1097.5 268 c 128,-1,31
 1060 166 1060 166 998 102 c 128,-1,32
 936 38 936 38 862 7.5 c 128,-1,33
 788 -23 788 -23 715 -23 c 0,8,9
EndSplineSet
Validated: 5
Position2: "'cpsp' Capital Spacing lookup 0 subtable" dx=0 dy=0 dh=0 dv=0
EndChar

StartChar: uni0510
Encoding: 1296 1296 410
Width: 1200
Flags: W
LayerCount: 2
Fore
SplineSet
639 1399 m 0,0,1
 775 1399 775 1399 888 1356.5 c 128,-1,2
 1001 1314 1001 1314 1103 1229 c 1,3,-1
 1005 1125 l 1,4,5
 928 1187 928 1187 843 1222.5 c 128,-1,6
 758 1258 758 1258 643 1258 c 0,7,8
 559 1258 559 1258 491 1233.5 c 128,-1,9
 423 1209 423 1209 383 1160 c 128,-1,10
 343 1111 343 1111 343 1036 c 0,11,12
 343 958 343 958 385 908.5 c 128,-1,13
 427 859 427 859 494.5 835.5 c 128,-1,14
 562 812 562 812 641 812 c 2,15,-1
 873 812 l 1,16,-1
 853 665 l 1,17,-1
 627 665 l 2,18,19
 536 665 536 665 463 638 c 128,-1,20
 390 611 390 611 347.5 553 c 128,-1,21
 305 495 305 495 305 401 c 0,22,23
 305 273 305 273 393.5 198 c 128,-1,24
 482 123 482 123 645 123 c 0,25,26
 755 123 755 123 849.5 161 c 128,-1,27
 944 199 944 199 1027 269 c 1,28,-1
 1130 173 l 1,29,30
 1041 79 1041 79 912.5 28 c 128,-1,31
 784 -23 784 -23 637 -23 c 0,32,33
 477 -23 477 -23 361 31.5 c 128,-1,34
 245 86 245 86 182 182 c 128,-1,35
 119 278 119 278 119 400 c 0,36,37
 119 508 119 508 166 582 c 128,-1,38
 213 656 213 656 289 697.5 c 128,-1,39
 365 739 365 739 450 749 c 1,40,41
 373 761 373 761 307.5 797.5 c 128,-1,42
 242 834 242 834 203.5 894 c 128,-1,43
 165 954 165 954 165 1034 c 0,44,45
 165 1144 165 1144 225.5 1226 c 128,-1,46
 286 1308 286 1308 392.5 1353.5 c 128,-1,47
 499 1399 499 1399 639 1399 c 0,0,1
EndSplineSet
Validated: 1
Position2: "'cpsp' Capital Spacing lookup 0 subtable" dx=0 dy=0 dh=0 dv=0
EndChar

StartChar: uni0514
Encoding: 1300 1300 412
Width: 1200
GlyphClass: 2
Flags: W
AnchorPoint: "Anchor-1" 600 0 basechar 0
AnchorPoint: "Anchor-0" 600 1377 basechar 0
LayerCount: 2
Fore
SplineSet
417 1377 m 1,0,-1
 593 1377 l 1,1,-1
 805 853 l 1,2,-1
 1012 1377 l 1,3,-1
 1179 1377 l 1,4,-1
 903 737 l 1,5,-1
 1217 0 l 1,6,-1
 1039 0 l 1,7,-1
 792 613 l 1,8,-1
 556 0 l 1,9,-1
 387 0 l 1,10,-1
 697 736 l 1,11,-1
 417 1377 l 1,0,-1
208 1377 m 1,12,-1
 565 1377 l 1,13,-1
 560 1223 l 1,14,-1
 368 1223 l 1,15,-1
 333 740 l 2,16,17
 318 528 318 528 298 398 c 128,-1,18
 278 268 278 268 251.5 192.5 c 128,-1,19
 225 117 225 117 189.5 70 c 128,-1,20
 154 23 154 23 109 -22 c 1,21,-1
 9 99 l 1,22,23
 35 127 35 127 56 162 c 128,-1,24
 77 197 77 197 94.5 264 c 128,-1,25
 112 331 112 331 128 452.5 c 128,-1,26
 144 574 144 574 160 776 c 2,27,-1
 208 1377 l 1,12,-1
EndSplineSet
Validated: 5
Position2: "'cpsp' Capital Spacing lookup 0 subtable" dx=0 dy=0 dh=0 dv=0
EndChar

StartChar: uni0516
Encoding: 1302 1302 413
Width: 1200
GlyphClass: 2
Flags: W
AnchorPoint: "Anchor-1" 600 0 basechar 0
AnchorPoint: "Anchor-0" 600 1377 basechar 0
LayerCount: 2
Fore
SplineSet
109 0 m 1,0,-1
 109 1377 l 1,1,-1
 351 1377 l 2,2,3
 487 1377 487 1377 583 1323.5 c 128,-1,4
 679 1270 679 1270 730 1175 c 128,-1,5
 781 1080 781 1080 781 954 c 0,6,7
 781 853 781 853 748 771.5 c 128,-1,8
 715 690 715 690 656 632 c 128,-1,9
 597 574 597 574 519 542.5 c 128,-1,10
 441 511 441 511 351 511 c 2,11,-1
 244 511 l 1,12,-1
 244 652 l 1,13,-1
 344 652 l 2,14,15
 419 652 419 652 481 679.5 c 128,-1,16
 543 707 543 707 580 772.5 c 128,-1,17
 617 838 617 838 617 952 c 0,18,19
 617 1097 617 1097 545.5 1167.5 c 128,-1,20
 474 1238 474 1238 355 1238 c 2,21,-1
 276 1238 l 1,22,-1
 276 0 l 1,23,-1
 109 0 l 1,0,-1
989 0 m 1,24,-1
 659 655 l 1,25,-1
 700 761 l 1,26,-1
 1003 1377 l 1,27,-1
 1175 1377 l 1,28,-1
 824 707 l 1,29,-1
 1178 0 l 1,30,-1
 989 0 l 1,24,-1
EndSplineSet
Validated: 5
Position2: "'cpsp' Capital Spacing lookup 0 subtable" dx=0 dy=0 dh=0 dv=0
EndChar

StartChar: uni0518
Encoding: 1304 1304 414
Width: 1200
GlyphClass: 2
Flags: W
AnchorPoint: "Anchor-1" 600 0 basechar 0
AnchorPoint: "Anchor-0" 600 1377 basechar 0
LayerCount: 2
Fore
SplineSet
16 0 m 1,0,-1
 281 593 l 1,1,2
 158 647 158 647 97.5 743 c 128,-1,3
 37 839 37 839 37 967 c 0,4,5
 37 1092 37 1092 94.5 1183.5 c 128,-1,6
 152 1275 152 1275 260.5 1326 c 128,-1,7
 369 1377 369 1377 523 1377 c 2,8,-1
 767 1377 l 1,9,-1
 767 0 l 1,10,-1
 589 0 l 1,11,-1
 589 553 l 1,12,-1
 448 553 l 1,13,-1
 215 0 l 1,14,-1
 16 0 l 1,0,-1
469 695 m 2,15,-1
 589 695 l 1,16,-1
 589 1238 l 1,17,-1
 503 1238 l 2,18,19
 374 1238 374 1238 300.5 1169.5 c 128,-1,20
 227 1101 227 1101 227 967 c 0,21,22
 227 826 227 826 294 760.5 c 128,-1,23
 361 695 361 695 469 695 c 2,15,-1
589 0 m 1,24,-1
 589 1377 l 1,25,-1
 1178 1377 l 1,26,-1
 1157 1234 l 1,27,-1
 767 1234 l 1,28,-1
 767 771 l 1,29,-1
 1078 771 l 1,30,-1
 1078 628 l 1,31,-1
 767 628 l 1,32,-1
 767 141 l 1,33,-1
 1196 141 l 1,34,-1
 1196 0 l 1,35,-1
 589 0 l 1,24,-1
EndSplineSet
Validated: 5
Position2: "'cpsp' Capital Spacing lookup 0 subtable" dx=0 dy=0 dh=0 dv=0
EndChar

StartChar: uni051E
Encoding: 1310 1310 417
Width: 1200
GlyphClass: 2
Flags: W
AnchorPoint: "Anchor-1" 589 0 basechar 0
AnchorPoint: "Anchor-0" 628 1377 basechar 0
LayerCount: 2
Fore
SplineSet
455 1201 m 1,0,-1
 531 1313 l 1,1,-1
 1121 929 l 1,2,-1
 1045 817 l 1,3,-1
 455 1201 l 1,0,-1
512 651 m 1,4,-1
 352 651 l 1,5,-1
 352 0 l 1,6,-1
 178 0 l 1,7,-1
 178 1377 l 1,8,-1
 352 1377 l 1,9,-1
 352 797 l 1,10,-1
 514 797 l 1,11,-1
 936 1377 l 1,12,-1
 1124 1377 l 1,13,-1
 660 729 l 1,14,-1
 1162 0 l 1,15,-1
 952 0 l 1,16,-1
 512 651 l 1,4,-1
EndSplineSet
Validated: 5
Position2: "'cpsp' Capital Spacing lookup 0 subtable" dx=0 dy=0 dh=0 dv=0
EndChar

StartChar: uni0520
Encoding: 1312 1312 418
Width: 1200
GlyphClass: 2
Flags: W
AnchorPoint: "Anchor-1" 600 -399 basechar 0
AnchorPoint: "Anchor-0" 600 1377 basechar 0
LayerCount: 2
Fore
SplineSet
87 -22 m 1,0,-1
 -13 99 l 1,1,2
 13 127 13 127 34 162 c 128,-1,3
 55 197 55 197 72.5 264 c 128,-1,4
 90 331 90 331 105.5 452.5 c 128,-1,5
 121 574 121 574 137 776 c 2,6,-1
 185 1377 l 1,7,-1
 709 1377 l 1,8,-1
 709 0 l 1,9,-1
 535 0 l 1,10,-1
 535 1233 l 1,11,-1
 347 1233 l 1,12,-1
 311 740 l 2,13,14
 296 528 296 528 275.5 398 c 128,-1,15
 255 268 255 268 228.5 192.5 c 128,-1,16
 202 117 202 117 167 70 c 128,-1,17
 132 23 132 23 87 -22 c 1,0,-1
874 -423 m 0,18,19
 796 -423 796 -423 739.5 -399.5 c 128,-1,20
 683 -376 683 -376 648 -349 c 1,21,-1
 716 -233 l 1,22,23
 751 -253 751 -253 783.5 -266 c 128,-1,24
 816 -279 816 -279 867 -279 c 0,25,26
 926 -279 926 -279 958.5 -242.5 c 128,-1,27
 991 -206 991 -206 991 -129 c 2,28,-1
 991 2 l 1,29,-1
 1167 2 l 1,30,-1
 1167 -117 l 2,31,32
 1167 -219 1167 -219 1128.5 -287 c 128,-1,33
 1090 -355 1090 -355 1024 -389 c 128,-1,34
 958 -423 958 -423 874 -423 c 0,18,19
991 0 m 1,35,-1
 991 591 l 2,36,37
 991 673 991 673 959.5 711 c 128,-1,38
 928 749 928 749 869 749 c 0,39,40
 808 749 808 749 753 712.5 c 128,-1,41
 698 676 698 676 632 594 c 1,42,-1
 639 736 l 1,43,44
 692 812 692 812 750.5 857 c 128,-1,45
 809 902 809 902 898 902 c 0,46,47
 1024 902 1024 902 1095.5 819 c 128,-1,48
 1167 736 1167 736 1167 611 c 2,49,-1
 1167 0 l 1,50,-1
 991 0 l 1,35,-1
EndSplineSet
Validated: 5
Position2: "'cpsp' Capital Spacing lookup 0 subtable" dx=0 dy=0 dh=0 dv=0
EndChar

StartChar: uni0522
Encoding: 1314 1314 419
Width: 1200
GlyphClass: 2
Flags: W
AnchorPoint: "Anchor-1" 600 -399 basechar 0
AnchorPoint: "Anchor-0" 600 1377 basechar 0
LayerCount: 2
Fore
SplineSet
898 902 m 0,0,1
 1032 902 1032 902 1109.5 816 c 128,-1,2
 1187 730 1187 730 1187 588 c 2,3,-1
 1187 0 l 1,4,-1
 1013 0 l 1,5,-1
 1013 591 l 2,6,7
 1013 673 1013 673 975 711 c 128,-1,8
 937 749 937 749 871 749 c 256,9,10
 805 749 805 749 745.5 712.5 c 128,-1,11
 686 676 686 676 616 594 c 1,12,-1
 623 736 l 1,13,14
 676 812 676 812 740 857 c 128,-1,15
 804 902 804 902 898 902 c 0,0,1
896 -423 m 0,16,17
 818 -423 818 -423 762.5 -399.5 c 128,-1,18
 707 -376 707 -376 671 -349 c 1,19,-1
 738 -233 l 1,20,21
 773 -254 773 -254 805.5 -267 c 128,-1,22
 838 -280 838 -280 889 -280 c 0,23,24
 948 -280 948 -280 980.5 -243.5 c 128,-1,25
 1013 -207 1013 -207 1013 -130 c 2,26,-1
 1013 2 l 1,27,-1
 1187 2 l 1,28,-1
 1187 -117 l 2,29,30
 1187 -270 1187 -270 1104 -346.5 c 128,-1,31
 1021 -423 1021 -423 896 -423 c 0,16,17
523 0 m 1,32,-1
 523 654 l 1,33,-1
 225 654 l 1,34,-1
 225 0 l 1,35,-1
 53 0 l 1,36,-1
 53 1377 l 1,37,-1
 225 1377 l 1,38,-1
 225 799 l 1,39,-1
 523 799 l 1,40,-1
 523 1377 l 1,41,-1
 695 1377 l 1,42,-1
 695 0 l 1,43,-1
 523 0 l 1,32,-1
EndSplineSet
Validated: 5
Position2: "'cpsp' Capital Spacing lookup 0 subtable" dx=0 dy=0 dh=0 dv=0
EndChar

StartChar: uni048C
Encoding: 1164 1164 420
Width: 1200
GlyphClass: 2
Flags: W
AnchorPoint: "Anchor-1" 600 0 basechar 0
AnchorPoint: "Anchor-0" 600 1377 basechar 0
LayerCount: 2
Fore
SplineSet
251 0 m 1,0,-1
 251 1377 l 1,1,-1
 424 1377 l 1,2,-1
 424 141 l 1,3,-1
 623 141 l 2,4,5
 718 141 718 141 792.5 167 c 128,-1,6
 867 193 867 193 910 257.5 c 128,-1,7
 953 322 953 322 953 438 c 0,8,9
 953 594 953 594 866 656.5 c 128,-1,10
 779 719 779 719 631 719 c 2,11,-1
 392 719 l 1,12,-1
 392 857 l 1,13,-1
 627 857 l 2,14,15
 782 857 782 857 897 811.5 c 128,-1,16
 1012 766 1012 766 1075 674 c 128,-1,17
 1138 582 1138 582 1138 442 c 0,18,19
 1138 286 1138 286 1069.5 188.5 c 128,-1,20
 1001 91 1001 91 880.5 45.5 c 128,-1,21
 760 0 760 0 602 0 c 2,22,-1
 251 0 l 1,0,-1
60 1062 m 1,23,-1
 60 1188 l 1,24,-1
 251 1188 l 1,25,-1
 687 1188 l 1,26,-1
 687 1062 l 1,27,-1
 60 1062 l 1,23,-1
EndSplineSet
Validated: 5
Position2: "'cpsp' Capital Spacing lookup 0 subtable" dx=0 dy=0 dh=0 dv=0
EndChar

StartChar: uni048E
Encoding: 1166 1166 421
Width: 1200
GlyphClass: 2
Flags: W
AnchorPoint: "Anchor-1" 600 0 basechar 0
AnchorPoint: "Anchor-0" 600 1377 basechar 0
LayerCount: 2
Fore
SplineSet
573 958 m 1,0,-1
 731 958 l 1,1,-1
 1111 336 l 1,2,-1
 953 336 l 1,3,-1
 573 958 l 1,0,-1
926 947 m 0,4,5
 926 1057 926 1057 883.5 1120.5 c 128,-1,6
 841 1184 841 1184 768 1211.5 c 128,-1,7
 695 1239 695 1239 602 1239 c 2,8,-1
 405 1239 l 1,9,-1
 405 651 l 1,10,-1
 595 651 l 2,11,12
 761 651 761 651 843.5 717.5 c 128,-1,13
 926 784 926 784 926 947 c 0,4,5
1114 949 m 0,14,15
 1114 806 1114 806 1046 708.5 c 128,-1,16
 978 611 978 611 858 561 c 128,-1,17
 738 511 738 511 581 511 c 2,18,-1
 405 511 l 1,19,-1
 405 0 l 1,20,-1
 231 0 l 1,21,-1
 231 1377 l 1,22,-1
 583 1377 l 2,23,24
 829 1377 829 1377 971.5 1273.5 c 128,-1,25
 1114 1170 1114 1170 1114 949 c 0,14,15
EndSplineSet
Validated: 5
Position2: "'cpsp' Capital Spacing lookup 0 subtable" dx=0 dy=0 dh=0 dv=0
EndChar

StartChar: uni0431
Encoding: 1073 1073 423
Width: 1200
GlyphClass: 2
Flags: W
AnchorPoint: "Anchor-1" 600 0 basechar 0
AnchorPoint: "Anchor-0" 600 1477 basechar 0
LayerCount: 2
Fore
SplineSet
865 1500 m 1,0,-1
 939 1369 l 1,1,2
 904 1348 904 1348 859 1323.5 c 128,-1,3
 814 1299 814 1299 755.5 1273 c 128,-1,4
 697 1247 697 1247 619 1218 c 0,5,6
 555 1195 555 1195 505.5 1165 c 128,-1,7
 456 1135 456 1135 419.5 1086 c 128,-1,8
 383 1037 383 1037 360.5 957 c 128,-1,9
 338 877 338 877 328 755 c 1,10,-1
 335 746 l 1,11,-1
 335 511 l 2,12,13
 335 321 335 321 406 218.5 c 128,-1,14
 477 116 477 116 598 116 c 0,15,16
 671 116 671 116 730.5 147.5 c 128,-1,17
 790 179 790 179 826.5 261.5 c 128,-1,18
 863 344 863 344 863 497 c 0,19,20
 863 689 863 689 800.5 767 c 128,-1,21
 738 845 738 845 637 845 c 0,22,23
 569 845 569 845 503 814.5 c 128,-1,24
 437 784 437 784 382.5 715.5 c 128,-1,25
 328 647 328 647 293 532 c 1,26,-1
 291 705 l 1,27,28
 335 829 335 829 431.5 906.5 c 128,-1,29
 528 984 528 984 664 984 c 0,30,31
 779 984 779 984 865 926.5 c 128,-1,32
 951 869 951 869 999 761.5 c 128,-1,33
 1047 654 1047 654 1047 503 c 0,34,35
 1047 334 1047 334 990 216.5 c 128,-1,36
 933 99 933 99 831.5 38 c 128,-1,37
 730 -23 730 -23 598 -23 c 0,38,39
 471 -23 471 -23 370 39.5 c 128,-1,40
 269 102 269 102 210 235 c 128,-1,41
 151 368 151 368 151 577 c 0,42,43
 151 797 151 797 183.5 948.5 c 128,-1,44
 216 1100 216 1100 300 1197 c 128,-1,45
 384 1294 384 1294 537 1347 c 0,46,47
 614 1374 614 1374 669.5 1396 c 128,-1,48
 725 1418 725 1418 771 1442.5 c 128,-1,49
 817 1467 817 1467 865 1500 c 1,0,-1
EndSplineSet
Validated: 5
EndChar

StartChar: uni0432
Encoding: 1074 1074 424
Width: 1200
Flags: W
LayerCount: 2
Fore
SplineSet
581 1075 m 0,0,1
 712 1075 712 1075 808 1043 c 128,-1,2
 904 1011 904 1011 956.5 950.5 c 128,-1,3
 1009 890 1009 890 1009 801 c 0,4,5
 1009 719 1009 719 964 660.5 c 128,-1,6
 919 602 919 602 797 571 c 1,7,8
 933 558 933 558 999 494.5 c 128,-1,9
 1065 431 1065 431 1065 311 c 0,10,11
 1065 201 1065 201 1004 132.5 c 128,-1,12
 943 64 943 64 842.5 32 c 128,-1,13
 742 0 742 0 621 0 c 2,14,-1
 223 0 l 1,15,-1
 223 1039 l 1,16,17
 306 1054 306 1054 395.5 1064.5 c 128,-1,18
 485 1075 485 1075 581 1075 c 0,0,1
583 941 m 0,19,20
 523 941 523 941 481 938 c 128,-1,21
 439 935 439 935 391 929 c 1,22,-1
 391 136 l 1,23,-1
 617 136 l 2,24,25
 751 136 751 136 818 178 c 128,-1,26
 885 220 885 220 885 310 c 0,27,28
 885 387 885 387 845 425.5 c 128,-1,29
 805 464 805 464 744 477.5 c 128,-1,30
 683 491 683 491 619 491 c 2,31,-1
 359 491 l 1,32,-1
 359 623 l 1,33,-1
 608 623 l 2,34,35
 712 623 712 623 774 657.5 c 128,-1,36
 836 692 836 692 836 785 c 0,37,38
 836 871 836 871 773 906 c 128,-1,39
 710 941 710 941 583 941 c 0,19,20
EndSplineSet
Validated: 5
EndChar

StartChar: uni0433
Encoding: 1075 1075 425
Width: 1200
GlyphClass: 2
Flags: W
AnchorPoint: "Anchor-1" 400 0 basechar 0
AnchorPoint: "Anchor-0" 681 1053 basechar 0
LayerCount: 2
Fore
SplineSet
484 0 m 1,0,-1
 316 0 l 1,1,-1
 316 1053 l 1,2,-1
 1049 1053 l 1,3,-1
 1029 912 l 1,4,-1
 484 912 l 1,5,-1
 484 0 l 1,0,-1
EndSplineSet
Validated: 1
EndChar

StartChar: uni0491
Encoding: 1169 1169 427
Width: 1200
GlyphClass: 2
Flags: W
AnchorPoint: "Anchor-1" 400 0 basechar 0
AnchorPoint: "Anchor-0" 681 1053 basechar 0
LayerCount: 2
Fore
SplineSet
877 1031 m 1,0,-1
 877 1319 l 1,1,-1
 1049 1319 l 1,2,-1
 1049 1053 l 1,3,-1
 877 1031 l 1,0,-1
484 0 m 1,4,-1
 316 0 l 1,5,-1
 316 1053 l 1,6,-1
 1049 1053 l 1,7,-1
 1029 912 l 1,8,-1
 484 912 l 1,9,-1
 484 0 l 1,4,-1
EndSplineSet
Validated: 5
EndChar

StartChar: uni0434
Encoding: 1076 1076 428
Width: 1200
GlyphClass: 2
Flags: W
AnchorPoint: "Anchor-1" 600 -399 basechar 0
AnchorPoint: "Anchor-0" 600 1053 basechar 0
LayerCount: 2
Fore
SplineSet
993 1053 m 1,0,-1
 993 137 l 1,1,-1
 907 0 l 1,2,-1
 214 0 l 1,3,-1
 123 137 l 1,4,5
 171 179 171 179 202.5 240 c 128,-1,6
 234 301 234 301 255 412 c 128,-1,7
 276 523 276 523 289 713 c 2,8,-1
 313 1053 l 1,9,-1
 993 1053 l 1,0,-1
822 916 m 1,10,-1
 465 916 l 1,11,-1
 453 725 l 2,12,13
 444 580 444 580 430.5 481.5 c 128,-1,14
 417 383 417 383 396.5 318.5 c 128,-1,15
 376 254 376 254 344.5 212.5 c 128,-1,16
 313 171 313 171 267 137 c 1,17,-1
 822 137 l 1,18,-1
 822 916 l 1,10,-1
52 137 m 1,19,-1
 286 137 l 1,20,-1
 292 0 l 1,21,-1
 221 0 l 1,22,-1
 192 -294 l 1,23,-1
 52 -294 l 1,24,-1
 52 137 l 1,19,-1
1070 137 m 1,25,-1
 1070 -294 l 1,26,-1
 931 -294 l 1,27,-1
 901 0 l 1,28,-1
 831 0 l 1,29,-1
 836 137 l 1,30,-1
 1070 137 l 1,25,-1
EndSplineSet
Validated: 5
EndChar

StartChar: uni0436
Encoding: 1078 1078 432
Width: 1200
GlyphClass: 2
Flags: W
AnchorPoint: "Anchor-1" 600 0 basechar 0
AnchorPoint: "Anchor-0" 600 1053 basechar 0
LayerCount: 2
Fore
SplineSet
525 0 m 1,0,-1
 525 493 l 1,1,-1
 413 493 l 1,2,-1
 205 0 l 1,3,-1
 39 0 l 1,4,-1
 283 565 l 1,5,-1
 59 1053 l 1,6,-1
 229 1053 l 1,7,-1
 413 625 l 1,8,-1
 525 625 l 1,9,-1
 525 1053 l 1,10,-1
 675 1053 l 1,11,-1
 675 625 l 1,12,-1
 787 625 l 1,13,-1
 976 1053 l 1,14,-1
 1141 1053 l 1,15,-1
 917 565 l 1,16,-1
 1161 0 l 1,17,-1
 990 0 l 1,18,-1
 783 493 l 1,19,-1
 675 493 l 1,20,-1
 675 0 l 1,21,-1
 525 0 l 1,0,-1
EndSplineSet
Validated: 1
EndChar

StartChar: uni0437
Encoding: 1079 1079 433
Width: 1200
GlyphClass: 2
Flags: W
AnchorPoint: "Anchor-1" 601 0 basechar 0
AnchorPoint: "Anchor-0" 587 1054 basechar 0
LayerCount: 2
Fore
SplineSet
383 619 m 1,0,-1
 573 619 l 2,1,2
 679 619 679 619 740 663 c 128,-1,3
 801 707 801 707 801 777 c 0,4,5
 801 861 801 861 736 901 c 128,-1,6
 671 941 671 941 551 941 c 0,7,8
 472 941 472 941 385.5 917 c 128,-1,9
 299 893 299 893 227 847 c 1,10,-1
 147 948 l 1,11,12
 227 1007 227 1007 337 1041 c 128,-1,13
 447 1075 447 1075 557 1075 c 0,14,15
 674 1075 674 1075 768.5 1043.5 c 128,-1,16
 863 1012 863 1012 919 948.5 c 128,-1,17
 975 885 975 885 975 789 c 0,18,19
 975 700 975 700 914.5 644.5 c 128,-1,20
 854 589 854 589 762 562 c 1,21,22
 834 555 834 555 896 525 c 128,-1,23
 958 495 958 495 996 443 c 128,-1,24
 1034 391 1034 391 1034 315 c 0,25,26
 1034 204 1034 204 971.5 128.5 c 128,-1,27
 909 53 909 53 801.5 15 c 128,-1,28
 694 -23 694 -23 556 -23 c 0,29,30
 401 -23 401 -23 291.5 20.5 c 128,-1,31
 182 64 182 64 108 124 c 1,32,-1
 188 232 l 1,33,34
 262 179 262 179 352 147.5 c 128,-1,35
 442 116 442 116 561 116 c 0,36,37
 706 116 706 116 778.5 169 c 128,-1,38
 851 222 851 222 851 311 c 0,39,40
 851 398 851 398 783 440 c 128,-1,41
 715 482 715 482 583 482 c 2,42,-1
 371 482 l 1,43,-1
 383 619 l 1,0,-1
EndSplineSet
Validated: 1
EndChar

StartChar: uni0438
Encoding: 1080 1080 434
Width: 1200
GlyphClass: 2
Flags: W
AnchorPoint: "Anchor-1" 600 0 basechar 0
AnchorPoint: "Anchor-0" 600 1053 basechar 0
LayerCount: 2
Fore
SplineSet
999 1053 m 1,0,-1
 999 0 l 1,1,-1
 831 0 l 1,2,-1
 831 493 l 2,3,4
 831 596 831 596 837 691.5 c 128,-1,5
 843 787 843 787 853 859 c 1,6,-1
 405 0 l 1,7,-1
 201 0 l 1,8,-1
 201 1053 l 1,9,-1
 369 1053 l 1,10,-1
 369 561 l 2,11,12
 369 459 369 459 363 359.5 c 128,-1,13
 357 260 357 260 348 198 c 1,14,-1
 791 1053 l 1,15,-1
 999 1053 l 1,0,-1
EndSplineSet
Validated: 1
EndChar

StartChar: uni048B
Encoding: 1163 1163 437
Width: 1200
Flags: W
LayerCount: 2
Fore
SplineSet
967 1053 m 1,0,-1
 967 0 l 1,1,-1
 804 0 l 1,2,-1
 804 493 l 2,3,4
 804 633 804 633 810 739.5 c 128,-1,5
 816 846 816 846 823 898 c 1,6,-1
 389 0 l 1,7,-1
 186 0 l 1,8,-1
 186 1053 l 1,9,-1
 349 1053 l 1,10,-1
 349 561 l 2,11,12
 349 479 349 479 345.5 400.5 c 128,-1,13
 342 322 342 322 336 258.5 c 128,-1,14
 330 195 330 195 323 159 c 1,15,-1
 762 1053 l 1,16,-1
 967 1053 l 1,0,-1
572 1293 m 0,17,18
 496 1293 496 1293 432 1319 c 128,-1,19
 368 1345 368 1345 326.5 1395 c 128,-1,20
 285 1445 285 1445 277 1519 c 1,21,-1
 394 1544 l 1,22,23
 416 1479 416 1479 459 1451.5 c 128,-1,24
 502 1424 502 1424 572 1424 c 0,25,26
 643 1424 643 1424 689.5 1451.5 c 128,-1,27
 736 1479 736 1479 758 1544 c 1,28,-1
 873 1519 l 1,29,30
 865 1445 865 1445 823 1395 c 128,-1,31
 781 1345 781 1345 715.5 1319 c 128,-1,32
 650 1293 650 1293 572 1293 c 0,17,18
1122 132 m 1,33,-1
 990 -294 l 1,34,-1
 852 -294 l 1,35,-1
 921 0 l 1,36,-1
 850 0 l 1,37,-1
 856 132 l 1,38,-1
 1122 132 l 1,33,-1
EndSplineSet
Validated: 5
EndChar

StartChar: uni043A
Encoding: 1082 1082 438
Width: 1200
GlyphClass: 2
Flags: W
AnchorPoint: "Anchor-1" 600 0 basechar 0
AnchorPoint: "Anchor-0" 640 1053 basechar 0
LayerCount: 2
Fore
SplineSet
211 0 m 1,0,-1
 211 1053 l 1,1,-1
 379 1053 l 1,2,-1
 379 627 l 1,3,-1
 590 627 l 1,4,-1
 894 1053 l 1,5,-1
 1083 1053 l 1,6,-1
 729 565 l 1,7,-1
 1138 0 l 1,8,-1
 935 0 l 1,9,-1
 587 491 l 1,10,-1
 379 491 l 1,11,-1
 379 0 l 1,12,-1
 211 0 l 1,0,-1
EndSplineSet
Validated: 1
EndChar

StartChar: uni043B
Encoding: 1083 1083 440
Width: 1200
GlyphClass: 2
Flags: W
AnchorPoint: "Anchor-1" 600 0 basechar 0
AnchorPoint: "Anchor-0" 600 1053 basechar 0
LayerCount: 2
Fore
SplineSet
1020 1053 m 1,0,-1
 1020 0 l 1,1,-1
 852 0 l 1,2,-1
 852 913 l 1,3,-1
 458 913 l 1,4,-1
 434 635 l 2,5,6
 421 459 421 459 401.5 348.5 c 128,-1,7
 382 238 382 238 351 170 c 128,-1,8
 320 102 320 102 272.5 59.5 c 128,-1,9
 225 17 225 17 155 -22 c 1,10,-1
 84 86 l 1,11,12
 121 109 121 109 150 137.5 c 128,-1,13
 179 166 179 166 202.5 220 c 128,-1,14
 226 274 226 274 243.5 371 c 128,-1,15
 261 468 261 468 273 627 c 2,16,-1
 306 1053 l 1,17,-1
 1020 1053 l 1,0,-1
EndSplineSet
Validated: 1
EndChar

StartChar: uni043C
Encoding: 1084 1084 441
Width: 1200
GlyphClass: 2
Flags: W
AnchorPoint: "Anchor-1" 600 0 basechar 0
AnchorPoint: "Anchor-0" 600 1053 basechar 0
LayerCount: 2
Fore
SplineSet
1039 1053 m 1,0,-1
 1115 0 l 1,1,-1
 954 0 l 1,2,-1
 913 515 l 2,3,4
 907 600 907 600 904.5 690 c 128,-1,5
 902 780 902 780 904 886 c 1,6,-1
 896 886 l 1,7,-1
 687 177 l 1,8,-1
 519 177 l 1,9,-1
 287 886 l 1,10,-1
 279 886 l 1,11,12
 283 800 283 800 281 701.5 c 128,-1,13
 279 603 279 603 274 518 c 2,14,-1
 244 0 l 1,15,-1
 85 0 l 1,16,-1
 159 1053 l 1,17,-1
 380 1053 l 1,18,-1
 606 334 l 1,19,-1
 815 1053 l 1,20,-1
 1039 1053 l 1,0,-1
EndSplineSet
Validated: 33
EndChar

StartChar: uni043D
Encoding: 1085 1085 442
Width: 1200
GlyphClass: 2
Flags: W
LayerCount: 2
Fore
SplineSet
831 0 m 1,0,-1
 831 469 l 1,1,-1
 369 469 l 1,2,-1
 369 0 l 1,3,-1
 201 0 l 1,4,-1
 201 1053 l 1,5,-1
 369 1053 l 1,6,-1
 369 607 l 1,7,-1
 831 607 l 1,8,-1
 831 1053 l 1,9,-1
 999 1053 l 1,10,-1
 999 0 l 1,11,-1
 831 0 l 1,0,-1
EndSplineSet
Validated: 1
EndChar

StartChar: uni043F
Encoding: 1087 1087 444
Width: 1200
GlyphClass: 2
Flags: W
AnchorPoint: "Anchor-1" 600 0 basechar 0
AnchorPoint: "Anchor-0" 600 1053 basechar 0
LayerCount: 2
Fore
SplineSet
831 0 m 1,0,-1
 831 915 l 1,1,-1
 369 915 l 1,2,-1
 369 0 l 1,3,-1
 201 0 l 1,4,-1
 201 1053 l 1,5,-1
 999 1053 l 1,6,-1
 999 0 l 1,7,-1
 831 0 l 1,0,-1
EndSplineSet
Validated: 1
EndChar

StartChar: uni0442
Encoding: 1090 1090 447
Width: 1200
GlyphClass: 2
Flags: W
AnchorPoint: "Anchor-1" 600 0 basechar 0
AnchorPoint: "Anchor-0" 600 1053 basechar 0
LayerCount: 2
Fore
SplineSet
1081 1053 m 1,0,-1
 1061 913 l 1,1,-1
 684 913 l 1,2,-1
 684 0 l 1,3,-1
 516 0 l 1,4,-1
 516 913 l 1,5,-1
 131 913 l 1,6,-1
 131 1053 l 1,7,-1
 1081 1053 l 1,0,-1
EndSplineSet
Validated: 1
EndChar

StartChar: uni0444
Encoding: 1092 1092 450
Width: 1200
GlyphClass: 2
Flags: W
AnchorPoint: "Anchor-1" 600 -399 basechar 0
AnchorPoint: "Anchor-0" 600 1477 basechar 0
LayerCount: 2
Fore
SplineSet
524 1498 m 1,0,-1
 676 1477 l 1,1,-1
 676 969 l 1,2,3
 720 1024 720 1024 769.5 1049.5 c 128,-1,4
 819 1075 819 1075 872 1075 c 0,5,6
 977 1075 977 1075 1035.5 1007 c 128,-1,7
 1094 939 1094 939 1118.5 816 c 128,-1,8
 1143 693 1143 693 1143 528 c 0,9,10
 1143 362 1143 362 1110 238.5 c 128,-1,11
 1077 115 1077 115 1012.5 46 c 128,-1,12
 948 -23 948 -23 855 -23 c 0,13,14
 808 -23 808 -23 762 4.5 c 128,-1,15
 716 32 716 32 676 89 c 1,16,-1
 676 -403 l 1,17,-1
 524 -424 l 1,18,-1
 524 89 l 1,19,20
 484 32 484 32 435.5 4.5 c 128,-1,21
 387 -23 387 -23 341 -23 c 0,22,23
 248 -23 248 -23 184.5 46 c 128,-1,24
 121 115 121 115 89 238.5 c 128,-1,25
 57 362 57 362 57 528 c 0,26,27
 57 693 57 693 83.5 816 c 128,-1,28
 110 939 110 939 171 1007 c 128,-1,29
 232 1075 232 1075 337 1075 c 0,30,31
 389 1075 389 1075 435 1051.5 c 128,-1,32
 481 1028 481 1028 524 973 c 1,33,-1
 524 1498 l 1,0,-1
375 943 m 0,34,35
 304 943 304 943 268 847.5 c 128,-1,36
 232 752 232 752 232 528 c 256,37,38
 232 304 232 304 268 207.5 c 128,-1,39
 304 111 304 111 375 111 c 0,40,41
 419 111 419 111 451 137 c 128,-1,42
 483 163 483 163 524 213 c 1,43,-1
 524 849 l 1,44,45
 484 895 484 895 453 919 c 128,-1,46
 422 943 422 943 375 943 c 0,34,35
835 943 m 0,47,48
 786 943 786 943 751 919 c 128,-1,49
 716 895 716 895 676 847 c 1,50,-1
 676 213 l 1,51,52
 712 164 712 164 744 137.5 c 128,-1,53
 776 111 776 111 820 111 c 0,54,55
 893 111 893 111 932 208 c 128,-1,56
 971 305 971 305 971 528 c 0,57,58
 971 752 971 752 939 847.5 c 128,-1,59
 907 943 907 943 835 943 c 0,47,48
EndSplineSet
Validated: 1
EndChar

StartChar: uni0447
Encoding: 1095 1095 452
Width: 1200
GlyphClass: 2
Flags: W
AnchorPoint: "Anchor-1" 600 0 basechar 0
AnchorPoint: "Anchor-0" 574 1053 basechar 0
LayerCount: 2
Fore
SplineSet
978 1053 m 1,0,-1
 978 0 l 1,1,-1
 810 0 l 1,2,-1
 810 446 l 1,3,4
 750 392 750 392 664 359.5 c 128,-1,5
 578 327 578 327 479 327 c 0,6,7
 326 327 326 327 248 408.5 c 128,-1,8
 170 490 170 490 170 637 c 2,9,-1
 170 1053 l 1,10,-1
 338 1053 l 1,11,-1
 338 657 l 2,12,13
 338 552 338 552 382.5 506.5 c 128,-1,14
 427 461 427 461 521 461 c 0,15,16
 597 461 597 461 679.5 493 c 128,-1,17
 762 525 762 525 810 581 c 1,18,-1
 810 1053 l 1,19,-1
 978 1053 l 1,0,-1
EndSplineSet
Validated: 1
EndChar

StartChar: uni0448
Encoding: 1096 1096 454
Width: 1200
GlyphClass: 2
Flags: W
AnchorPoint: "Anchor-1" 600 0 basechar 0
AnchorPoint: "Anchor-0" 600 1053 basechar 0
LayerCount: 2
Fore
SplineSet
1103 1053 m 1,0,-1
 1103 0 l 1,1,-1
 97 0 l 1,2,-1
 97 1053 l 1,3,-1
 255 1053 l 1,4,-1
 255 140 l 1,5,-1
 522 140 l 1,6,-1
 522 1053 l 1,7,-1
 678 1053 l 1,8,-1
 678 140 l 1,9,-1
 945 140 l 1,10,-1
 945 1053 l 1,11,-1
 1103 1053 l 1,0,-1
EndSplineSet
Validated: 1
EndChar

StartChar: uni044C
Encoding: 1100 1100 457
Width: 1200
GlyphClass: 2
Flags: W
AnchorPoint: "Anchor-1" 600 0 basechar 0
AnchorPoint: "Anchor-0" 600 1053 basechar 0
LayerCount: 2
Fore
SplineSet
420 1053 m 1,0,-1
 420 721 l 1,1,-1
 627 721 l 2,2,3
 791 721 791 721 887.5 676.5 c 128,-1,4
 984 632 984 632 1025.5 551.5 c 128,-1,5
 1067 471 1067 471 1067 363 c 0,6,7
 1067 237 1067 237 1009 156.5 c 128,-1,8
 951 76 951 76 859 38 c 128,-1,9
 767 0 767 0 664 0 c 2,10,-1
 252 0 l 1,11,-1
 252 1053 l 1,12,-1
 420 1053 l 1,0,-1
624 589 m 2,13,-1
 420 589 l 1,14,-1
 420 135 l 1,15,-1
 645 135 l 2,16,17
 751 135 751 135 819 183.5 c 128,-1,18
 887 232 887 232 887 362 c 0,19,20
 887 475 887 475 831.5 532 c 128,-1,21
 776 589 776 589 624 589 c 2,13,-1
EndSplineSet
Validated: 1
EndChar

StartChar: uni044A
Encoding: 1098 1098 458
Width: 1200
Flags: W
LayerCount: 2
Fore
SplineSet
485 1053 m 1,0,-1
 485 722 l 1,1,-1
 609 722 l 2,2,3
 758 722 758 722 865.5 686.5 c 128,-1,4
 973 651 973 651 1032 573 c 128,-1,5
 1091 495 1091 495 1091 367 c 0,6,7
 1091 230 1091 230 1028.5 149.5 c 128,-1,8
 966 69 966 69 857.5 34.5 c 128,-1,9
 749 0 749 0 609 0 c 2,10,-1
 317 0 l 1,11,-1
 317 923 l 1,12,-1
 66 923 l 1,13,-1
 66 1053 l 1,14,-1
 485 1053 l 1,0,-1
629 590 m 2,15,-1
 485 590 l 1,16,-1
 485 135 l 1,17,-1
 628 135 l 2,18,19
 708 135 708 135 772 153.5 c 128,-1,20
 836 172 836 172 873 222 c 128,-1,21
 910 272 910 272 910 367 c 0,22,23
 910 490 910 490 835.5 540 c 128,-1,24
 761 590 761 590 629 590 c 2,15,-1
EndSplineSet
Validated: 1
EndChar

StartChar: uni044B
Encoding: 1099 1099 459
Width: 1200
GlyphClass: 2
Flags: W
AnchorPoint: "Anchor-1" 600 0 basechar 0
AnchorPoint: "Anchor-0" 600 1053 basechar 0
LayerCount: 2
Fore
SplineSet
284 1053 m 1,0,-1
 284 711 l 1,1,-1
 355 711 l 2,2,3
 564 711 564 711 683.5 629.5 c 128,-1,4
 803 548 803 548 803 365 c 0,5,6
 803 237 803 237 747.5 156.5 c 128,-1,7
 692 76 692 76 591.5 38 c 128,-1,8
 491 0 491 0 356 0 c 2,9,-1
 124 0 l 1,10,-1
 124 1053 l 1,11,-1
 284 1053 l 1,0,-1
363 586 m 2,12,-1
 284 586 l 1,13,-1
 284 131 l 1,14,-1
 361 131 l 2,15,16
 487 131 487 131 558 179 c 128,-1,17
 629 227 629 227 629 365 c 0,18,19
 629 485 629 485 564.5 535.5 c 128,-1,20
 500 586 500 586 363 586 c 2,12,-1
1076 1053 m 1,21,-1
 1076 0 l 1,22,-1
 914 0 l 1,23,-1
 914 1053 l 1,24,-1
 1076 1053 l 1,21,-1
EndSplineSet
Validated: 1
EndChar

StartChar: uni0459
Encoding: 1113 1113 460
Width: 1200
GlyphClass: 2
Flags: W
AnchorPoint: "Anchor-1" 600 0 basechar 0
AnchorPoint: "Anchor-0" 600 1053 basechar 0
LayerCount: 2
Fore
SplineSet
726 1053 m 1,0,-1
 726 712 l 1,1,-1
 753 712 l 2,2,3
 956 712 956 712 1070 629.5 c 128,-1,4
 1184 547 1184 547 1184 366 c 0,5,6
 1184 180 1184 180 1068 90 c 128,-1,7
 952 0 952 0 755 0 c 2,8,-1
 564 0 l 1,9,-1
 564 919 l 1,10,-1
 352 919 l 1,11,-1
 339 642 l 2,12,13
 332 470 332 470 313.5 358.5 c 128,-1,14
 295 247 295 247 262.5 177.5 c 128,-1,15
 230 108 230 108 182 62.5 c 128,-1,16
 134 17 134 17 69 -22 c 1,17,-1
 7 91 l 1,18,19
 35 115 35 115 61.5 145 c 128,-1,20
 88 175 88 175 110 230 c 128,-1,21
 132 285 132 285 148.5 380.5 c 128,-1,22
 165 476 165 476 173 631 c 2,23,-1
 196 1053 l 1,24,-1
 726 1053 l 1,0,-1
762 587 m 2,25,-1
 726 587 l 1,26,-1
 726 131 l 1,27,-1
 766 131 l 2,28,29
 883 131 883 131 946 179.5 c 128,-1,30
 1009 228 1009 228 1009 365 c 0,31,32
 1009 485 1009 485 950 536 c 128,-1,33
 891 587 891 587 762 587 c 2,25,-1
EndSplineSet
Validated: 1
EndChar

StartChar: uni045A
Encoding: 1114 1114 461
Width: 1200
GlyphClass: 2
Flags: W
AnchorPoint: "Anchor-1" 600 0 basechar 0
AnchorPoint: "Anchor-0" 600 1053 basechar 0
LayerCount: 2
Fore
SplineSet
732 1053 m 1,0,-1
 732 657 l 1,1,-1
 759 657 l 2,2,3
 892 657 892 657 988.5 624.5 c 128,-1,4
 1085 592 1085 592 1137.5 521 c 128,-1,5
 1190 450 1190 450 1190 331 c 0,6,7
 1190 209 1190 209 1136.5 136.5 c 128,-1,8
 1083 64 1083 64 987.5 32 c 128,-1,9
 892 0 892 0 765 0 c 2,10,-1
 571 0 l 1,11,-1
 571 533 l 1,12,-1
 311 533 l 1,13,-1
 311 0 l 1,14,-1
 145 0 l 1,15,-1
 145 1053 l 1,16,-1
 311 1053 l 1,17,-1
 311 657 l 1,18,-1
 571 657 l 1,19,-1
 571 1053 l 1,20,-1
 732 1053 l 1,0,-1
767 531 m 2,21,-1
 732 531 l 1,22,-1
 732 131 l 1,23,-1
 769 131 l 2,24,25
 844 131 844 131 899 143.5 c 128,-1,26
 954 156 954 156 984 199 c 128,-1,27
 1014 242 1014 242 1014 330 c 0,28,29
 1014 447 1014 447 954 489 c 128,-1,30
 894 531 894 531 767 531 c 2,21,-1
EndSplineSet
Validated: 1
EndChar

StartChar: uni0454
Encoding: 1108 1108 463
Width: 1200
GlyphClass: 2
Flags: W
AnchorPoint: "Anchor-1" 600 0 basechar 0
AnchorPoint: "Anchor-0" 600 1053 basechar 0
LayerCount: 2
Fore
SplineSet
679 1075 m 0,0,1
 779 1075 779 1075 868 1047 c 128,-1,2
 957 1019 957 1019 1033 959 c 1,3,-1
 953 851 l 1,4,5
 883 898 883 898 817.5 919 c 128,-1,6
 752 940 752 940 677 940 c 0,7,8
 555 940 555 940 467.5 856.5 c 128,-1,9
 380 773 380 773 359 606 c 1,10,-1
 840 606 l 1,11,-1
 840 473 l 1,12,-1
 357 473 l 1,13,14
 369 286 369 286 458.5 201.5 c 128,-1,15
 548 117 548 117 677 117 c 0,16,17
 755 117 755 117 820.5 139.5 c 128,-1,18
 886 162 886 162 955 209 c 1,19,-1
 1033 101 l 1,20,21
 960 39 960 39 863.5 8 c 128,-1,22
 767 -23 767 -23 682 -23 c 0,23,24
 523 -23 523 -23 411.5 44.5 c 128,-1,25
 300 112 300 112 241.5 234.5 c 128,-1,26
 183 357 183 357 183 522 c 0,27,28
 183 680 183 680 241 805.5 c 128,-1,29
 299 931 299 931 410 1003 c 128,-1,30
 521 1075 521 1075 679 1075 c 0,0,1
EndSplineSet
Validated: 1
EndChar

StartChar: uni044D
Encoding: 1101 1101 464
Width: 1200
GlyphClass: 2
Flags: W
AnchorPoint: "Anchor-1" 600 0 basechar 0
AnchorPoint: "Anchor-0" 589 1053 basechar 0
LayerCount: 2
Fore
SplineSet
556 1075 m 0,0,1
 718 1075 718 1075 823.5 1008 c 128,-1,2
 929 941 929 941 981 819.5 c 128,-1,3
 1033 698 1033 698 1033 533 c 256,4,5
 1033 368 1033 368 977.5 242.5 c 128,-1,6
 922 117 922 117 814 47 c 128,-1,7
 706 -23 706 -23 546 -23 c 0,8,9
 448 -23 448 -23 352 9 c 128,-1,10
 256 41 256 41 183 102 c 1,11,-1
 265 213 l 1,12,13
 330 165 330 165 399 141 c 128,-1,14
 468 117 468 117 545 117 c 0,15,16
 679 117 679 117 763 201.5 c 128,-1,17
 847 286 847 286 859 473 c 1,18,-1
 361 473 l 1,19,-1
 361 606 l 1,20,-1
 857 606 l 1,21,22
 842 777 842 777 763 858.5 c 128,-1,23
 684 940 684 940 555 940 c 0,24,25
 480 940 480 940 409 917.5 c 128,-1,26
 338 895 338 895 273 845 c 1,27,-1
 193 955 l 1,28,29
 265 1014 265 1014 362 1044.5 c 128,-1,30
 459 1075 459 1075 556 1075 c 0,0,1
EndSplineSet
Validated: 1
EndChar

StartChar: uni044E
Encoding: 1102 1102 469
Width: 1200
GlyphClass: 2
Flags: W
AnchorPoint: "Anchor-1" 600 0 basechar 0
AnchorPoint: "Anchor-0" 600 1053 basechar 0
LayerCount: 2
Fore
SplineSet
769 1075 m 0,0,1
 894 1075 894 1075 975.5 1009.5 c 128,-1,2
 1057 944 1057 944 1096.5 821 c 128,-1,3
 1136 698 1136 698 1136 527 c 0,4,5
 1136 363 1136 363 1097.5 239 c 128,-1,6
 1059 115 1059 115 978 46 c 128,-1,7
 897 -23 897 -23 769 -23 c 0,8,9
 649 -23 649 -23 572 41.5 c 128,-1,10
 495 106 495 106 456 217 c 128,-1,11
 417 328 417 328 411 468 c 1,12,-1
 277 468 l 1,13,-1
 277 0 l 1,14,-1
 111 0 l 1,15,-1
 111 1053 l 1,16,-1
 277 1053 l 1,17,-1
 277 608 l 1,18,-1
 411 608 l 1,19,20
 422 824 422 824 509.5 949.5 c 128,-1,21
 597 1075 597 1075 769 1075 c 0,0,1
769 937 m 0,22,23
 661 937 661 937 623 836 c 128,-1,24
 585 735 585 735 585 525 c 0,25,26
 585 398 585 398 600 306 c 128,-1,27
 615 214 615 214 655 164.5 c 128,-1,28
 695 115 695 115 769 115 c 0,29,30
 845 115 845 115 886.5 164.5 c 128,-1,31
 928 214 928 214 943 306.5 c 128,-1,32
 958 399 958 399 958 527 c 0,33,34
 958 735 958 735 916.5 836 c 128,-1,35
 875 937 875 937 769 937 c 0,22,23
EndSplineSet
Validated: 1
EndChar

StartChar: uni044F
Encoding: 1103 1103 470
Width: 1200
GlyphClass: 2
Flags: W
AnchorPoint: "Anchor-1" 600 0 basechar 0
AnchorPoint: "Anchor-0" 600 1053 basechar 0
LayerCount: 2
Fore
SplineSet
803 0 m 1,0,-1
 803 918 l 1,1,-1
 581 918 l 2,2,3
 468 918 468 918 407.5 874.5 c 128,-1,4
 347 831 347 831 347 733 c 0,5,6
 347 632 347 632 401 586.5 c 128,-1,7
 455 541 455 541 576 541 c 2,8,-1
 835 541 l 1,9,-1
 835 408 l 1,10,-1
 489 408 l 1,11,-1
 388 433 l 1,12,13
 277 475 277 475 223 551.5 c 128,-1,14
 169 628 169 628 169 735 c 0,15,16
 169 893 169 893 280.5 973 c 128,-1,17
 392 1053 392 1053 585 1053 c 2,18,-1
 971 1053 l 1,19,-1
 971 0 l 1,20,-1
 803 0 l 1,0,-1
105 0 m 1,21,-1
 372 475 l 1,22,-1
 537 436 l 1,23,-1
 295 0 l 1,24,-1
 105 0 l 1,21,-1
EndSplineSet
Validated: 5
EndChar

StartChar: uni0452
Encoding: 1106 1106 471
Width: 1200
GlyphClass: 2
Flags: W
AnchorPoint: "Anchor-1" 600 -399 basechar 0
AnchorPoint: "Anchor-0" 600 1477 basechar 0
LayerCount: 2
Fore
SplineSet
369 1493 m 1,0,-1
 369 1329 l 1,1,-1
 707 1329 l 1,2,-1
 707 1195 l 1,3,-1
 369 1195 l 1,4,-1
 369 916 l 1,5,6
 432 992 432 992 522 1033.5 c 128,-1,7
 612 1075 612 1075 705 1075 c 0,8,9
 859 1075 859 1075 930 993 c 128,-1,10
 1001 911 1001 911 1001 765 c 2,11,-1
 1001 52 l 2,12,13
 1001 -58 1001 -58 981.5 -133.5 c 128,-1,14
 962 -209 962 -209 923 -260.5 c 128,-1,15
 884 -312 884 -312 826.5 -349.5 c 128,-1,16
 769 -387 769 -387 692 -421 c 1,17,-1
 629 -299 l 1,18,19
 699 -267 699 -267 744 -231 c 128,-1,20
 789 -195 789 -195 811 -131.5 c 128,-1,21
 833 -68 833 -68 833 48 c 2,22,-1
 833 755 l 2,23,24
 833 853 833 853 789.5 898 c 128,-1,25
 746 943 746 943 651 943 c 0,26,27
 591 943 591 943 537 916 c 128,-1,28
 483 889 483 889 440 849 c 128,-1,29
 397 809 397 809 369 767 c 1,30,-1
 369 0 l 1,31,-1
 201 0 l 1,32,-1
 201 1195 l 1,33,-1
 39 1195 l 1,34,-1
 39 1329 l 1,35,-1
 201 1329 l 1,36,-1
 201 1475 l 1,37,-1
 369 1493 l 1,0,-1
EndSplineSet
Validated: 1
EndChar

StartChar: uni0463
Encoding: 1123 1123 473
Width: 1200
GlyphClass: 2
Flags: W
AnchorPoint: "Anchor-1" 600 0 basechar 0
AnchorPoint: "Anchor-0" 374 1304 basechar 0
LayerCount: 2
Fore
SplineSet
458 1310 m 1,0,-1
 458 1071 l 1,1,-1
 724 1071 l 1,2,-1
 703 937 l 1,3,-1
 458 937 l 1,4,-1
 458 711 l 1,5,-1
 599 711 l 2,6,7
 746 711 746 711 853.5 675.5 c 128,-1,8
 961 640 961 640 1020 563.5 c 128,-1,9
 1079 487 1079 487 1079 361 c 0,10,11
 1079 226 1079 226 1016 146.5 c 128,-1,12
 953 67 953 67 844.5 33.5 c 128,-1,13
 736 0 736 0 597 0 c 2,14,-1
 290 0 l 1,15,-1
 290 937 l 1,16,-1
 117 937 l 1,17,-1
 117 1071 l 1,18,-1
 290 1071 l 1,19,-1
 290 1289 l 1,20,-1
 458 1310 l 1,0,-1
618 579 m 2,21,-1
 458 579 l 1,22,-1
 458 135 l 1,23,-1
 617 135 l 2,24,25
 697 135 697 135 760.5 152.5 c 128,-1,26
 824 170 824 170 861.5 219 c 128,-1,27
 899 268 899 268 899 360 c 0,28,29
 899 480 899 480 824.5 529.5 c 128,-1,30
 750 579 750 579 618 579 c 2,21,-1
EndSplineSet
Validated: 1
EndChar

StartChar: uni0465
Encoding: 1125 1125 474
Width: 1200
GlyphClass: 2
Flags: W
AnchorPoint: "Anchor-1" 600 0 basechar 0
AnchorPoint: "Anchor-0" 600 1053 basechar 0
LayerCount: 2
Fore
SplineSet
321 1053 m 1,0,-1
 321 608 l 1,1,-1
 512 608 l 1,2,-1
 512 468 l 1,3,-1
 321 468 l 1,4,-1
 321 0 l 1,5,-1
 151 0 l 1,6,-1
 151 1053 l 1,7,-1
 321 1053 l 1,0,-1
878 1075 m 0,8,9
 962 1075 962 1075 1032 1047 c 128,-1,10
 1102 1019 1102 1019 1168 962 c 1,11,-1
 1083 857 l 1,12,13
 1034 896 1034 896 985 916.5 c 128,-1,14
 936 937 936 937 874 937 c 0,15,16
 755 937 755 937 694.5 849.5 c 128,-1,17
 634 762 634 762 617 606 c 1,18,-1
 1012 606 l 1,19,-1
 1012 473 l 1,20,-1
 615 473 l 1,21,22
 621 288 621 288 692 204.5 c 128,-1,23
 763 121 763 121 871 121 c 0,24,25
 933 121 933 121 980 142 c 128,-1,26
 1027 163 1027 163 1071 203 c 1,27,-1
 1161 101 l 1,28,29
 1099 39 1099 39 1021.5 8 c 128,-1,30
 944 -23 944 -23 872 -23 c 0,31,32
 741 -23 741 -23 645.5 43.5 c 128,-1,33
 550 110 550 110 498.5 232.5 c 128,-1,34
 447 355 447 355 447 522 c 0,35,36
 447 680 447 680 495.5 805.5 c 128,-1,37
 544 931 544 931 640.5 1003 c 128,-1,38
 737 1075 737 1075 878 1075 c 0,8,9
EndSplineSet
Validated: 5
EndChar

StartChar: uni0467
Encoding: 1127 1127 475
Width: 1200
GlyphClass: 2
Flags: W
AnchorPoint: "Anchor-1" 600 0 basechar 0
AnchorPoint: "Anchor-0" 600 1053 basechar 0
LayerCount: 2
Fore
SplineSet
699 1053 m 1,0,-1
 1130 0 l 1,1,-1
 951 0 l 1,2,-1
 599 915 l 1,3,-1
 244 0 l 1,4,-1
 72 0 l 1,5,-1
 505 1053 l 1,6,-1
 699 1053 l 1,0,-1
853 543 m 1,7,-1
 853 409 l 1,8,-1
 350 409 l 1,9,-1
 350 543 l 1,10,-1
 853 543 l 1,7,-1
524 503 m 1,11,-1
 667 503 l 1,12,-1
 667 0 l 1,13,-1
 524 0 l 1,14,-1
 524 503 l 1,11,-1
EndSplineSet
Validated: 5
EndChar

StartChar: uni0469
Encoding: 1129 1129 476
Width: 1200
GlyphClass: 2
Flags: W
AnchorPoint: "Anchor-1" 600 0 basechar 0
AnchorPoint: "Anchor-0" 600 1053 basechar 0
LayerCount: 2
Fore
SplineSet
696 0 m 1,0,-1
 696 499 l 1,1,-1
 832 499 l 1,2,-1
 832 0 l 1,3,-1
 696 0 l 1,0,-1
104 0 m 1,4,-1
 104 1053 l 1,5,-1
 269 1053 l 1,6,-1
 269 548 l 1,7,-1
 1022 548 l 1,8,-1
 1022 409 l 1,9,-1
 269 409 l 1,10,-1
 269 0 l 1,11,-1
 104 0 l 1,4,-1
353 0 m 1,12,-1
 669 1053 l 1,13,-1
 875 1053 l 1,14,-1
 1188 0 l 1,15,-1
 1025 0 l 1,16,-1
 767 920 l 1,17,-1
 508 0 l 1,18,-1
 353 0 l 1,12,-1
EndSplineSet
Validated: 5
EndChar

StartChar: uni046B
Encoding: 1131 1131 477
Width: 1200
GlyphClass: 2
Flags: W
AnchorPoint: "Anchor-1" 600 0 basechar 0
AnchorPoint: "Anchor-0" 600 1053 basechar 0
LayerCount: 2
Fore
SplineSet
43 0 m 1,0,-1
 263 597 l 1,1,-1
 939 597 l 1,2,-1
 1156 0 l 1,3,-1
 1002 0 l 1,4,-1
 833 465 l 1,5,-1
 683 465 l 1,6,-1
 683 0 l 1,7,-1
 517 0 l 1,8,-1
 517 465 l 1,9,-1
 369 465 l 1,10,-1
 202 0 l 1,11,-1
 43 0 l 1,0,-1
509 499 m 1,12,-1
 202 961 l 1,13,-1
 202 1053 l 1,14,-1
 307 1053 l 1,15,-1
 598 597 l 1,16,-1
 887 1053 l 1,17,-1
 988 1053 l 1,18,-1
 988 961 l 1,19,-1
 678 499 l 1,20,-1
 509 499 l 1,12,-1
297 925 m 1,21,-1
 282 1053 l 1,22,-1
 907 1053 l 1,23,-1
 903 925 l 1,24,-1
 297 925 l 1,21,-1
EndSplineSet
Validated: 5
EndChar

StartChar: uni046D
Encoding: 1133 1133 478
Width: 1200
GlyphClass: 2
Flags: W
AnchorPoint: "Anchor-1" 600 0 basechar 0
AnchorPoint: "Anchor-0" 600 1053 basechar 0
LayerCount: 2
Fore
SplineSet
70 0 m 1,0,-1
 70 1053 l 1,1,-1
 235 1053 l 1,2,-1
 235 597 l 1,3,-1
 559 597 l 1,4,-1
 559 458 l 1,5,-1
 235 458 l 1,6,-1
 235 0 l 1,7,-1
 70 0 l 1,0,-1
678 499 m 1,8,-1
 406 961 l 1,9,-1
 406 1053 l 1,10,-1
 515 1053 l 1,11,-1
 767 597 l 1,12,-1
 1013 1053 l 1,13,-1
 1115 1053 l 1,14,-1
 1115 961 l 1,15,-1
 845 499 l 1,16,-1
 678 499 l 1,8,-1
512 928 m 1,17,-1
 505 1053 l 1,18,-1
 1044 1053 l 1,19,-1
 1035 928 l 1,20,-1
 512 928 l 1,17,-1
307 0 m 1,21,-1
 516 597 l 1,22,-1
 1021 597 l 1,23,-1
 1223 0 l 1,24,-1
 1064 0 l 1,25,-1
 917 458 l 1,26,-1
 844 458 l 1,27,-1
 844 0 l 1,28,-1
 688 0 l 1,29,-1
 688 458 l 1,30,-1
 615 458 l 1,31,-1
 467 0 l 1,32,-1
 307 0 l 1,21,-1
EndSplineSet
Validated: 5
EndChar

StartChar: uni0475
Encoding: 1141 1141 482
Width: 1200
GlyphClass: 2
Flags: W
AnchorPoint: "Anchor-1" 600 0 basechar 0
AnchorPoint: "Anchor-0" 599 1053 basechar 0
LayerCount: 2
Fore
SplineSet
481 0 m 1,0,-1
 114 1053 l 1,1,-1
 297 1053 l 1,2,-1
 583 155 l 1,3,-1
 832 935 l 2,4,5
 866 1048 866 1048 913.5 1097.5 c 128,-1,6
 961 1147 961 1147 1056 1147 c 0,7,8
 1090 1147 1090 1147 1124 1137.5 c 128,-1,9
 1158 1128 1158 1128 1193 1110 c 1,10,-1
 1139 998 l 1,11,12
 1123 1005 1123 1005 1107 1008 c 128,-1,13
 1091 1011 1091 1011 1075 1011 c 0,14,15
 1041 1011 1041 1011 1022 990 c 128,-1,16
 1003 969 1003 969 987 921 c 2,17,-1
 685 0 l 1,18,-1
 481 0 l 1,0,-1
EndSplineSet
Validated: 1
EndChar

StartChar: uni0479
Encoding: 1145 1145 484
Width: 1200
Flags: W
LayerCount: 2
Fore
SplineSet
541 -423 m 1,0,-1
 517 -298 l 1,1,2
 670 -267 670 -267 749.5 -203.5 c 128,-1,3
 829 -140 829 -140 862 0 c 1,4,-1
 787 0 l 1,5,-1
 597 1053 l 1,6,-1
 775 1053 l 1,7,-1
 909 128 l 1,8,-1
 1039 1053 l 1,9,-1
 1211 1053 l 1,10,-1
 1025 13 l 2,11,12
 1001 -121 1001 -121 939.5 -213.5 c 128,-1,13
 878 -306 878 -306 778.5 -358 c 128,-1,14
 679 -410 679 -410 541 -423 c 1,0,-1
307 -23 m 0,15,16
 196 -23 196 -23 128 45 c 128,-1,17
 60 113 60 113 29.5 236.5 c 128,-1,18
 -1 360 -1 360 -1 525 c 0,19,20
 -1 688 -1 688 30 812 c 128,-1,21
 61 936 61 936 130 1005.5 c 128,-1,22
 199 1075 199 1075 309 1075 c 0,23,24
 473 1075 473 1075 543.5 926 c 128,-1,25
 614 777 614 777 614 527 c 0,26,27
 614 366 614 366 582 242 c 128,-1,28
 550 118 550 118 482.5 47.5 c 128,-1,29
 415 -23 415 -23 307 -23 c 0,15,16
307 112 m 256,30,31
 388 112 388 112 415.5 213 c 128,-1,32
 443 314 443 314 443 527 c 0,33,34
 443 741 443 741 415.5 842 c 128,-1,35
 388 943 388 943 309 943 c 0,36,37
 228 943 228 943 198.5 842 c 128,-1,38
 169 741 169 741 169 525 c 0,39,40
 169 314 169 314 197.5 213 c 128,-1,41
 226 112 226 112 307 112 c 256,30,31
EndSplineSet
Validated: 1
EndChar

StartChar: uni0493
Encoding: 1171 1171 485
Width: 1200
GlyphClass: 2
Flags: W
AnchorPoint: "Anchor-1" 461 0 basechar 0
AnchorPoint: "Anchor-0" 742 1053 basechar 0
LayerCount: 2
Fore
SplineSet
795 604 m 1,0,-1
 795 471 l 1,1,-1
 189 471 l 1,2,-1
 189 604 l 1,3,-1
 377 604 l 1,4,-1
 795 604 l 1,0,-1
545 0 m 1,5,-1
 377 0 l 1,6,-1
 377 1053 l 1,7,-1
 1111 1053 l 1,8,-1
 1090 912 l 1,9,-1
 545 912 l 1,10,-1
 545 0 l 1,5,-1
EndSplineSet
Validated: 5
EndChar

StartChar: uni0495
Encoding: 1173 1173 486
Width: 1200
GlyphClass: 2
Flags: W
AnchorPoint: "Anchor-1" 600 -399 basechar 0
AnchorPoint: "Anchor-0" 600 1053 basechar 0
LayerCount: 2
Fore
SplineSet
825 0 m 1,0,-1
 825 369 l 2,1,2
 825 476 825 476 778.5 520.5 c 128,-1,3
 732 565 732 565 656 565 c 0,4,5
 561 565 561 565 495 516 c 128,-1,6
 429 467 429 467 373 398 c 1,7,-1
 339 500 l 1,8,9
 392 581 392 581 481 640 c 128,-1,10
 570 699 570 699 691 699 c 0,11,12
 777 699 777 699 845.5 662 c 128,-1,13
 914 625 914 625 953.5 555 c 128,-1,14
 993 485 993 485 993 385 c 2,15,-1
 993 0 l 1,16,-1
 825 0 l 1,0,-1
205 0 m 1,17,-1
 205 1053 l 1,18,-1
 373 1053 l 1,19,-1
 373 0 l 1,20,-1
 205 0 l 1,17,-1
373 919 m 1,21,-1
 205 1053 l 1,22,-1
 849 1053 l 1,23,-1
 827 919 l 1,24,-1
 373 919 l 1,21,-1
701 -423 m 0,25,26
 624 -423 624 -423 568.5 -399.5 c 128,-1,27
 513 -376 513 -376 477 -349 c 1,28,-1
 542 -240 l 1,29,30
 578 -260 578 -260 611 -272.5 c 128,-1,31
 644 -285 644 -285 694 -285 c 0,32,33
 754 -285 754 -285 789.5 -250 c 128,-1,34
 825 -215 825 -215 825 -135 c 2,35,-1
 825 2 l 1,36,-1
 993 2 l 1,37,-1
 993 -121 l 2,38,39
 993 -271 993 -271 912.5 -347 c 128,-1,40
 832 -423 832 -423 701 -423 c 0,25,26
EndSplineSet
Validated: 5
EndChar

StartChar: uni0497
Encoding: 1175 1175 487
Width: 1200
Flags: W
LayerCount: 2
Fore
SplineSet
525 0 m 1,0,-1
 525 493 l 1,1,-1
 413 493 l 1,2,-1
 213 0 l 1,3,-1
 48 0 l 1,4,-1
 283 565 l 1,5,-1
 67 1053 l 1,6,-1
 239 1053 l 1,7,-1
 413 625 l 1,8,-1
 525 625 l 1,9,-1
 525 1053 l 1,10,-1
 675 1053 l 1,11,-1
 675 625 l 1,12,-1
 787 625 l 1,13,-1
 967 1053 l 1,14,-1
 1133 1053 l 1,15,-1
 917 565 l 1,16,-1
 1151 0 l 1,17,-1
 981 0 l 1,18,-1
 783 493 l 1,19,-1
 675 493 l 1,20,-1
 675 0 l 1,21,-1
 525 0 l 1,0,-1
1203 137 m 1,22,-1
 1203 -294 l 1,23,-1
 1081 -294 l 1,24,-1
 1052 0 l 1,25,-1
 981 0 l 1,26,-1
 986 137 l 1,27,-1
 1203 137 l 1,22,-1
EndSplineSet
Validated: 5
EndChar

StartChar: uni049D
Encoding: 1181 1181 490
Width: 1200
GlyphClass: 2
Flags: W
AnchorPoint: "Anchor-1" 600 0 basechar 0
AnchorPoint: "Anchor-0" 600 1053 basechar 0
LayerCount: 2
Fore
SplineSet
211 0 m 1,0,-1
 211 1053 l 1,1,-1
 381 1053 l 1,2,-1
 381 629 l 1,3,-1
 471 629 l 1,4,-1
 471 859 l 1,5,-1
 565 859 l 1,6,-1
 565 629 l 1,7,-1
 621 629 l 1,8,-1
 907 1053 l 1,9,-1
 1083 1053 l 1,10,-1
 757 568 l 1,11,-1
 1138 0 l 1,12,-1
 954 0 l 1,13,-1
 621 488 l 1,14,-1
 565 488 l 1,15,-1
 565 241 l 1,16,-1
 471 241 l 1,17,-1
 471 488 l 1,18,-1
 381 488 l 1,19,-1
 381 0 l 1,20,-1
 211 0 l 1,0,-1
EndSplineSet
Validated: 1
EndChar

StartChar: uni049F
Encoding: 1183 1183 491
Width: 1200
Flags: W
LayerCount: 2
Fore
SplineSet
713 565 m 1,0,-1
 1123 0 l 1,1,-1
 919 0 l 1,2,-1
 571 491 l 1,3,-1
 403 491 l 1,4,-1
 403 0 l 1,5,-1
 235 0 l 1,6,-1
 235 1477 l 1,7,-1
 403 1498 l 1,8,-1
 403 627 l 1,9,-1
 575 627 l 1,10,-1
 879 1053 l 1,11,-1
 1068 1053 l 1,12,-1
 713 565 l 1,0,-1
235 1269 m 1,13,-1
 701 1269 l 1,14,-1
 701 1135 l 1,15,-1
 403 1135 l 1,16,-1
 77 1135 l 1,17,-1
 77 1269 l 1,18,-1
 235 1269 l 1,13,-1
EndSplineSet
Validated: 5
EndChar

StartChar: uni04A1
Encoding: 1185 1185 492
Width: 1200
Flags: W
LayerCount: 2
Fore
SplineSet
266 0 m 1,0,-1
 266 1033 l 1,1,-1
 434 1053 l 1,2,-1
 434 627 l 1,3,-1
 625 627 l 1,4,-1
 931 1053 l 1,5,-1
 1121 1053 l 1,6,-1
 763 565 l 1,7,-1
 1175 0 l 1,8,-1
 971 0 l 1,9,-1
 621 491 l 1,10,-1
 434 491 l 1,11,-1
 434 0 l 1,12,-1
 266 0 l 1,0,-1
266 923 m 1,13,-1
 15 923 l 1,14,-1
 15 1053 l 1,15,-1
 434 1053 l 1,16,-1
 266 923 l 1,13,-1
EndSplineSet
Validated: 5
EndChar

StartChar: uni04A5
Encoding: 1189 1189 494
Width: 1200
Flags: W
LayerCount: 2
Fore
SplineSet
917 915 m 1,0,-1
 749 1053 l 1,1,-1
 1205 1053 l 1,2,-1
 1188 915 l 1,3,-1
 917 915 l 1,0,-1
749 0 m 1,4,-1
 749 469 l 1,5,-1
 346 469 l 1,6,-1
 346 0 l 1,7,-1
 178 0 l 1,8,-1
 178 1053 l 1,9,-1
 346 1053 l 1,10,-1
 346 607 l 1,11,-1
 749 607 l 1,12,-1
 749 1053 l 1,13,-1
 917 1053 l 1,14,-1
 917 0 l 1,15,-1
 749 0 l 1,4,-1
EndSplineSet
Validated: 5
EndChar

StartChar: uni04A7
Encoding: 1191 1191 496
Width: 1200
GlyphClass: 2
Flags: W
AnchorPoint: "Anchor-1" 600 -399 basechar 0
AnchorPoint: "Anchor-0" 600 1053 basechar 0
LayerCount: 2
Fore
SplineSet
56 0 m 1,0,-1
 56 1053 l 1,1,-1
 713 1053 l 1,2,-1
 713 0 l 1,3,-1
 539 0 l 1,4,-1
 539 914 l 1,5,-1
 229 914 l 1,6,-1
 229 0 l 1,7,-1
 56 0 l 1,0,-1
896 -423 m 0,8,9
 817 -423 817 -423 761.5 -399.5 c 128,-1,10
 706 -376 706 -376 670 -349 c 1,11,-1
 737 -238 l 1,12,13
 773 -258 773 -258 805.5 -270.5 c 128,-1,14
 838 -283 838 -283 887 -283 c 0,15,16
 950 -283 950 -283 985.5 -248 c 128,-1,17
 1021 -213 1021 -213 1021 -131 c 2,18,-1
 1021 2 l 1,19,-1
 1192 2 l 1,20,-1
 1192 -119 l 2,21,22
 1192 -270 1192 -270 1111 -346.5 c 128,-1,23
 1030 -423 1030 -423 896 -423 c 0,8,9
1021 0 m 1,24,-1
 1021 409 l 2,25,26
 1021 484 1021 484 988 523.5 c 128,-1,27
 955 563 955 563 892 563 c 0,28,29
 812 563 812 563 758 523.5 c 128,-1,30
 704 484 704 484 649 414 c 1,31,-1
 641 523 l 1,32,33
 692 605 692 605 759 652 c 128,-1,34
 826 699 826 699 933 699 c 0,35,36
 1047 699 1047 699 1119.5 622.5 c 128,-1,37
 1192 546 1192 546 1192 423 c 2,38,-1
 1192 0 l 1,39,-1
 1021 0 l 1,24,-1
EndSplineSet
Validated: 5
EndChar

StartChar: uni04A9
Encoding: 1193 1193 497
Width: 1200
GlyphClass: 2
Flags: W
AnchorPoint: "Anchor-1" 600 -399 basechar 0
AnchorPoint: "Anchor-0" 600 1053 basechar 0
LayerCount: 2
Fore
SplineSet
919 -237 m 1,0,1
 774 -82 774 -82 686 34.5 c 128,-1,2
 598 151 598 151 558 246 c 128,-1,3
 518 341 518 341 518 429 c 0,4,5
 518 510 518 510 552.5 578.5 c 128,-1,6
 587 647 587 647 653 689 c 128,-1,7
 719 731 719 731 813 731 c 0,8,9
 945 731 945 731 1023 650.5 c 128,-1,10
 1101 570 1101 570 1101 437 c 0,11,12
 1101 348 1101 348 1064.5 265.5 c 128,-1,13
 1028 183 1028 183 960 118 c 128,-1,14
 892 53 892 53 796.5 15 c 128,-1,15
 701 -23 701 -23 582 -23 c 1,16,-1
 589 115 l 1,17,18
 711 115 711 115 787.5 158 c 128,-1,19
 864 201 864 201 899.5 274.5 c 128,-1,20
 935 348 935 348 935 437 c 0,21,22
 935 511 935 511 903.5 554 c 128,-1,23
 872 597 872 597 813 597 c 0,24,25
 750 597 750 597 717.5 551 c 128,-1,26
 685 505 685 505 685 429 c 0,27,28
 685 351 685 351 717.5 271.5 c 128,-1,29
 750 192 750 192 826 91 c 128,-1,30
 902 -10 902 -10 1033 -153 c 1,31,-1
 919 -237 l 1,0,1
739 895 m 1,32,33
 702 914 702 914 661.5 924.5 c 128,-1,34
 621 935 621 935 571 935 c 0,35,36
 444 935 444 935 370.5 833 c 128,-1,37
 297 731 297 731 297 522 c 0,38,39
 297 312 297 312 373 213.5 c 128,-1,40
 449 115 449 115 589 115 c 1,41,-1
 582 -23 l 1,42,43
 438 -23 438 -23 333 41 c 128,-1,44
 228 105 228 105 171.5 226 c 128,-1,45
 115 347 115 347 115 517 c 0,46,47
 115 685 115 685 169 811 c 128,-1,48
 223 937 223 937 324 1006 c 128,-1,49
 425 1075 425 1075 564 1075 c 0,50,51
 633 1075 633 1075 693 1062 c 128,-1,52
 753 1049 753 1049 808 1017 c 1,53,-1
 739 895 l 1,32,33
EndSplineSet
Validated: 5
EndChar

StartChar: ustraitcy
Encoding: 1199 1199 500
Width: 1200
GlyphClass: 2
Flags: W
AnchorPoint: "Anchor-1" 600 -399 basechar 0
AnchorPoint: "Anchor-0" 600 1053 basechar 0
LayerCount: 2
Fore
SplineSet
518 -424 m 1,0,-1
 518 33 l 1,1,-1
 115 1053 l 1,2,-1
 293 1053 l 1,3,-1
 604 193 l 1,4,-1
 911 1053 l 1,5,-1
 1085 1053 l 1,6,-1
 682 33 l 1,7,-1
 682 -403 l 1,8,-1
 518 -424 l 1,0,-1
EndSplineSet
Validated: 1
EndChar

StartChar: ustraitstrokecy
Encoding: 1201 1201 501
Width: 1200
GlyphClass: 2
Flags: W
AnchorPoint: "Anchor-1" 600 -399 basechar 0
AnchorPoint: "Anchor-0" 600 1053 basechar 0
LayerCount: 2
Fore
SplineSet
892 144 m 1,0,-1
 892 9 l 1,1,-1
 682 9 l 1,2,-1
 307 9 l 1,3,-1
 307 144 l 1,4,-1
 892 144 l 1,0,-1
518 -424 m 1,5,-1
 518 33 l 1,6,-1
 115 1053 l 1,7,-1
 293 1053 l 1,8,-1
 604 193 l 1,9,-1
 911 1053 l 1,10,-1
 1085 1053 l 1,11,-1
 682 33 l 1,12,-1
 682 -403 l 1,13,-1
 518 -424 l 1,5,-1
EndSplineSet
Validated: 5
EndChar

StartChar: uni04B5
Encoding: 1205 1205 503
Width: 1200
GlyphClass: 2
Flags: W
AnchorPoint: "Anchor-1" 600 -399 basechar 0
AnchorPoint: "Anchor-0" 600 1053 basechar 0
LayerCount: 2
Fore
SplineSet
677 1053 m 1,0,-1
 659 921 l 1,1,-1
 421 921 l 1,2,-1
 251 921 l 1,3,-1
 0 921 l 1,4,-1
 0 1053 l 1,5,-1
 677 1053 l 1,0,-1
819 1053 m 1,6,-1
 989 1053 l 1,7,-1
 989 0 l 1,8,-1
 251 0 l 1,9,-1
 251 1053 l 1,10,-1
 421 1053 l 1,11,-1
 421 140 l 1,12,-1
 819 140 l 1,13,-1
 819 1053 l 1,6,-1
1109 137 m 1,14,-1
 1109 -294 l 1,15,-1
 969 -294 l 1,16,-1
 940 0 l 1,17,-1
 869 0 l 1,18,-1
 871 137 l 1,19,-1
 1109 137 l 1,14,-1
EndSplineSet
Validated: 5
EndChar

StartChar: uni04B9
Encoding: 1209 1209 505
Width: 1200
GlyphClass: 2
Flags: W
AnchorPoint: "Anchor-1" 600 0 basechar 0
AnchorPoint: "Anchor-0" 574 1053 basechar 0
LayerCount: 2
Fore
SplineSet
610 777 m 1,0,-1
 610 182 l 1,1,-1
 501 182 l 1,2,-1
 501 777 l 1,3,-1
 610 777 l 1,0,-1
978 1053 m 1,4,-1
 978 0 l 1,5,-1
 810 0 l 1,6,-1
 810 446 l 1,7,8
 750 392 750 392 664 359.5 c 128,-1,9
 578 327 578 327 479 327 c 0,10,11
 326 327 326 327 248 408.5 c 128,-1,12
 170 490 170 490 170 637 c 2,13,-1
 170 1053 l 1,14,-1
 338 1053 l 1,15,-1
 338 657 l 2,16,17
 338 552 338 552 382.5 506.5 c 128,-1,18
 427 461 427 461 521 461 c 0,19,20
 597 461 597 461 679.5 493 c 128,-1,21
 762 525 762 525 810 581 c 1,22,-1
 810 1053 l 1,23,-1
 978 1053 l 1,4,-1
EndSplineSet
Validated: 5
EndChar

StartChar: uni04BB
Encoding: 1211 1211 506
Width: 1200
GlyphClass: 2
Flags: W
AnchorPoint: "Anchor-1" 600 0 basechar 0
AnchorPoint: "Anchor-0" 600 1477 basechar 0
LayerCount: 2
Fore
SplineSet
832 0 m 1,0,-1
 832 607 l 2,1,2
 832 726 832 726 783.5 773.5 c 128,-1,3
 735 821 735 821 653 821 c 0,4,5
 555 821 555 821 489 769 c 128,-1,6
 423 717 423 717 369 633 c 1,7,-1
 335 735 l 1,8,9
 389 833 389 833 476.5 893.5 c 128,-1,10
 564 954 564 954 687 954 c 0,11,12
 831 954 831 954 915.5 867.5 c 128,-1,13
 1000 781 1000 781 1000 633 c 2,14,-1
 1000 0 l 1,15,-1
 832 0 l 1,0,-1
203 0 m 1,16,-1
 203 1475 l 1,17,-1
 371 1493 l 1,18,-1
 371 0 l 1,19,-1
 203 0 l 1,16,-1
EndSplineSet
Validated: 5
EndChar

StartChar: uni04BD
Encoding: 1213 1213 508
Width: 1200
GlyphClass: 2
Flags: W
LayerCount: 2
Fore
SplineSet
21 692 m 0,0,1
 21 754 21 754 45.5 802.5 c 128,-1,2
 70 851 70 851 99 895 c 1,3,-1
 207 843 l 1,4,5
 189 806 189 806 177 772.5 c 128,-1,6
 165 739 165 739 165 701 c 0,7,8
 165 651 165 651 191 624 c 128,-1,9
 217 597 217 597 268 597 c 2,10,-1
 419 597 l 1,11,-1
 419 470 l 1,12,-1
 293 470 l 2,13,14
 157 470 157 470 89 532 c 128,-1,15
 21 594 21 594 21 692 c 0,0,1
453 467 m 1,16,17
 456 347 456 347 495.5 270 c 128,-1,18
 535 193 535 193 599 156 c 128,-1,19
 663 119 663 119 741 119 c 0,20,21
 817 119 817 119 869 141 c 128,-1,22
 921 163 921 163 977 197 c 1,23,-1
 1059 91 l 1,24,25
 1001 44 1001 44 918 10.5 c 128,-1,26
 835 -23 835 -23 740 -23 c 0,27,28
 597 -23 597 -23 495 46 c 128,-1,29
 393 115 393 115 338.5 238.5 c 128,-1,30
 284 362 284 362 284 525 c 0,31,32
 284 682 284 682 336 806 c 128,-1,33
 388 930 388 930 483 1002.5 c 128,-1,34
 578 1075 578 1075 709 1075 c 0,35,36
 899 1075 899 1075 1004 937 c 128,-1,37
 1109 799 1109 799 1109 559 c 0,38,39
 1109 532 1109 532 1108 508.5 c 128,-1,40
 1107 485 1107 485 1106 467 c 1,41,-1
 453 467 l 1,16,17
711 939 m 0,42,43
 604 939 604 939 534.5 855 c 128,-1,44
 465 771 465 771 454 597 c 1,45,-1
 949 597 l 1,46,47
 946 766 946 766 886.5 852.5 c 128,-1,48
 827 939 827 939 711 939 c 0,42,43
EndSplineSet
Validated: 5
EndChar

StartChar: uni04C4
Encoding: 1220 1220 512
Width: 1200
GlyphClass: 2
Flags: W
AnchorPoint: "Anchor-1" 600 -399 basechar 0
AnchorPoint: "Anchor-0" 600 1053 basechar 0
LayerCount: 2
Fore
SplineSet
214 0 m 1,0,-1
 214 1053 l 1,1,-1
 382 1053 l 1,2,-1
 382 601 l 1,3,-1
 517 601 l 1,4,-1
 800 1053 l 1,5,-1
 981 1053 l 1,6,-1
 645 540 l 1,7,-1
 597 465 l 1,8,-1
 382 465 l 1,9,-1
 382 0 l 1,10,-1
 214 0 l 1,0,-1
808 0 m 1,11,-1
 808 250 l 2,12,13
 808 371 808 371 758 418 c 128,-1,14
 708 465 708 465 591 465 c 1,15,-1
 625 603 l 1,16,17
 791 603 791 603 883.5 521.5 c 128,-1,18
 976 440 976 440 976 272 c 2,19,-1
 976 0 l 1,20,-1
 808 0 l 1,11,-1
685 -423 m 0,21,22
 608 -423 608 -423 552 -399.5 c 128,-1,23
 496 -376 496 -376 460 -349 c 1,24,-1
 526 -240 l 1,25,26
 561 -260 561 -260 594 -272.5 c 128,-1,27
 627 -285 627 -285 678 -285 c 0,28,29
 737 -285 737 -285 772.5 -250 c 128,-1,30
 808 -215 808 -215 808 -135 c 2,31,-1
 808 2 l 1,32,-1
 976 2 l 1,33,-1
 976 -121 l 2,34,35
 976 -271 976 -271 895.5 -347 c 128,-1,36
 815 -423 815 -423 685 -423 c 0,21,22
EndSplineSet
Validated: 5
EndChar

StartChar: uni04C6
Encoding: 1222 1222 513
Width: 1200
Flags: W
LayerCount: 2
Fore
SplineSet
959 1053 m 1,0,-1
 959 0 l 1,1,-1
 791 0 l 1,2,-1
 791 913 l 1,3,-1
 457 913 l 1,4,-1
 433 635 l 2,5,6
 419 459 419 459 399.5 348.5 c 128,-1,7
 380 238 380 238 349 170 c 128,-1,8
 318 102 318 102 271 59.5 c 128,-1,9
 224 17 224 17 155 -22 c 1,10,-1
 83 86 l 1,11,12
 120 109 120 109 149.5 137.5 c 128,-1,13
 179 166 179 166 202 220 c 128,-1,14
 225 274 225 274 242.5 371 c 128,-1,15
 260 468 260 468 273 627 c 2,16,-1
 305 1053 l 1,17,-1
 959 1053 l 1,0,-1
1114 132 m 1,18,-1
 982 -294 l 1,19,-1
 844 -294 l 1,20,-1
 913 0 l 1,21,-1
 842 0 l 1,22,-1
 848 132 l 1,23,-1
 1114 132 l 1,18,-1
EndSplineSet
Validated: 5
EndChar

